<svg xmlns="http://www.w3.org/2000/svg" xmlns:svg="http://www.w3.org/2000/svg" id="svg1" width="270" height="180" version="1.1" viewBox="0 0 71.437 47.625"><title>Hand drawn leaves flowers - Designed by Freepik</title><g id="layer1"><path id="path3" d="m 29.625343,36.039681 c -0.20143,0.27059 -0.39229,0.54046 -0.61489,0.7867 0.30692,-0.1838 0.58914,-0.387 0.61489,-0.7867 z m -10.52936,2.46698 c 0.27058,0.17216 0.55492,0.28257 0.88407,0.24518 0.12594,-0.0141 0.13617,-0.0871 0.13793,-0.17533 0.002,-0.096 -0.0734,-0.0871 -0.13899,-0.0889 -0.2914,-0.009 -0.58244,0.0409 -0.88301,0.019 z m -6.21523,-3.79624 c -0.0102,0.0251 -0.0205,0.0501 -0.0307,0.0748 0.0392,0.121 0.0815,0.24095 0.11677,0.36301 0.0363,0.127 0.12735,0.1591 0.21943,0.0903 0.23636,-0.17639 0.48825,-0.33585 0.71579,-0.57609 -0.37359,-0.0603 -0.67945,0.19438 -1.02129,0.048 z m 16.19955,0.10901 c -0.24624,-0.12453 -0.51541,-0.23142 -0.76482,-0.11113 -0.18309,0.0882 -0.37994,0.23601 -0.42051,0.51682 0.4572,-0.01 0.8008,-0.25435 1.18533,-0.40569 z m 1.98543,-23.02792 c -0.32702,-0.1965 -0.65193,-0.30869 -0.97225,-0.43078 -0.10372,-0.0398 -0.15946,0.007 -0.18239,0.11465 -0.0607,0.28787 0.073,0.46426 0.37606,0.45791 0.24589,-0.005 0.49707,-0.004 0.77858,-0.14178 z m -1.38394,23.5017 c -0.11501,-0.0402 -0.15276,0.0272 -0.19086,0.0695 -0.40604,0.44661 -0.77646,0.92745 -1.26929,1.28975 -0.10654,0.0783 -0.17463,0.20673 -0.0624,0.29951 0.11782,0.0977 0.19755,-0.0473 0.24165,-0.13229 0.0878,-0.1704 0.18521,-0.31327 0.38947,-0.35137 0.0381,-0.007 0.0755,-0.043 0.10371,-0.0744 0.30233,-0.33514 0.51788,-0.72989 0.78776,-1.10066 z m -2.27224,4.698289 c 0.4639,-0.730599 0.80927,-1.517649 1.12712,-2.334329 -0.26987,-0.031 -0.34431,0.1083 -0.40746,0.28716 -0.2413,0.68051 -0.45155,1.37266 -0.71966,2.047169 z M 2.4512226,34.512161 c 0.38065,-0.0413 0.70344,-0.17392 1.03964,-0.24554 0.60678,-0.12946 0.79798,-0.2159 0.95003,-0.42615 -0.46919,0.0617 -0.91758,0.13864 -1.36878,0.17462 -0.3108,0.0247 -0.50376,0.16017 -0.62089,0.49707 z m 26.7035204,0.66146 c -0.16158,0.0279 -0.30798,0.0653 -0.44062,0.1404 -0.19015,0.10725 -0.39794,0.16616 -0.60466,0.22613 -0.14217,0.0409 -0.32421,0.0349 -0.3355,0.23813 -0.008,0.15769 -0.0705,0.31891 0.0106,0.47695 0.10407,0.20214 0.20249,0.21731 0.36512,0.0554 0.35666,-0.35525 0.68827,-0.73237 1.00507,-1.137 z m 2.9404,-24.16525 c -0.0991,-0.0527 -0.16404,-0.0861 -0.22825,-0.12142 -0.24765,-0.13752 -0.47554,-0.28251 -0.57573,-0.58029 -0.073,-0.21593 -0.28893,-0.27587 -0.49671,-0.3143199 -0.24377,-0.0448 -0.39688,0.0484 -0.39582,0.2907599 7.9e-4,0.19156 -0.072,0.31916 -0.22049,0.42114 0.18027,0.16616 0.36689,0.20779 0.58314,0.21619 0.3295,0.0128 0.66605,-0.0161 0.98602,0.11151 0.0935,0.0375 0.20637,0.0393 0.34784,-0.0236 z m -18.94523,23.36303 c 0.28364,0.0169 0.49142,-0.0452 0.70168,-0.0889 0.14958,-0.031 0.30021,-0.0554 0.44979,-0.0155 0.22789,0.0614 0.28998,0.23706 0.13582,0.41522 -0.12629,0.1464 -0.27164,0.27622 -0.4258,0.39758 -0.1965,0.15487 -0.42122,0.28257 -0.56127,0.51188 0.30621,-0.0282 0.59231,-0.0995 0.83679,-0.28893 0.0935,-0.0727 0.1905,-0.14393 0.24377,-0.25611 0.19649,-0.41275 0.32102,-0.83997 0.26423,-1.30458 -0.0148,-0.1217 -0.0741,-0.14675 -0.17639,-0.0949 -0.15417,0.0787 -0.30762,0.15839 -0.46073,0.23918 -0.0871,0.0459 -0.17568,0.0924 -0.27693,0.0755 -0.33196,-0.0561 -0.51259,0.15486 -0.73096,0.40957 z m 18.33563,-7.59143 c 1.33244,-0.90734 2.54423,-2.07256 2.65677,-2.54317 -1.21744,0.47343 -2.07998,1.32115 -2.65677,2.54317 z m -10.10779,18.897246 c 0.35137,0.0332 0.6537,0.0402 0.95497,0.0148 0.24977,-0.0212 0.44027,-0.133 0.57503,-0.36336 0.14957,-0.25577 0.28187,-0.527049 0.54751,-0.702389 0.31185,-0.20602 0.23248,-0.49917 0.12982,-0.78457 -0.0624,-0.17498 -0.14534,-0.19403 -0.27481,-0.0561 -0.0889,0.0945 -0.15487,0.21096 -0.24836,0.30021 -0.54645,0.52176 -1.09784,1.038579 -1.68416,1.591379 z m 15.2527,-39.0814549 c -0.0723,0.502 -0.16298,0.98859 0.0159,1.435199 0.26282,0.655401 0.46496,1.360561 1.06222,1.82799 0.0501,0.0395 0.0931,0.0931 0.12559,0.1482699 0.30127,0.5104 0.78246,0.81661 1.31304,1.16375 -0.19086,-0.33969 -0.27729,-0.66255 -0.4251,-0.95748 -0.1898,-0.3785299 -0.3175,-0.7813289 -0.4886,-1.1669089 -0.33267,-0.751841 -0.64805,-1.5113 -1.23684,-2.11254 -0.10442,-0.10651 -0.17462,-0.24762 -0.36618,-0.33828 z M 22.847773,24.618861 c -0.39616,-0.0882 -0.71472,-0.33726 -1.11583,-0.4251 -0.37783,-0.0833 -0.75353,-0.18062 -1.13912,-0.23142 -0.48754,-0.0642 -0.94791,0.009 -1.38148,0.25294 -0.26529,0.14958 -0.51788,0.31891 -0.75953,0.5013 -0.2219,0.16757 -0.35384,0.41839 -0.54786,0.61948 0.16898,0.12558 0.31221,0.0487 0.44802,0.0519 1.09573,0.0265 2.18617,-0.0392 3.27061,-0.20143 0.0642,-0.01 0.15204,0.002 0.16722,-0.0688 0.0473,-0.2233 0.15804,-0.27975 0.36547,-0.1845 0.0339,0.0155 0.0988,-0.0335 0.14852,-0.0554 0.17745,-0.0776 0.34643,-0.17463 0.54398,-0.25894 z m 31.961951,-5.69489 c -0.12675,2.6e-4 -0.15377,0.0698 -0.18972,0.11849 -0.30498,0.41208 -0.68834,0.75075 -1.06303,1.09189 -0.40901,0.37218 -0.8081,0.75212 -1.18014,1.16028 -0.42542,0.46638 -0.7964,0.96873 -1.038791,1.55893 -0.41755,1.0167 -0.49252,2.07786 -0.42362,3.15877 0.003,0.0406 0.004,0.0896 0.0577,0.10548 0.0159,-0.0141 0.0379,-0.0247 0.0467,-0.042 0.493081,-0.96626 1.055441,-1.8923 1.657101,-2.7933 0.70513,-1.05586 1.37982,-2.12619 1.82302,-3.32492 0.12276,-0.33197 0.26458,-0.65864 0.31072,-1.03364 z m -31.645861,17.60784 c -0.1277,-0.0836 -0.22719,-0.0522 -0.32032,-0.0621 -0.26846,-0.0286 -0.54328,-0.0109 -0.80468,-0.0974 -0.62795,-0.20709 -1.23473,-0.46497 -1.82916,-0.75354 -0.23354,-0.11324 -0.42898,-0.25717 -0.49248,-0.52493 -0.0236,-0.10019 -0.0797,-0.15769 -0.18238,-0.14076 -0.28822,0.0469 -0.57573,0.1016 -0.85125,0.20003 -0.11854,0.042 -0.18309,0.1464 -0.23954,0.25435 -0.0903,0.17286 -0.16439,0.35948 -0.28222,0.51152 -0.16722,0.21485 -0.17145,0.43428 -0.0935,0.67169 0.13688,0.41769 0.13335,0.82586 -0.0395,1.23649 -0.084,0.19897 -0.043,0.26952 0.15558,0.34396 0.24271,0.0907 0.47166,-0.004 0.70449,-0.0681 -0.0917,-0.0466 -0.1845,-0.0709 -0.27693,-0.0967 -0.0854,-0.024 -0.18203,-0.0522 -0.16827,-0.16228 0.0145,-0.1203 0.11853,-0.16369 0.21872,-0.13687 0.31185,0.084 0.62689,-0.002 0.93839,0.0332 0.0935,0.0106 0.19332,-0.0233 0.27375,0.0642 0.0804,0.0878 -0.0289,0.18909 0.0289,0.27481 0.22084,0.0632 0.37994,-0.0127 0.49989,-0.19896 0.16333,-0.2533 0.39334,-0.4251 0.66216,-0.55845 0.39864,-0.1972 0.82197,-0.33196 1.22767,-0.51082 0.26705,-0.11748 0.56797,-0.13053 0.87065,-0.2794 z m -0.2674,7.210777 c -0.64065,0.50835 -1.29329,0.97508 -1.92194,1.472489 -0.20637,0.16334 -0.43638,0.28364 -0.67556,0.38665 -0.10196,0.0441 -0.2286,0.0695 -0.29457,-0.0434 -0.0769,-0.13229 0.0494,-0.19191 0.13899,-0.24694 0.16616,-0.10195 0.3489,-0.18062 0.50447,-0.29633 0.78246,-0.582789 1.53529,-1.202269 2.27895,-1.834799 0.59196,-0.503419 0.8255,-1.181099 1.06186,-1.876429 -0.078,-0.009 -0.11677,0.0321 -0.1584,0.0656 -0.54328,0.44203 -1.15887,0.75988 -1.79458,1.04211 -0.68509,0.3048 -1.38536,0.0561 -1.93992,-0.4445 -0.35208,-0.3175 -0.46814,-0.766239 -0.54469,-1.223079 -0.0557,-0.33267 -0.0349,-0.66534 -0.008,-0.99907 -0.0423,2.6e-4 -0.0695,-0.008 -0.0822,0.002 -0.39018,0.30268 -0.72426,0.6537 -0.91264,1.11936 -0.10231,0.2533 -0.21131,0.498129 -0.4131,0.691799 -0.13759,0.13229 -0.16475,0.29492 -0.12418,0.47943 0.0261,0.11924 0.0847,0.22225 0.12982,0.33231 0.0744,0.17992 0.17498,0.36513 0.11818,0.561269 -0.0614,0.20991 -0.004,0.37924 0.0903,0.55704 0.25012,0.46954 0.48578,0.94438 0.58526,1.475669 0.0452,0.23989 0.23001,0.38982 0.4251,0.51152 0.15557,0.097 0.33055,0.16264 0.49142,0.25189 0.19508,0.10865 0.39229,0.11218 0.59655,0.0388 0.31785,-0.11465 0.63182,-0.25153 0.88406,-0.47342 0.42262,-0.372179 0.82056,-0.772229 1.22378,-1.165579 0.12206,-0.11924 0.22754,-0.25576 0.34079,-0.38418 z m 4.82706,-9.168697 c -0.11254,-0.13793 -0.2914,-0.14569 -0.42369,-0.23777 -0.65863,-0.4572 -1.32997,-0.89605 -1.97943,-1.36525 -0.42651,-0.30833 -0.895,-0.42862 -1.40618,-0.42016 -0.38029,0.006 -0.72884,0.1069 -0.99412,0.40217 -0.47308,0.5267 -1.0728,0.85725 -1.74802,1.00683 -0.48154,0.10654 -0.73836,0.4258 -0.97155,0.79022 -0.18238,0.28469 -0.15416,0.34255 0.12559,0.51858 0.41698,0.26212 0.889,0.39829 1.34303,0.57397 0.34431,0.133 0.69744,0.2413 1.07315,0.23601 0.13017,-0.002 0.25999,0.0169 0.3884,0.019 0.52846,0.009 1.05834,0.096 1.58503,-0.0413 0.16546,-0.043 0.34961,-0.0734 0.51541,-0.0466 0.36054,0.0582 0.70944,-0.0289 1.06363,-0.0377 0.21272,-0.005 0.42862,0.036 0.64029,-0.0353 -0.0289,-0.0564 -0.0773,-0.0427 -0.11571,-0.0441 -1.17687,-0.0437 -2.31599,-0.32103 -3.4611,-0.56162 -0.0945,-0.0198 -0.18663,-0.0575 -0.27482,-0.0981 -0.10301,-0.0473 -0.19191,-0.11606 -0.15557,-0.24906 0.0282,-0.10371 0.1718,-0.16122 0.30162,-0.0956 0.24836,0.12594 0.51576,0.16157 0.78246,0.20814 0.8001,0.14005 1.59279,0.32596 2.40418,0.39652 0.16969,0.0148 0.34184,0.0388 0.51188,-0.0134 -0.63076,-0.13124 -1.24178,-0.32033 -1.86654,-0.45226 -0.14817,-0.031 -0.29669,-0.0674 -0.43886,-0.11854 -0.12594,-0.0455 -0.19191,-0.14922 -0.15134,-0.28504 0.0459,-0.15558 0.1591,-0.0977 0.26599,-0.072 0.64206,0.15416 1.28447,0.30868 1.92864,0.45402 0.18979,0.043 0.38594,0.0571 0.57926,0.0836 0.0942,0.0131 0.18027,-0.008 0.21661,-0.10266 0.0593,-0.15345 0.18944,-0.26105 0.26176,-0.41275 z m -13.90791,-3.47768 c -0.0977,-0.17709 -0.19015,-0.34749 -0.31468,-0.5013 -0.48578,-0.59901 -1.10596,-1.00118 -1.82668,-1.25271 -0.52,-0.18133 -1.05023,-0.23707 -1.59703,-0.10866 -0.2624707,0.0617 -0.5344607,0.15981 -0.8015104,0.11536 -0.52881,-0.0875 -1.06116,-0.0529 -1.59068,-0.091 -0.16298,-0.0116 -0.31644,-0.066 -0.48118,-0.0734 -0.19333,-0.009 -0.33197,0.0272 -0.42193,0.21696 -0.0649,0.13652 -0.16827,0.24976 -0.31432,0.31891 -0.27376,0.12947 -0.52599,0.3055 -0.82833,0.37465 -0.11782,0.0268 -0.2413,0.0783 -0.29739,0.1852 -0.11112,0.21238 -0.29633,0.33903 -0.47589,0.47908 -0.14112,0.10971 -0.13512,0.20955 0.0113,0.30515 0.14112,0.0917 0.29987,0.11465 0.46779,0.10372 0.51929,-0.0342 1.03258,-0.12453 1.55293,-0.15099 0.20355,-0.0102 0.41804,-0.0533 0.59055,-0.16898 0.35524,-0.23813 0.73095,-0.18133 1.09784,-0.0833 0.60925,0.16228 1.2223797,0.29316 1.8478504,0.37112 0.635,0.0797 1.23049,0.27764 1.74907,0.65688 0.28011,0.20496 0.5387,0.4579 0.65264,0.79233 0.0819,0.23954 0.23813,0.4064 0.38312,0.59303 0.0942,0.12135 0.18168,0.13052 0.30198,0.0434 0.16827,-0.12207 0.36089,-0.14888 0.55844,-0.0977 0.12136,0.0317 0.23742,0.009 0.35525,-0.002 0.21943,-0.0212 0.23777,-0.0628 0.17604,-0.26 -0.19474,-0.62335 -0.54363,-1.17616 -0.79516,-1.76565 z m 13.54314,5.29237 c -0.10584,-0.10371 -0.18874,-0.0522 -0.26635,-0.0286 -0.70626,0.21766 -1.42346,0.38558 -2.15794,0.46813 -0.27482,0.031 -0.55775,0.11183 -0.8181,-0.0698 -0.0698,-0.0487 -0.1471,0.007 -0.22119,0.0113 -0.34149,0.019 -0.64382,0.18097 -0.96837,0.26282 -0.63218,0.15875 -1.23755,0.39405 -1.82104,0.68298 -0.23389,0.11606 -0.39794,0.29598 -0.38206,0.5842 0.004,0.0716 -0.0258,0.12735 -0.0833,0.16615 -0.10866,0.073 -0.1457,0.18662 -0.17181,0.30375 -0.0289,0.12982 -0.10372,0.23742 -0.15628,0.35524 -0.10195,0.2286 -0.2794,0.41416 -0.35419,0.657229 -0.12982,0.42016 -0.11006,0.85407 0.024,1.2506 0.0995,0.294209 0.24236,0.583139 0.54575,0.798329 0.40428,0.28575 0.81209,0.42087 1.252,0.24448 0.57186,-0.22931 1.13877,-0.49178 1.63372,-0.869949 0.54363,-0.41558 1.04598,-0.87842 1.49578,-1.39771 0.21272,-0.245529 0.41486,-0.500589 0.65757,-0.720719 0.57009,-0.51647 1.13277,-1.0414 1.69757,-1.56387 0.0748,-0.0688 0.17321,-0.12523 0.17357,-0.26987 -0.19333,0.0307 -0.34784,0.0995 -0.49424,0.19332 -0.10937,0.0702 -0.22896,0.12136 -0.34608,0.17886 -0.67239,0.32985 -1.39771,0.53269 -2.06834,0.86571 -0.0967,0.048 -0.19402,0.1016 -0.30515,0.10725 -0.0967,0.005 -0.16898,-0.0388 -0.19861,-0.1337 -0.031,-0.0984 0.006,-0.18627 0.0988,-0.21096 0.25717,-0.0681 0.44873,-0.272 0.70061,-0.33761 0.40287,-0.10513 0.77294,-0.28364 1.143,-0.46567 0.19756,-0.097 0.42757,-0.12771 0.63077,-0.30586 -0.079,0.0169 -0.12242,0.019 -0.16016,0.0349 -0.73942,0.31397 -1.50601,0.55421 -2.25461,0.84278 -0.38417,0.14817 -0.78881,0.24271 -1.15252,0.44521 -0.0787,0.0437 -0.17321,0.0543 -0.23178,-0.037 -0.0663,-0.10337 -0.0159,-0.19368 0.0702,-0.25224 0.0977,-0.0667 0.2039,-0.12594 0.31397,-0.16898 0.39405,-0.15346 0.78881,-0.30515 1.1871,-0.44626 0.99977,-0.3549 1.98931,-0.73449 2.98767,-1.1744 z m 0.19402,1.89689 c -0.0378,0.0381 -0.0825,0.0713 -0.11183,0.11465 -0.19791,0.29386 -0.48718,0.49142 -0.75036,0.71579 -0.10124,0.0864 -0.22013,0.18027 -0.34642,0.0765 -0.10337,-0.0847 -0.15276,-0.0409 -0.20532,0.0346 -0.13935,0.19967 -0.33514,0.33726 -0.51929,0.4886 -0.37994,0.31185 -0.72425,0.653699 -0.93663,1.108779 -0.0868,0.18591 -0.18238,0.36865 -0.2861,0.5461 -0.23742,0.40675 -0.39546,0.84173 -0.48718,1.302459 -0.14288,0.7186 0.0328,1.391699 0.29316,2.052459 0.0473,0.12065 0.0924,0.24447 0.15804,0.3556 0.14146,0.23847 0.23248,0.25717 0.47484,0.12135 0.0568,-0.0317 0.11183,-0.0663 0.16686,-0.10089 0.34855,-0.21978 0.6851,-0.46179 1.0474,-0.65511 0.56233,-0.29951 1.04352,-0.691799 1.49613,-1.134889 0.80328,-0.78563 1.23931,-1.769179 1.53141,-2.823279 0.13546,-0.488589 0.23777,-0.988479 0.31573,-1.493309 0.0797,-0.51505 0.0166,-1.01494 -0.0677,-1.51729 -0.0229,-0.13618 -0.12771,-0.16334 -0.23883,-0.0815 -0.055,0.0409 -0.0885,0.0956 -0.10548,0.1598 -0.14111,0.53834 -0.4191,1.02235 -0.61454,1.53917 -0.15804,0.4184 -0.4124,0.7867 -0.63288,1.171229 -0.15134,0.26352 -0.44944,0.3563 -0.63606,0.25258 -0.19473,-0.1083 -0.21414,-0.29527 -0.0582,-0.628649 0.23848,-0.51082 0.40993,-1.04457 0.51329,-1.60478 z m -5.715,-33.7184689 c 0.22931,0.13547 0.39723,0.27203 0.60643,0.34216 0.16651,0.0565 0.30903,0.15628 0.44767,0.26184 0.0631,0.0476 0.12524,0.10018 0.0822,0.18767 -0.0448,0.0914 -0.13053,0.11423 -0.22119,0.0867 -0.0716,-0.0218 -0.139,-0.0595 -0.20532,-0.0955 -0.3048,-0.16549 -0.60854,-0.33348 -0.91334,-0.49883 -0.0847,-0.0463 -0.16898,-0.11535 -0.2727,-0.0674 -0.19614,0.091 -0.3997,0.17282 -0.55915,0.32632 -0.14535,0.13959 -0.13617,0.17325 0.0473,0.27411 0.3422,0.18796 0.71932,0.29986 1.05622,0.502 0.37183,0.22366 0.76059,0.41659 1.15323,0.60318 0.69391,0.32949 1.34126,0.75463 2.07116,1.01258 0.0564,0.0197 0.11006,0.0729 0.14464,0.12446 0.0808,0.12096 0.008,0.25008 -0.13582,0.24486 -0.0522,-0.002 -0.1069,-0.0195 -0.15487,-0.042 -0.31362,-0.14775 -0.63677,-0.27976 -0.93663,-0.4523 -0.82797,-0.47625 -1.70286,-0.86141 -2.53859,-1.32292 -0.28363,-0.15653 -0.59302,-0.26596 -0.88758,-0.40418 -0.11219,-0.053 -0.1584,-0.012 -0.18874,0.0906 -0.0882,0.30068 -0.018,0.4258 0.28187,0.5395 0.72037,0.27228 1.43616,0.55563 2.1276,0.89779 1.12677,0.55809 2.25249,1.119359 3.41665,1.5977 0.0744,0.0303 0.13547,0.0638 0.16828,0.13973 0.0536,0.12457 -0.0141,0.22186 -0.14852,0.2074 -0.0423,-0.005 -0.0847,-0.0204 -0.12418,-0.0374 -0.60713,-0.2625 -1.23049,-0.49456 -1.81716,-0.797601 -0.75177,-0.38847 -1.52611,-0.728169 -2.27894,-1.114139 -0.57044,-0.29242 -1.19098,-0.46605 -1.78012,-0.7155 -0.19685,-0.0832 -0.38382,-0.0247 -0.57467,0.0124 -0.0843,0.0165 -0.12736,0.0737 -0.14535,0.15558 -0.0967,0.44344 -0.24059,0.88152 -0.17991,1.344819 0.0314,0.24021 -0.003,0.474451 -0.0328,0.711201 -0.0547,0.43216 -0.0522,0.828359 0.20002,1.243829 0.33126,0.5454299 0.7306,0.9811799 1.276,1.2989599 0.1083,0.0631 0.19085,0.0635 0.30092,0.0183 0.20038,-0.0821 0.31644,-0.21167 0.33302,-0.43561 0.0102,-0.13766 0.006,-0.28441 0.10654,-0.40153 0.30797,-0.35871 0.63571,-0.6818899 1.13665,-0.7551899 0.68933,-0.10129 1.38254,-0.13903 2.07469,-0.0766 0.81985,0.0737 1.63301,0.21982 2.45745,0.24903 0.44556,0.0156 0.87771,0.14111 1.32468,0.15173 0.36865,0.009 0.73483,0.0547 1.09643,0.1329599 0.0603,0.0135 0.12629,0.0692 0.18239,0.0131 0.0617,-0.0624 0.0321,-0.1428799 0.003,-0.2130499 -0.0289,-0.0699 -0.0593,-0.14083 -0.10019,-0.20436 -0.2734,-0.423999 -0.6036,-0.800349 -1.04881,-1.043019 -0.36583,-0.19968 -0.65934,-0.494701 -1.00929,-0.708451 -0.63818,-0.389859 -1.288,-0.757099 -1.83233,-1.283369 -0.29563,-0.28607 -0.64594,-0.5176 -0.92745,-0.81524 -0.62442,-0.6605 -1.38607,-1.10285 -2.20063,-1.47009 -0.30833,-0.13907 -0.58596,-0.0631 -0.88089,0.18383 z m 9.66858,7.5765789 c -0.0437,-0.0469 -0.0765,-0.0325 -0.10407,-0.019 -0.32985,0.16538 -0.68932,0.19791 -1.04563,0.19336 -0.25506,-0.003 -0.53481,-0.0296 -0.69497,-0.27905 -0.18733,-0.29175 -0.15769,-0.62025 -0.10972,-0.9441 0.007,-0.0466 0.0512,-0.0995 0.0931,-0.12735 0.0811,-0.0536 0.18873,-0.0818 0.1143,-0.21594 -0.0473,-0.0853 -0.0797,-0.18383 -0.18627,-0.21371 -0.10442,-0.0294 -0.21096,-0.0509 -0.31609,-0.0773 -0.38206,-0.0956 -0.78034,-0.0405 -1.16346,-0.1269 -0.40393,-0.0907 -0.81527,-0.12389 -1.22661,-0.14926 -0.41134,-0.0257 -0.82126,-0.0586 -1.22731,-0.1338 -0.883,-0.1628799 -1.76989,-0.1554399 -2.65571,-0.038 -0.71226,0.0945 -1.05022,0.41342 -1.1931,1.11262 -0.0388,0.19128 -0.11994,0.31683 -0.30409,0.38174 -0.12489,0.0438 -0.23142,0.12139 -0.30551,0.23315 -0.14922,0.22656 -0.30233,0.45089 -0.4385,0.68517 -0.10266,0.17596 -0.0744,0.2311 0.12312,0.25714 0.52599,0.0692 1.05234,0.16549 1.58044,0.17995 0.33267,0.009 0.66464,0.062 1.00154,0.0331 0.35525,-0.0303 0.71473,-0.0172 1.07209,-0.0186 0.10901,-5.3e-4 0.19509,0.0466 0.19403,0.17032 -7.9e-4,0.12802 -0.0889,0.15762 -0.20002,0.156 -0.59585,-0.0104 -1.19204,-0.009 -1.78753,-0.0312 -0.61771,-0.0222 -1.23296,-0.0797 -1.84291,-0.18659 -0.19861,-0.0349 -0.25612,0.0438 -0.20179,0.23495 0.0561,0.19692 0.23671,0.22229 0.38347,0.25961 0.58773,0.14898 1.17193,0.3211 1.78294,0.35638 0.31397,0.0179 0.629,0.0303 0.94121,0.0645 0.58737,0.0642 1.16628,0.0269 1.74625,-0.0808 0.54328,-0.10089 1.08056,-0.2377 1.6323,-0.29351 0.11995,-0.0123 0.23989,-0.0254 0.34643,0.0477 0.0995,0.0681 0.091,0.17985 -0.019,0.22822 -0.0487,0.0215 -0.10513,0.0269 -0.15805,0.0367 -0.51152,0.0977 -1.02305,0.19195 -1.53387,0.29213 -0.96944,0.19019 -1.94028,0.16482 -2.91289,0.0269 -0.30056,-0.0427 -0.60536,-0.0649 -0.90099,-0.13064 -0.42192,-0.0934 -0.83715,-0.2165 -1.25448,-0.33087 -0.0878,-0.024 -0.16439,-0.0247 -0.25012,0.0169 -0.33161,0.1615 -0.58879,0.68047 -0.51294,1.03865 0.0173,0.0814 0.0706,0.0973 0.13476,0.11631 0.84455,0.24941 1.71556,0.29502 2.57916,0.21882 0.57432,-0.0509 1.14617,-0.036 1.71626,-0.0409 0.93416,-0.009 1.86267,-0.024 2.78342,-0.1997 0.30903,-0.0592 0.61983,-0.10693 0.91017,-0.23743 0.49495,-0.22295 1.01282,-0.38625 1.51553,-0.59023 0.2921,-0.11849 0.55563,-0.28674 0.84526,-0.40816 0.36371,-0.1524 0.6103,-0.45184 0.85442,-0.78673 -0.1972,-0.0236 -0.34501,-0.006 -0.49353,0.0303 -0.0903,0.0223 -0.17427,-0.01 -0.21978,-0.0987 -0.0476,-0.0935 -0.003,-0.16866 0.0628,-0.23219 0.0871,-0.0828 0.18098,-0.15381 0.30586,-0.17392 0.19262,-0.0314 0.35525,-0.13614 0.5401,-0.20603 z m -17.49001,24.38294 c -0.44274,-0.11536 -0.79587,-0.31715 -1.12325,-0.57432 -0.15381,-0.12101 -0.29704,-0.25189 -0.2667,-0.44979 0.0346,-0.22437 -0.042,-0.40394 -0.13511,-0.58844 -0.0783,-0.15522 -0.16298,-0.30903 -0.17427,-0.48683 -0.01,-0.15346 -0.0942,-0.20285 -0.23566,-0.20108 -0.22754,0.002 -0.45544,0.004 -0.68263,-0.005 -0.6731,-0.0261 -1.31762,0.0744 -1.9141707,0.40675 -0.1238197,0.0688 -0.2543497,0.12206 -0.3954597,0.14499 -0.57009,0.0921 -1.10102,0.31856 -1.65171,0.47731 -0.17674,0.0511 -0.35136,0.11148 -0.52211,0.18027 -0.71614,0.28716 -1.39417,0.65158 -2.0701,1.022 -0.32208,0.17639 -0.51999,0.42968 -0.56232,0.78422 -0.0416,0.34854 -0.16758,0.64453 -0.40394,0.90311 -0.12417,0.13653 -0.22295,0.29281 -0.21025,0.4953 0.0219,0.34855 -0.097,0.64347 -0.37465,0.85761 -0.37218,0.286799 -0.46214,0.688969 -0.48578,1.122179 -0.01,0.1778 0.0776,0.25435 0.23989,0.18133 0.23989,-0.1083 0.4953,-0.1591 0.74119,-0.24306 0.84137,-0.28681 1.64888,-0.66252 2.49696,-0.934509 0.53587,-0.17181 1.05551,-0.39335 1.58256,-0.59197 0.10619,-0.0402 0.22507,-0.0741 0.27693,0.0624 0.0512,0.13546 -0.06,0.19261 -0.16439,0.23459 -0.20109,0.0815 -0.40146,0.16405 -0.60572,0.23707 -0.54116,0.192619 -1.0862,0.374299 -1.6256,0.571849 -0.64135,0.23495 -1.27424,0.49248 -1.91841,0.71826 -0.28222,0.0991 -0.58526,0.2219 -0.88406,0.13335 -0.18556,-0.0547 -0.23142,0.0145 -0.28857,0.14217 -0.0353,0.0794 -0.067,0.160859 -0.11113,0.234949 -0.15839,0.26776 -0.16333,0.54328 -0.004,0.80151 0.24025,0.38805 0.44168,0.788809 0.53235,1.239309 0.002,0.0106 0.007,0.0205 0.012,0.0303 0.13688,0.30268 0.18697,0.62089 0.17251,0.95109 -0.004,0.0864 -0.008,0.17533 0.008,0.25964 0.0353,0.1898 0.0949,0.21943 0.2914,0.16545 0.0628,-0.0173 0.12453,-0.0381 0.18803,-0.0515 1.004,-0.21238 1.95262,-0.57679 2.86949,-1.03082 0.16545,-0.0818 0.33479,-0.15381 0.50342,-0.22754 0.83749,-0.36548 1.63724,-0.795159 2.3516097,-1.374419 0.7680007,-0.6223 1.4675607,-1.319389 2.1978107,-1.982969 0.19297,-0.17498 0.38523,-0.35066 0.48401,-0.601479 0.0166,-0.042 0.0437,-0.0723 0.0882,-0.0885 0.23883,-0.0871 0.3616,-0.2981 0.51612,-0.47801 0.39511,-0.46073 0.62124,-1.02447 0.94544,-1.52859 0.0748,-0.11642 0.15311,-0.24765 0.15099,-0.39088 -0.002,-0.18097 0.0575,-0.33725 0.16051,-0.5274 z m 9.8111,8.286397 c -0.21661,0.209899 -0.43039,0.373939 -0.53411,0.615239 -0.21766,0.508 -0.64558,0.67098 -1.13523,0.65052 -0.53658,-0.0222 -1.0594,0.0413 -1.5875,0.10195 -0.79058,0.0907 -1.41747,-0.21272 -1.87996,-0.85513 -0.0688,-0.0953 -0.1397,-0.20673 -0.15628,-0.31891 -0.0628,-0.430739 -0.27129,-0.799039 -0.47131,-1.171569 -0.16792,-0.31257 -0.28998,-0.62795 -0.2039,-0.99449 0.036,-0.152749 -0.0233,-0.301269 -0.10266,-0.434969 -0.25788,-0.43286 -0.21661,-0.82515 0.15416,-1.175459 0.0804,-0.0762 0.13476,-0.17286 0.17004,-0.27516 0.22789,-0.65687 0.66075,-1.16346 1.1744,-1.611489 0.0409,-0.0356 0.0801,-0.0734 0.12276,-0.10689 0.10866,-0.0854 0.0649,-0.14993 -0.0332,-0.19086 -0.31997,-0.13405 -0.6417,-0.26387 -0.96449,-0.39123 -0.19262,-0.0755 -0.3803,-0.16016 -0.55316,-0.27446 -0.25329,-0.16722 -0.28787,-0.25999 -0.20073,-0.54398 0.0254,-0.0829 0.0586,-0.16369 0.09,-0.24448 0.1016,-0.26211 0.13653,-0.52458 0.009,-0.78987 -0.0138,-0.0289 -0.0201,-0.0617 -0.0303,-0.0924 -0.10971,-0.33055 -0.15204,-0.64206 0.12841,-0.92922 0.15875,-0.16263 0.23142,-0.39017 0.32138,-0.59972 0.11183,-0.26 0.30586,-0.41734 0.58844,-0.45614 0.32244,-0.0438 0.6297,-0.16898 0.95849,-0.17992 0.1196,-0.004 0.19791,-0.0744 0.266,-0.1658 0.0903,-0.12207 0.18556,-0.2406 0.28081,-0.35878 0.18344,-0.2279 0.41593,-0.3616 0.70485,-0.43321 0.63994,-0.1591 1.21603,-0.42545 1.68487,-0.92569 0.53022,-0.56586 1.21778,-0.59549 1.93463,-0.44344 0.3369,0.0716 0.6477,0.21625 0.90946,0.41628 0.33726,0.25788 0.7052,0.4639 1.05339,0.70132 0.43674,0.29739 0.86325,0.61595 1.34797,0.83784 0.0893,0.0409 0.18027,0.0695 0.28046,0.0766 0.48824,0.036 0.97155,0.10407 1.43404,0.27375 0.12912,0.0476 0.22683,0.0173 0.32879,-0.0649 1.19874,-0.96731 2.4204,-1.90817 3.30694,-3.20075 0.4265,-0.62195 0.76341,-1.28517 1.02729,-1.98896 0.4071,-1.08656 0.65687,-2.20063 0.63182,-3.36938 -0.0109,-0.52141 0.067,-1.03858 0.12277,-1.55575 0.0152,-0.14076 0.0243,-0.27728 0.0141,-0.41981 -0.11994,0.005 -0.16369,0.0808 -0.2092,0.15452 -0.5528,0.89852 -1.28234,1.64042 -2.09973,2.29129 -0.48013,0.38206 -0.94086,0.80716 -1.53635,1.0227 -0.0811,0.0293 -0.15557,0.0695 -0.20849,0.14711 -0.0825,0.1203 -0.20108,0.13582 -0.30939,0.0497 -0.1083,-0.0861 -0.11677,-0.20214 -0.0254,-0.31573 0.38877,-0.48401 0.635,-1.05975 1.00295,-1.55858 0.27164,-0.36865 0.5461,-0.74259 0.90593,-1.01811 0.52388,-0.40111 1.07598,-0.77259 1.72544,-0.95638 0.34713,-0.0981 0.6163,-0.46532 0.60007,-0.81951 -0.0137,-0.2921 -0.0137,-0.29174 0.24836,-0.17074 0.0166,0.008 0.0406,7.9e-4 0.0833,2.7e-4 0.0504,-0.43604 0.091,-0.87454 0.11994,-1.31622 0.0363,-0.55139 0.0152,-1.10631 0.10266,-1.65523 0.0293,-0.18415 0.0787,-0.35948 0.14041,-0.53344 0.0501,-0.14181 0.0945,-0.28539 0.109,-0.46524 -0.28398,0.0525 -0.49071,0.21735 -0.72072,0.32166 -0.39476,0.1796 -0.77435,0.3948 -1.16805,0.57365 -0.64135,0.2914 -1.26259,0.62548 -1.91841,0.88759 -0.42192,0.16863 -0.81667,0.40499 -1.22166,0.61454 -1.34973,0.69886 -2.6984,1.39947 -4.04742,2.09903 -0.46249,0.23989 -0.92252,0.48436 -1.38889,0.71579 -0.26,0.12876 -0.41628,0.33125 -0.51788,0.59619 -0.39193,1.02411 -0.81738,2.03412 -1.33632,3.00143 -0.30304,0.56551 -0.68545,1.0788 -1.07809,1.58468 -0.47977,0.61877 -1.016,1.18534 -1.58185,1.72403 -0.51682,0.49177 -1.15112,0.81456 -1.76283,1.16099 -0.77364,0.43815 -1.53564,0.89112 -2.2793,1.3783 -0.39088,0.25612 -0.75071,0.55386 -1.14688,0.80116 -0.18803,0.11747 -0.32174,0.27869 -0.35454,0.51788 -0.031,0.22613 -0.10725,0.44026 -0.25259,0.62759 -0.0575,0.0741 -0.0819,0.17533 -0.11501,0.2667 -0.21907,0.60113 -0.40746,1.21496 -0.66181,1.80058 -0.26776,0.6163 -0.59937,1.20473 -1.05798,1.7085 -0.16757,0.1845 -0.3115,0.38805 -0.47554,0.576439 -0.55845,0.63994 -1.21285,1.17863 -1.83092,1.753299 -0.40358,0.37536 -0.8163307,0.74648 -1.2491907,1.09044 -0.2448197,0.19438 -0.5185797,0.354189 -0.7891597,0.513999 -0.57926,0.34184 -1.18463,0.63253 -1.79987,0.90522 -0.47555,0.21061 -0.93134,0.47026 -1.42769,0.62936 -0.63924,0.20496 -1.28447,0.391939 -1.93111,0.572209 -0.35384,0.0988 -0.55492,-0.0656 -0.5849,-0.442039 -0.0247,-0.31185 0.0268,-0.62794 -0.0794,-0.93591 -0.1016,-0.29563 -0.26423,-0.57115 -0.2914,-0.89289 -0.006,-0.067 -0.0765,-0.127699 -0.11676,-0.191909 -0.0801,-0.12911 -0.16793,-0.254 -0.23813,-0.3884 -0.21625,-0.41417 -0.24553,-0.83221 0.0247,-1.234019 0.15205,-0.22648 0.21625,-0.47202 0.2166,-0.73731 2.7e-4,-0.45296 0.16863,-0.828669 0.52529,-1.105959 0.20814,-0.16157 0.30198,-0.36441 0.2988,-0.61806 -0.004,-0.30868 0.10019,-0.56903 0.30727,-0.79869 0.17815,-0.19791 0.27129,-0.43639 0.30833,-0.7045 0.0547,-0.39123 0.23142,-0.71155 0.57009,-0.94403 0.24342,-0.16722 0.5013,-0.30445 0.76059,-0.43956 0.79939,-0.41593 1.61713,-0.77717 2.48532,-1.04317 0.73201,-0.22436 1.49436,-0.36759 2.1854497,-0.72954 0.3178607,-0.16651 0.6801607,-0.21096 1.0463407,-0.18944 0.60819,0.036 1.2125,0.009 1.80658,-0.14429 0.1912,-0.049 0.20884,-0.0737 0.1016,-0.22366 -0.17039,-0.23812 -0.29528,-0.49565 -0.4191,-0.76235 -0.15311,-0.33091 -0.45826,-0.57009 -0.78634,-0.75107 -0.42334,-0.23318 -0.87983,-0.35912 -1.35643,-0.43603 -0.5884407,-0.0949 -1.1761604,-0.19897 -1.7561304,-0.34255 -0.30903,-0.0765 -0.61595,-0.11818 -0.90452,0.0907 -0.12348,0.0892 -0.28575,0.12241 -0.43357,0.12629 -0.44591,0.0124 -0.87806,0.14323 -1.32609,0.133 -0.23883,-0.005 -0.47801,0.0152 -0.68474,0.15981 -0.048,0.0335 -0.10125,0.0395 -0.15522,0.0222 -0.21696,-0.0691 -0.38382,0.0332 -0.53164,0.16722 -0.1912,0.17357 -0.41381,0.27446 -0.65969,0.3362 -0.38136,0.0949 -0.72143,0.29845 -1.09397,0.41768 -0.0677,0.0215 -0.14393,0.0536 -0.16474,0.13829 0.0145,0.0575 0.0614,0.061 0.10195,0.0561 0.48683,-0.0579 0.97649,-0.0377 1.46403,-0.036 0.60289,0.002 1.18498,-0.11395 1.772,-0.22084 0.53305,-0.097 1.0601,-0.23706 1.60161,-0.27657 0.63853,-0.0462 1.27953,-0.0444 1.92017,-0.0381 0.2060197,0.002 0.4120397,0.0116 0.6177104,0.007 0.30868,-0.007 0.60572,0.0406 0.89077,0.15911 0.10124,0.042 0.19967,0.0885 0.25929,0.18732 0.0579,0.096 0.10301,0.19756 0.0324,0.30445 -0.0653,0.0991 -0.17039,0.13335 -0.28292,0.12947 -0.084,-0.003 -0.16828,-0.0508 -0.12383,-0.14217 0.0716,-0.1464 -0.0198,-0.17604 -0.11818,-0.19579 -0.14852,-0.0296 -0.30198,-0.0702 -0.4505,-0.061 -0.5422207,0.0335 -1.0830204,-0.0159 -1.6238304,-0.0212 -1.07386,-0.01 -2.10961,0.21555 -3.15242,0.41698 -0.54399,0.10513 -1.0975,0.15487 -1.65206,0.12207 -0.32632,-0.0194 -0.64947,0.0198 -0.97437,0.0116 -0.12242,-0.003 -0.20532,0.031 -0.20991,0.18203 -0.006,0.22119 0.036,0.34396 0.16475,0.375 0.11747,0.0286 0.23142,0.0173 0.35101,-0.019 0.50271,-0.15346 1.02694,-0.16369 1.54517,-0.19967 0.24342,-0.0169 0.43427,0.0988 0.45438,0.23954 0.031,0.21343 -0.12947,0.30233 -0.27834,0.39617 -0.43075,0.27234 -0.92322,0.36583 -1.40512,0.49389 -0.46143,0.12206 -0.93698,0.18591 -1.38959,0.34219 -0.0406,0.0138 -0.0864,0.0148 -0.12065,0.0956 0.19297,0.0173 0.38806,-0.0878 0.56445,0.0289 0.0134,0.0977 -0.066,0.12806 -0.13477,0.14288 -0.23177,0.0501 -0.45261,0.1598 -0.6992,0.12946 -0.15346,-0.019 -0.19826,0.0628 -0.22719,0.20426 -0.15522,0.7613 0.0557,1.39982 0.58173,1.96568 0.30903,0.33196 0.57009,0.70838 0.84984,1.0668 0.0466,0.0593 0.0945,0.13088 0.0374,0.20673 -0.0561,0.0744 -0.13618,0.0497 -0.2092,0.0265 -0.0956,-0.0307 -0.17145,-0.0917 -0.23918,-0.16405 -0.19192,-0.20567 -0.399,-0.39617 -0.54928,-0.64029 -0.11889,-0.19297 -0.30127,-0.33619 -0.44203,-0.51682 -0.49636,-0.63888 -0.51894,-1.36348 -0.40569,-2.1082 0.0508,-0.33302 0.25647,-0.59161 0.54715,-0.77576 0.19121,-0.12135 0.3803,-0.248 0.49319,-0.43991 -0.006,-0.0709 -0.0487,-0.0815 -0.0903,-0.0953 -0.36125,-0.11924 -0.44274,-0.25188 -0.34149,-0.60219 0.0649,-0.22507 0.0931,-0.47413 0.32596,-0.61666 0.0395,-0.0243 0.0646,-0.0882 0.0766,-0.13829 0.0653,-0.27692 0.27199,-0.41557 0.51152,-0.50306 0.37642,-0.13793 0.7366,-0.31855 1.12995,-0.41416 0.23566,-0.0575 0.42369,-0.21343 0.60184,-0.37606 0.0942,-0.0861 0.0967,-0.17603 0.0515,-0.29245 -0.16369,-0.42369 -0.15487,-0.4445 0.23071,-0.71014 0.0907,-0.0624 0.1778,-0.12912 0.23883,-0.21872 0.18168,-0.26776 0.44733,-0.40358 0.74648,-0.48719 0.14817,-0.0416 0.28187,-0.11289 0.41734,-0.18098 0.20214,-0.1016 0.36054,-0.24482 0.41134,-0.47554 0.0367,-0.16686 0.14534,-0.24059 0.30374,-0.23389 0.20496,0.008 0.40957,-0.0166 0.6163,0.0229 0.26564,0.0511 0.53763,0.0825 0.80963,0.0593 0.40357,-0.0346 0.79904,0.0677 1.20156,0.0593 0.1753297,-0.004 0.3453697,-0.0134 0.5132897,-0.066 0.6773307,-0.21237 1.3430207,-0.0833 1.9794307,0.14076 0.58315,0.20532 1.11584,0.52458 1.57269,0.96062 0.2801,0.2674 0.49353,0.57326 0.66181,0.91687 0.0861,0.17533 0.15945,0.35842 0.25964,0.52528 0.28646,0.47837 0.43639,1.01565 0.66428,1.51871 0.16405,0.36266 0.25577,0.40534 0.62795,0.26211 0.15522,-0.06 0.31362,-0.12135 0.47096,-0.0423 0.14393,0.0727 0.2547,0.0166 0.363,-0.0547 0.25295,-0.16722 0.49742,-0.34678 0.75072,-0.51329 0.6798,-0.44768 1.38218,-0.85972 2.1022,-1.23684 0.52705,-0.27587 0.98495,-0.63571 1.39594,-1.05304 0.502,-0.50977 1.0033,-1.02412 1.42064,-1.60902 0.46002,-0.64453 0.89358,-1.30316 1.22414,-2.02989 0.29633,-0.65193 0.57714,-1.30986 0.85971,-1.96744 0.0208,-0.049 0.0568,-0.10301 0.0148,-0.15204 -0.0402,-0.0466 -0.10019,-0.0349 -0.15028,-0.013 -0.23672,0.10266 -0.4893,0.15981 -0.70415,0.32597 -0.30092,0.23283 -0.65757,0.37641 -1.00435,0.53305 -0.17392,0.0783 -0.36337,0.055 -0.54222,0.0935 -1.07845,0.23213 -2.17347,0.22578 -3.26778,0.25577 -0.38735,0.0106 -0.7807,-0.0508 -1.16417,0.0575 -0.11042,0.0314 -0.19121,-0.0183 -0.2473,-0.10936 -0.0543,-0.0878 -0.0215,-0.17074 0.0378,-0.23918 0.12735,-0.14746 0.27023,-0.28011 0.39582,-0.43075 0.33337,-0.39864 0.67698,-0.77893 1.13312,-1.05939 0.86607,-0.53269 1.766,-0.53269 2.69698,-0.25752 0.39511,0.11676 0.78705,0.24729 1.17228,0.3937 0.66534,0.25258 1.28588,0.1524 1.85315,-0.24201 0.19261,-0.13406 0.40781,-0.18874 0.60642,-0.29316 0.8068,-0.4251 1.61678,-0.8449 2.42076,-1.27529 1.42487,-0.76235 2.86032,-1.5053 4.31835,-2.20098 0.52776,-0.25189 1.0601,-0.49883 1.59174,-0.74471 0.70837,-0.32699 1.39453,-0.70235 2.10432,-1.0262 0.19261,-0.0879 0.2293,-0.36696 0.47766,-0.34438 0.20602,0.0183 0.38064,-0.0515 0.55703,-0.14386 0.33655,-0.17639 0.67416,-0.35208 1.01953,-0.50973 0.94756,-0.43187 1.90112,-0.84956 2.84833,-1.28129 0.54328,-0.24765 1.08126,-0.50356 1.64535,-0.7039 1.16558,-0.41413 2.32587,-0.84201 3.51896,-1.17369 0.14076,-0.0391 0.27975,-0.085 0.41663,-0.16397 -0.51011,0.0525 -0.99307,-0.0911 -1.48554,-0.14609 -0.8315,-0.0932 -1.64924,-0.25936 -2.45922,-0.46743 -0.40957,-0.10513 -0.81738,-0.26031 -1.22802,-0.30508 -0.53163,-0.0579 -0.98178,-0.30663 -1.47143,-0.45766 -0.35278,-0.10858 -0.71014,-0.20531 -1.06574,-0.29559 -0.90382,-0.22931 -1.78541,-0.5479 -2.71322,-0.6809 -0.53693,-0.0769 -1.0735,-0.15624 -1.61819,-0.15406 -0.14111,8e-4 -0.28222,0.002 -0.42333,-0.002 -0.55845,-0.0155 -0.5648,-0.0201 -0.83926,0.44979 -0.0896,0.15282 -0.18662,0.29806 -0.32103,0.40541 -0.41804,0.33362 -0.75389,0.74785 -1.12148,1.12956 -0.36583,0.37952 -0.81739,0.60882 -1.28446,0.81237 -0.52564,0.22931 -1.06822,0.42055 -1.59879,0.63927 -0.54998,0.22681 -1.14018,0.25781 -1.71344,0.37081 -0.61207,0.12033 -1.23296,0.0529 -1.8475,0.0953 -0.68227,0.0469 -1.36313,-0.0174 -2.04682,0.0461 -0.95567,0.0889 -1.90817,0.0124 -2.83563,-0.26306 -0.3556,-0.10556 -0.41451,-0.19128 -0.3817,-0.56487 0.0268,-0.303 0.0568,-0.60495 0.248,-0.86388 0.085,-0.11508 0.16404,-0.23012 0.29739,-0.29323 0.15029,-0.0708 0.19897,-0.18659 0.16299,-0.34714 -0.10372,-0.4597 0.0392,-0.85054 0.32244,-1.21253 0.20955,-0.26776 0.17145,-0.39469 -0.13194,-0.50863 -0.42898,-0.16098 -0.71085,-0.49777 -0.97261,-0.83923 -0.31045,-0.40502 -0.61383,-0.8425399 -0.54328,-1.3893389 0.0755,-0.58304 0.0709,-1.165831 0.0896,-1.75038 0.0106,-0.33196 0.15769,-0.65098 0.20743,-0.98503 0.0265,-0.17638 0.15311,-0.28497 0.3429,-0.29061 0.0995,-0.003 0.18732,-0.0343 0.28011,-0.0692 0.14746,-0.0558 0.21978,-0.13367 0.24094,-0.30166 0.0251,-0.20147 0.0921,-0.40076 0.16263,-0.59299 0.06,-0.16411 0.16299,-0.30617 0.3235,-0.3955 0.4251,-0.23632 0.85866,-0.459 1.27106,-0.71575 0.37359,-0.23248 0.73378,-0.15173 1.08267,0.008 0.45262,0.20779 0.90241,0.42718 1.31833,0.70623 0.0787,0.0526 0.14394,0.0981 0.23143,0.0312 0.1531,-0.11712 0.34184,-0.13476 0.51929,-0.17819 0.19649,-0.0479 0.36089,-0.14083 0.50694,-0.27838 0.3242,-0.30589 0.85936,-0.35951 1.25553,-0.12167 0.30763,0.18454 0.61595,0.36435 0.94933,0.50024 0.17815,0.0726 0.35383,0.1101 0.53587,0.0328 0.12453,-0.0529 0.23636,-0.0303 0.33831,0.0416 0.26529,0.18701 0.54998,0.34191 0.79269,0.56624 0.41275,0.3827 0.85302,0.73202 1.19063,1.19447 0.44908,0.61489 0.83114,1.26753 1.19662,1.93259 0.22648,0.41229 0.39017,0.84554 0.4953,1.302389 0.0416,0.18065 0.1584,0.3326299 0.19156,0.5178399 0.0162,0.0907 0.0399,0.17776 -0.0624,0.22408 -0.0963,0.0434 -0.17498,-0.0134 -0.2212,-0.0886 -0.1598,-0.25894 -0.29386,-0.5294499 -0.38311,-0.8236399 -0.23178,-0.765239 -0.641,-1.44501 -1.0534,-2.12097 -0.12347,-0.20284 -0.25717,-0.40072 -0.39264,-0.59721 -0.41945,-0.60964 -0.97508,-1.0728 -1.54763,-1.52259 -0.1577,-0.1239 -0.33056,-0.18274 -0.53834,-0.19294 -0.43992,-0.0216 -0.85161,-0.15846 -1.22732,-0.39341 -0.26881,-0.16828 -0.54292,-0.31683 -0.87418,-0.31324 -0.11183,0.001 -0.22366,-10e-4 -0.29563,0.0984 -0.18591,0.25686 -0.46637,0.34121 -0.7493,0.42401 -0.0519,0.0152 -0.10689,0.0205 -0.15804,0.0378 -0.17286,0.0579 -0.19262,0.12206 -0.0667,0.24666 0.20073,0.19787 0.40429,0.3937 0.61489,0.58096 0.24272,0.21597 0.50695,0.40929 0.74013,0.63461 0.42616,0.41243 0.9264,0.71437 1.43651,1.00404 0.15135,0.0861 0.29881,0.17678 0.43392,0.28677 0.21025,0.17156 0.42898,0.33098 0.6671,0.46355 0.51118,0.285401 0.91405,0.68517 1.22555,1.17976 0.13512,0.21414 0.14288,0.21304 0.40675,0.14923 0.35137,-0.0854 0.96838,0.13726 1.14195,0.4674299 0.25047,0.47625 0.70943,0.60356 1.15217,0.76193 0.0974,0.035 0.17639,0.073 0.24059,0.14509 0.0945,0.10541 0.2152,0.14002 0.34961,0.14747 0.19473,0.0109 0.39017,0.0394 0.58384,0.0312 1.03223,-0.043 2.02953,0.14679 3.01519,0.42764 0.83432,0.23742 1.67147,0.46535 2.50614,0.70058 0.14428,0.0406 0.28434,0.0963 0.48824,0.16662 -0.17815,-0.25439 -0.38311,-0.40432 -0.55633,-0.57866 -0.21343,-0.21485 -0.45579,-0.40005 -0.70026,-0.58209 -0.57926,-0.43063 -1.0347,-0.98957 -1.50425,-1.5267199 -0.32102,-0.36724 -0.47484,-0.850259 -0.70132,-1.282409 -0.11359,-0.216611 -0.21378,-0.443731 -0.20179,-0.678681 0.0208,-0.41066 -0.085,-0.81675 -0.0187,-1.22632 0.0208,-0.12774 0.0402,-0.25397 -0.037,-0.37811 -0.0582,-0.0939 -0.0416,-0.19265 0.0635,-0.25125 0.0977,-0.0547 0.17463,-0.014 0.26459,0.048 0.45226,0.31253 0.77611,0.7517 1.14723,1.14378 0.073,0.0771 0.127,0.17706 0.17357,0.27407 0.26317,0.54642 0.57679,1.065781 0.79198,1.63932 0.1972,0.52532 0.43498,1.0368499 0.64805,1.5574399 0.17569,0.42983 0.45756,0.78014 0.80258,1.08455 0.22718,0.20077 0.45367,0.40252 0.67627,0.60854 0.0543,0.05 0.115,0.11328 0.13194,0.18066 0.0519,0.20877 0.19297,0.28289 0.38594,0.33761 0.97261,0.27506 1.96356,0.45889 2.95733,0.63955 1.26612,0.2304 2.52519,0.18729 3.78637,-0.011 0.2142,-0.0335 0.42488,-0.0892 0.63669,-0.13642 0.11867,-0.0265 0.72845,-0.21386 0.87231,-0.25506 1.126,-0.32428 2.240141,-0.68612 3.356901,-1.04041 0.85866,-0.27231 1.70271,-0.58308 2.55517,-0.87066 0.74979,-0.25287 1.48702,-0.54363 2.22743,-0.82434 0.36449,-0.13793 0.72267,-0.29284 1.08508,-0.4364199 0.16647,-0.066 1.02704,-0.35733 1.16501,-0.4717 0.32988,-0.27231 0.7342,-0.35486 1.11178,-0.513609 0.449929,-0.18905 0.928549,-0.30346 1.360949,-0.533011 0.545709,-0.29009 1.125749,-0.51015 1.660269,-0.82243 0.411339,-0.24059 0.793899,-0.52557 1.21173,-0.75738 0.72139,-0.40072 1.368239,-0.91651 2.060849,-1.36274 0.56568,-0.36474 1.02443,-0.84596 1.44816,-1.38049 0.52048,-0.65582 0.90854,-1.39513 1.41082,-2.05948 0.0681,-0.09 0.7009,-0.67621 0.82988,-0.64809 0.13257,0.0286 0.15586,0.13448 0.14771,0.25298 -0.006,0.0918 -0.0545,0.16054 -0.11092,0.2293 -0.30208,0.36865 -0.61475,0.73452 -0.84335,1.15083 -0.23759,0.4324 -0.57615,0.7838 -0.84917,1.18594 -0.20944,0.30868 -0.52239,0.51935 -0.76563,0.79664 -0.32562,0.37179 -0.74828,0.62191 -1.15147,0.89531 -0.24214,0.1644 -0.48976,0.32135 -0.72252,0.49816 -0.442209,0.33542 -0.918599,0.61627 -1.398029,0.89105 -0.264721,0.15169 -0.519251,0.3175 -0.762601,0.49854 -0.282219,0.20948 -0.590899,0.36093 -0.913509,0.49237 -0.15046,0.0615 -0.29807,0.13092 -0.44344,0.203981 -0.737659,0.37013 -1.499449,0.680469 -2.272248,0.970139 -0.41423,0.15529 -0.79029,0.40746 -1.21779,0.54017 -0.062,0.0193 -0.11916,0.0575 -0.18189,0.0706 -0.35539,0.0737 -0.59721,0.29379 -0.77678,0.594781 -0.0685,0.11465 -0.1633,0.19717 -0.27245,0.2734 -0.24888,0.17389 -0.491,0.3573 -0.73367,0.53961 -0.25605,0.19308 -0.41025,0.4753 -0.61362,0.71438 -0.24543,0.28829 -0.49266,0.57506 -0.69977,0.89683 -0.5019,0.78066 -0.6882,1.65379 -0.79541,2.55379 -0.05,0.42016 -0.0757,0.84212 -0.0846,1.26573 -0.0129,0.61144 -0.19967,1.19585 -0.29365,1.79462 -0.17819,1.13697 -0.69798,2.14027 -1.20358,3.14568 -0.27672,0.55034 -0.61517,1.07527 -0.97469,1.57692 -0.52585,0.73413 -0.97483,1.51271 -1.43358,2.28706 -0.239891,0.40499 -0.399771,0.84067 -0.528741,1.2894 -0.0296,0.10301 -0.0681,0.19156 -0.18535,0.19191 -0.12982,2.7e-4 -0.18659,-0.0907 -0.21153,-0.20814 -0.0631,-0.29668 -0.14746,-0.58843 -0.1597,-0.89535 -0.0287,-0.71614 -0.0553,-1.43263 0.0892,-2.1403 0.20052,-0.98249 0.58554,-1.87219 1.246291,-2.6483 0.66382,-0.77929 1.43439,-1.44463 2.16256,-2.15544 0.29641,-0.28966 0.57009,-0.60579 0.76507,-0.96763 0.28554,-0.53002 0.4082,-1.11101 0.40916,-1.71665 0.002,-0.98499 0.1301,-1.95157 0.50796,-2.86742 0.20736,-0.50271 0.51481,-0.95207 0.87517,-1.36204 0.036,-0.0409 0.0788,-0.0762 0.10957,-0.12029 0.36365,-0.52173 0.79926,-0.96947 1.3364,-1.31481 0.0338,-0.0219 0.0547,-0.0635 0.0903,-0.10692 -0.0805,-0.0726 -0.14704,-0.0229 -0.20754,0.006 -0.74633,0.35691 -1.54188,0.57959 -2.31785,0.85616 -0.54145,0.19294 -1.08105,0.39081 -1.62003,0.59052 -0.34576,0.12798 -0.70224,0.22087 -1.05364,0.33016 -0.67236,0.20959 -1.33449,0.45198 -2.006421,0.66365 -0.57863,0.18206 -1.16763,0.33048 -1.74692,0.51043 -0.70447,0.21844 -1.42399,0.38241 -2.13025,0.58734 -1.08162,0.31404 -2.17206,0.60717 -3.23356,0.98929 -0.81563,0.29352 -1.63336,0.58276 -2.4377,0.90523 -0.48189,0.1929 -0.93698,0.45226 -1.40899,0.67056 -0.22578,0.10442 -0.45685,0.19788 -0.6851,0.29736 -0.87559,0.38213 -1.72473,0.8231 -2.60491,1.18967 -0.45226,0.18838 -0.61383,0.491 -0.74648,0.92315 -0.26035,0.84773 -0.20849,1.71521 -0.26458,2.57598 -0.0265,0.4124 -0.0744,0.82127 -0.13511,1.22944 -0.10513,0.70731 -0.17039,1.41851 -0.23742,2.13077 -0.0579,0.61666 -0.012,1.23614 -0.0903,1.84891 -0.0674,0.52634 -0.14711,1.05234 -0.31468,1.55963 -0.14993,0.45297 -0.3108,0.90135 -0.49036,1.34444 -0.38841,0.9585 -0.98214,1.77906 -1.63583,2.56892 -0.58808,0.71085 -1.33668,1.23438 -2.02989,1.82387 -0.1979,0.16862 -0.38805,0.34678 -0.58384,0.51787 -0.0857,0.0748 -0.12806,0.16475 -0.0423,0.25154 0.17745,0.17956 0.15593,0.39828 0.13194,0.61136 -0.0554,0.48895 -0.1591,0.96414 -0.47307,1.3656 -0.0914,0.11712 -0.11607,0.24941 -0.0885,0.39935 0.11183,0.60113 0.139,1.20932 0.0508,1.81327 -0.15275,1.045639 -0.42439,2.054578 -0.91899,3.002848 -0.65969,1.264699 -1.70321,2.106429 -2.91782,2.782348 -0.39688,0.22084 -0.78987,0.45227 -1.14688,0.73802 -0.042,0.0339 -0.0864,0.0674 -0.13511,0.0903 -0.15029,0.0709 -0.25295,0.0374 -0.3041,-0.12277 -0.10407,-0.32632 -0.38559,-0.54363 -0.49989,-0.874529" style="fill:#f9f9f9;fill-opacity:1;fill-rule:nonzero;stroke:none;stroke-width:.0352777"/></g></svg>