<?xml version="1.0" encoding="UTF-8" standalone="no"?>
<!-- Created with Inkscape (http://www.inkscape.org/) -->

<svg
   width="220"
   height="359"
   viewBox="0 0 58.208334 94.985411"
   version="1.1"
   id="svg1"
   inkscape:version="1.3 (0e150ed, 2023-07-21)"
   sodipodi:docname="drawing3.svg"
   xmlns:inkscape="http://www.inkscape.org/namespaces/inkscape"
   xmlns:sodipodi="http://sodipodi.sourceforge.net/DTD/sodipodi-0.dtd"
   xmlns="http://www.w3.org/2000/svg"
   xmlns:svg="http://www.w3.org/2000/svg">
  <sodipodi:namedview
     id="namedview1"
     pagecolor="#ffffff"
     bordercolor="#666666"
     borderopacity="1.0"
     inkscape:showpageshadow="2"
     inkscape:pageopacity="0.0"
     inkscape:pagecheckerboard="0"
     inkscape:deskcolor="#d1d1d1"
     inkscape:document-units="mm"
     inkscape:zoom="1.130196"
     inkscape:cx="133.60514"
     inkscape:cy="189.34768"
     inkscape:window-width="1440"
     inkscape:window-height="847"
     inkscape:window-x="0"
     inkscape:window-y="25"
     inkscape:window-maximized="0"
     inkscape:current-layer="layer1" />
  <defs
     id="defs1" />
   <title>Hand drawn leaves flowers - Designed by Freepik</title>
  <g
     inkscape:label="Layer 1"
     inkscape:groupmode="layer"
     id="layer1">
    <path
       id="path29"
       d="m 17.153791,76.325323 c -0.0441,-0.0557 -0.104034,-0.0614 -0.16397,-0.0741 -0.414798,-0.0892 -0.838661,-0.0959 -1.257478,-0.14781 -0.541549,-0.0667 -1.086413,-0.0833 -1.629375,-0.12806 -0.472933,-0.0395 -0.949183,-0.0374 -1.423246,-0.0656 -0.193604,-0.0116 -0.385304,-0.0204 -0.578767,-0.003 -0.192934,0.0173 -0.386397,0.0275 -0.579896,0.0392 -0.412856,0.025 -0.826382,0.0402 -1.238285,0.0765 -0.210573,0.0187 -0.4175483,0.0423 -0.6305903,0.0236 -0.187537,-0.0162 -0.377861,2.6e-4 -0.568043,0.002 0.0058,0.0776 0.04784,0.0963 0.08407,0.12065 0.393312,0.26247 0.8396463,0.35878 1.2989273,0.40111 0.481225,0.0448 0.967246,-0.025 1.448471,0.0554 0.110807,0.0187 0.232057,0.018 0.341347,-0.006 0.613622,-0.13758 1.241743,-0.14393 1.863091,-0.20179 0.41797,-0.0388 0.838835,-0.0988 1.263261,-0.06 0.588293,0.054 1.17616,-0.01 1.770486,-0.0317 z m -1.756693,-4.65243 c 0.0058,-0.0166 0.01156,-0.0328 0.01722,-0.0494 -0.08184,-0.066 -0.163864,-0.13158 -0.245568,-0.19755 -0.284022,-0.22931 -0.61722,-0.37536 -0.945904,-0.51753 -0.222673,-0.0967 -0.475262,-0.12559 -0.701251,-0.22824 -0.267617,-0.12171 -0.556331,-0.17992 -0.842257,-0.21238 -0.488809,-0.0561 -0.971938,-0.15345 -1.469566,-0.1531 -0.615985,2.6e-4 -1.2304543,-0.0166 -1.8440753,0.0617 -0.771702,0.0981 -1.541886,0.1651 -2.297042,-0.12417 -0.144569,-0.0557 -0.304165,-0.0713 -0.443195,-0.15558 -0.05277,-0.0321 -0.120579,-0.0762 -0.224472,-0.0342 0.183832,0.11395 0.330729,0.24483 0.515373,0.32703 0.396063,0.17709 0.812341,0.28575 1.233769,0.37394 0.542819,0.1136 1.088214,0.21449 1.64592,0.22402 0.6868233,0.0116 1.3547373,0.23247 2.0474873,0.18485 0.291606,-0.0198 0.577003,0.11077 0.866105,0.0667 0.547229,-0.0832 1.064683,0.0854 1.593709,0.15629 0.374402,0.0504 0.739598,0.14075 1.093751,0.27763 z m -3.970019,15.05726 c 0.107774,0.019 0.21209,0.0106 0.315172,-0.0145 0.316124,-0.0769 0.630872,-0.16052 0.948654,-0.23001 0.718926,-0.15699 1.396082,-0.42792 2.069677,-0.71755 0.454202,-0.19544 0.872561,-0.4572 1.326904,-0.65264 0.680894,-0.29281 1.353642,-0.59796 2.088549,-0.73872 0.189196,-0.036 0.371793,-0.11289 0.564586,-0.13829 0.655249,-0.0871 1.309688,-0.18521 1.973086,-0.1912 0.04353,-2.7e-4 0.108974,0.0251 0.123859,-0.0734 -0.520065,-0.13335 -1.04535,-0.23001 -1.579208,-0.27093 -0.227401,-0.0173 -0.4578,0.007 -0.686012,-0.003 -0.480377,-0.0215 -0.955251,0.0505 -1.406842,0.18203 -0.762601,0.22225 -1.483855,0.55986 -2.149581,0.99872 -0.564303,0.37218 -1.143635,0.72002 -1.709597,1.08938 -0.313513,0.20425 -0.678003,0.29315 -0.999631,0.4766 -0.272697,0.15522 -0.591608,0.16827 -0.879616,0.28363 z m 24.227507,-62.28115 c 0.008,-0.008 0.0162,-0.0169 0.024,-0.0254 -0.1143,-0.18768 -0.20673,-0.39476 -0.34854,-0.55844 -0.15205,-0.17498 -0.27729,-0.36301 -0.39194,-0.56022 -0.18415,-0.31785 -0.43321,-0.58384 -0.71861,-0.80292 -0.56691,-0.43603 -1.18533,-0.8008 -1.82174,-1.12077 -0.6851,-0.34396 -1.38254,-0.66569 -2.03412,-1.06998 -0.45508,-0.28222 -0.92145,-0.55598 -1.26718,-0.98566 -0.0981,-0.12206 -0.22789,-0.21978 -0.3496,-0.32067 -0.0501,-0.042 -0.10442,-0.11466 -0.18309,-0.0723 -0.0646,0.0349 -0.0377,0.11218 -0.0413,0.17039 -0.006,0.10548 0.007,0.21202 -0.001,0.31715 -0.037,0.4572 0.21908,0.76482 0.54328,1.02058 0.15593,0.12312 0.34749,0.20532 0.53975,0.27587 0.36371,0.13371 0.72778,0.26811 1.08303,0.42193 0.44414,0.19261 0.86466,0.43109 1.26612,0.70379 0.34819,0.23601 0.6357,0.56197 1.04492,0.70908 0.0395,0.0141 0.0709,0.0512 0.10619,0.0773 0.3048,0.22401 0.62512,0.42439 0.94686,0.623 0.39722,0.24519 0.80045,0.48049 1.14511,0.80187 0.14746,0.13758 0.30516,0.26423 0.45826,0.39546 z m 18.57269,-9.87495 c -0.48084,0.10759 -0.95109,0.14746 -1.41605,0.21837 -0.66146,0.10089 -1.3275,0.16192 -1.98931,0.25858 -0.64488,0.0938 -1.28976,0.18944 -1.93146,0.30198 -0.43886,0.0773 -0.86925,0.20461 -1.31339,0.25435 -0.27235,0.0303 -0.53517,0.0931 -0.80046,0.15805 -0.23565,0.0582 -0.46072,0.16016 -0.70732,0.17745 -0.0956,0.006 -0.19085,0.006 -0.28751,0.0261 -0.43004,0.0893 -0.84561,0.23248 -1.26929,0.34431 -0.0875,0.0233 -0.21026,0.0367 -0.25295,0.15099 0.0501,0.067 0.10231,0.0311 0.1517,0.0254 0.28928,-0.0314 0.56903,-0.1076 0.85301,-0.16475 0.55634,-0.11218 1.12254,-0.0903 1.67923,-0.0289 0.36336,0.0399 0.71861,0.0391 1.07738,0.0102 0.37712,-0.0307 0.75283,-0.0776 1.12959,-0.11501 0.62089,-0.0614 1.24778,-0.0847 1.85738,-0.22578 0.49636,-0.11465 0.99025,-0.24024 1.44851,-0.48506 0.51188,-0.27341 1.02799,-0.54258 1.5748,-0.74472 0.0677,-0.0251 0.15592,-0.0349 0.19614,-0.16157 z m -22.72312,64.46696 c -0.27129,-0.0564 -0.49107,-0.0561 -0.70309,-0.0967 -0.79375,-0.15311 -1.58503,-0.31962 -2.36008,-0.55457 -0.514,-0.15593 -1.02729,-0.31609 -1.54834,-0.44379 -0.56409,-0.13829 -1.11266,-0.33056 -1.67817,-0.46285 -0.54751,-0.12806 -1.086904,-0.28328 -1.643235,-0.38453 -0.739775,-0.13476 -1.485582,-0.16545 -2.23012,-0.20884 -0.524473,-0.0307 -0.992468,0.20567 -1.446387,0.44732 -0.01545,0.008 -0.02783,0.0215 -0.04191,0.0325 -0.05553,0.043 -0.07592,0.097 -0.04297,0.16227 0.0321,0.0635 0.08872,0.0843 0.155291,0.0702 0.04272,-0.009 0.08502,-0.0247 0.124003,-0.0441 0.260172,-0.13017 0.551214,-0.15487 0.824087,-0.14887 0.400862,0.008 0.806699,-0.0318 1.206465,0.067 0.494983,0.12241 0.997869,0.20567 1.489994,0.3496 0.428976,0.12523 0.877358,0.18556 1.296812,0.35278 0.0318,0.0127 0.0699,0.0127 0.10477,0.0116 0.16193,-0.004 0.31362,0.0416 0.46355,0.0945 0.43498,0.15346 0.8883,0.21696 1.34409,0.26106 0.17533,0.0169 0.34925,0.03 0.52105,0.0776 0.2032,0.0561 0.41063,0.1016 0.61912,0.13264 0.43533,0.0649 0.86466,0.16122 1.29823,0.23213 0.36371,0.0596 0.73236,0.11959 1.09925,0.12383 0.26247,0.003 0.52705,-0.007 0.79058,-2.7e-4 0.10124,0.003 0.20532,0.01 0.35701,-0.0705 z M 48.115046,7.4094828 c -0.079,-0.0614 -0.11853,-0.0173 -0.16016,0.0131 -0.0928,0.0674 -0.18097,0.14181 -0.27799,0.20214 -0.42615,0.26387 -0.76588,0.62688 -1.06997,1.01176 -0.41981,0.53164 -0.76059,1.12184 -1.06398,1.7272002 -0.2286,0.45615 -0.41981,0.9331 -0.47166,1.45133 -0.007,0.0695 -0.0191,0.14323 -0.0494,0.20497 -0.16616,0.33901 -0.1958,0.71261 -0.27411,1.07315 -0.0483,0.22154 -0.0296,0.45508 -0.11148,0.6731 -0.0152,0.0406 -7.9e-4,0.09 0.0459,0.11218 0.0349,0.0169 0.0677,10e-4 0.0952,-0.0236 0.0198,-0.018 0.0409,-0.0339 0.0593,-0.0529 0.33055,-0.3422 0.66181,-0.68298 0.98919,-1.02765 0.085,-0.0896 0.15487,-0.19332 0.19861,-0.31079 0.0896,-0.24095 0.22084,-0.46038 0.34114,-0.68616 0.0452,-0.0854 0.0871,-0.17356 0.12135,-0.26387 0.26423,-0.69251 0.41381,-1.41958 0.63042,-2.1269002 0.16157,-0.52705 0.33478,-1.03787 0.67133,-1.48237 0.1196,-0.15769 0.21908,-0.33056 0.32632,-0.4946 z M 13.86897,50.681563 c -0.0062,-0.0861 -0.03595,-0.13864 -0.06657,-0.19156 -0.233821,-0.40428 -0.471276,-0.8068 -0.699064,-1.21462 -0.184397,-0.32984 -0.374403,-0.65722 -0.45212,-1.03681 -0.02593,-0.12629 -0.08354,-0.25717 -0.161643,-0.35913 -0.167322,-0.21872 -0.272874,-0.4706 -0.410104,-0.70485 -0.101177,-0.17286 -0.207257,-0.34784 -0.256611,-0.54857 -0.06696,-0.27269 -0.142628,-0.54433 -0.251883,-0.80362 -0.23622,-0.55986 -0.465384,-1.12113 -0.650875,-1.70145 -0.09313,-0.2914 -0.165911,-0.59761 -0.326037,-0.86395 -0.08777,-0.14605 -0.136419,-0.30375 -0.196215,-0.46003 -0.177659,-0.46355 -0.230823,-0.95885 -0.375532,-1.43051 -0.02561,-0.0836 -0.03154,-0.18027 -0.1247073,-0.26846 0.0014,0.28963 -0.0095,0.54504 0.0061,0.79904 0.06847,1.12677 0.2212973,2.23978 0.4991103,3.33728 0.207962,0.82162 0.448698,1.62701 0.825606,2.38936 0.346145,0.70062 0.808072,1.31727 1.329513,1.8923 0.313937,0.34643 0.648371,0.67239 1.018646,0.95885 0.08738,0.0677 0.132292,0.19226 0.292417,0.20673 z m 22.221646,-25.34567 c -0.26846,-0.28223 -0.53375,-0.56057 -0.81562,-0.81739 -0.41557,-0.37924 -0.86642,-0.72178 -1.36384,-0.99483 -0.12347,-0.0677 -0.25329,-0.127 -0.36794,-0.20779 -0.7493,-0.5267 -1.5166,-1.02623 -2.28883,-1.518 -0.35136,-0.22366 -0.72072,-0.40534 -1.11936,-0.53129 -0.3108,-0.0984 -0.61983,-0.20425 -0.90699,-0.36512 -0.0952,-0.0533 -0.1965,-0.1076 -0.31256,-0.10901 -0.005,0.0332 -0.0124,0.0515 -0.008,0.066 0.0102,0.0335 0.024,0.0667 0.0406,0.0974 0.26635,0.48895 0.57292,0.94615 0.98919,1.32574 0.42404,0.38699 0.85796,0.76129 1.37478,1.01741 0.7179,0.35595 1.45344,0.67486 2.19463,0.97966 0.24412,0.10019 0.48648,0.20391 0.73272,0.29916 0.62159,0.24059 1.23472,0.50376 1.85138,0.75812 z m -17.285791,14.80361 c 0.01834,-0.007 0.03666,-0.0134 0.055,-0.0201 -0.03404,-0.17145 -0.05994,-0.34466 -0.103788,-0.51364 -0.130492,-0.50271 -0.270087,-1.0033 -0.447003,-1.4919 -0.108339,-0.2988 -0.15367,-0.61595 -0.286528,-0.90735 -0.259326,-0.56903 -0.510397,-1.14264 -0.848712,-1.67075 -0.184925,-0.28893 -0.386008,-0.56762 -0.588573,-0.84455 -0.171276,-0.23424 -0.361739,-0.45438 -0.532202,-0.68898 -0.285784,-0.3937 -0.652497,-0.71649 -0.950277,-1.09925 -0.0503,-0.0646 -0.142769,-0.0808 -0.180128,-0.007 -0.09687,0.19085 -0.276154,0.381 -0.164817,0.61136 0.17681,0.36654 0.263347,0.768 0.455329,1.12642 0.09162,0.17075 0.192228,0.33761 0.257281,0.52106 0.08611,0.24271 0.200906,0.46602 0.365159,0.66886 0.126789,0.15664 0.230294,0.33408 0.329777,0.51012 0.264583,0.46884 0.543208,0.9271 0.895845,1.33667 0.08036,0.0935 0.149259,0.1958 0.220239,0.29669 0.151693,0.21625 0.303564,0.43215 0.480094,0.63077 0.309634,0.34854 0.62964,0.69038 0.820775,1.12712 0.06269,0.14323 0.147706,0.27693 0.22253,0.41487 z m -0.226129,31.24905 c 0.233045,-0.0705 0.403083,-0.13617 0.584412,-0.16298 0.446897,-0.0667 0.893937,-0.0741 1.342496,-0.0296 0.53481,0.0529 1.073925,0.0744 1.602668,0.17215 0.865717,0.16016 1.724377,0.36654 2.604914,0.4318 0.36794,0.0272 0.7373,0.0593 1.10772,0.0293 0.25471,-0.0205 0.51012,-0.0346 0.76517,-0.048 0.29316,-0.0152 0.58561,-0.0328 0.92428,-0.1136 -0.25259,-0.0483 -0.45543,-0.0702 -0.64805,-0.12665 -0.59972,-0.17603 -1.20474,-0.33725 -1.78329,-0.57961 -0.701325,-0.29386 -1.431927,-0.49848 -2.16782,-0.67839 -0.502391,-0.12312 -1.004676,-0.25224 -1.535891,-0.22754 -0.537456,0.0251 -1.051594,0.12664 -1.532395,0.35912 -0.21223,0.10266 -0.422098,0.22402 -0.615704,0.35843 -0.226412,0.15663 -0.433951,0.34678 -0.64851,0.61559 z m -3.138347,-19.8702 c 0.143052,-0.066 0.280847,-0.13618 0.426932,-0.18803 0.602475,-0.21379 1.213202,-0.37465 1.860198,-0.26459 0.349462,0.0596 0.703614,0.0522 1.05311,0.055 0.57009,0.005 1.14099,0.0183 1.712349,-0.006 0.490572,-0.0215 0.98365,0.0116 1.4756,0.0176 0.607166,0.007 1.214295,0.0166 1.821778,0.0152 0.347488,-7.9e-4 0.694973,-0.0208 1.0601,-0.0328 -0.0568,-0.0674 -0.1136,-0.0639 -0.16334,-0.0776 -0.442029,-0.11959 -0.893937,-0.20778 -1.319739,-0.37853 -0.714057,-0.2868 -1.448541,-0.49459 -2.20331,-0.64382 -0.642442,-0.127 -1.293706,-0.1591 -1.942324,-0.19967 -0.481365,-0.03 -0.963965,0.0631 -1.443107,0.12735 -0.182316,0.0243 -0.35634,0.0885 -0.529555,0.15875 -0.490855,0.19862 -0.909108,0.50518 -1.292331,0.85902 -0.184116,0.16968 -0.383222,0.33196 -0.516361,0.55845 z m 27.172777,-35.83058 c 0.0413,-0.0698 0.0568,-0.084 0.0575,-0.0991 0.0455,-0.66887 -0.06,-1.31728 -0.28539,-1.94522 -0.21414,-0.59655 -0.41099,-1.19803 -0.57785,-1.80975 -0.0766,-0.27975 -0.17886,-0.54928 -0.3048,-0.81386 -0.29986,-0.629 -0.69215,-1.2057902 -1.00754,-1.8256202 -0.27552,-0.54152 -0.53975,-1.08656 -0.73766,-1.66159 -0.0141,-0.0416 -0.0194,-0.0921 -0.0734,-0.097 -0.0621,-0.006 -0.0946,0.0423 -0.11854,0.0889 -0.091,0.17674 -0.11888,0.36724 -0.11394,0.56374 0.007,0.24659 -0.005,0.49142 -0.0219,0.73766 -0.0138,0.20108 -0.10196,0.40287 -0.0487,0.60042 0.10725,0.39864 0.0974,0.8248002 0.2861,1.2036802 0.0113,0.0229 0.009,0.0519 0.0169,0.0773 0.13017,0.42016 0.28786,0.82938 0.54398,1.19098 0.10125,0.14358 0.22437,0.27128 0.33479,0.40851 0.242,0.30092 0.53057,0.56621 0.73413,0.89747 0.25647,0.41698 0.45931,0.86783 0.79622,1.23402 0.0466,0.0504 0.0931,0.11606 0.10548,0.18133 0.0702,0.3683 0.36759,0.64029 0.41451,1.06821 z m -3.61315,-7.2559402 c -0.0832,0.0385 -0.0945,0.0931 -0.11606,0.14006 -0.24413,0.53763 -0.45579,1.08161 -0.55669,1.6721602 -0.0896,0.52494 -0.0751,1.03929 0.0646,1.53917 0.13547,0.48472 0.39405,0.92746 0.70309,1.32327 0.35101,0.44979 0.73554,0.87524 1.12712,1.29082 0.19438,0.20602 0.37712,0.41839 0.53834,0.64875 0.16263,0.23178 0.36089,0.43145 0.54152,0.64665 0.248,0.29598 0.57432,0.52281 0.76517,0.86889 0.0212,0.0384 0.0501,0.0797 0.10231,0.0667 0.0713,-0.0183 0.0945,-0.0751 0.0885,-0.14287 -0.0268,-0.29739 -0.0508,-0.59549 -0.0871,-0.89218 -0.0102,-0.0847 -0.0564,-0.1658 -0.091,-0.24624 -0.0663,-0.15381 -0.13688,-0.3055 -0.2039,-0.45896 -0.0282,-0.0642 -0.0533,-0.12771 -0.0977,-0.18556 -0.28434,-0.36901 -0.57397,-0.73519 -0.75283,-1.17193 -0.0441,-0.10795 -0.11465,-0.19967 -0.18803,-0.28645 -0.3362,-0.39547 -0.65687,-0.80293 -0.96485,-1.22026 -0.25329,-0.34255 -0.42298,-0.73519 -0.54681,-1.13701 -0.0977,-0.31644 -0.18873,-0.63782 -0.25964,-0.9655502 -0.0815,-0.37782 -0.13264,-0.73836 -0.0575,-1.1176 0.0233,-0.11606 0.0589,-0.23953 -0.008,-0.37183 z M 15.799899,56.172193 c 0.07151,0.0349 0.125095,0.0233 0.17498,0.01 0.550545,-0.14781 1.083416,-0.037 1.613569,0.1083 0.44055,0.12065 0.879721,0.24624 1.319742,0.36936 0.09289,0.0261 0.189899,0.0261 0.282504,0.0635 0.401814,0.16228 0.824618,0.24554 1.253455,0.28646 0.588574,0.0564 1.178348,0.0215 1.768298,0.003 0.733674,-0.0236 1.446636,-0.19862 2.1723,-0.27835 0.05045,-0.006 0.09913,-0.0289 0.147109,-0.0434 -0.0056,-0.0522 -0.04339,-0.0628 -0.0702,-0.0776 -0.278696,-0.15275 -0.57785,-0.25823 -0.874183,-0.3683 -0.656522,-0.24306 -1.351881,-0.32314 -2.031789,-0.46637 -0.70612,-0.14852 -1.41718,-0.2734 -2.12658,-0.40569 -0.14718,-0.0275 -0.29658,-0.0378 -0.447464,-0.0332 -0.264019,0.008 -0.528214,0.0124 -0.792374,0.0106 -0.176813,-0.001 -0.351684,0.008 -0.527367,0.0275 -0.580179,0.0617 -1.099257,0.30339 -1.618509,0.54363 -0.103365,0.0476 -0.192228,0.12242 -0.243489,0.25083 z m 27.802067,-38.88175 c 0.29739,0.0755 0.56056,0.14287 0.83608,0.13088 0.0511,-0.002 0.10301,0.0208 0.15522,0.031 0.20708,0.0409 0.41311,0.0914 0.62195,0.1203 0.66181,0.091 1.32433,0.17004 1.98296,0.28892 0.64982,0.11713 1.31198,0.12171 1.97274,0.012 0.35172,-0.0582 0.68086,-0.17392 1.00823,-0.30163 0.43463,-0.16968 0.87878,-0.32279 1.29435,-0.53199 0.67557,-0.34007 1.23578,-0.83996 1.75754,-1.38253 0.0391,-0.0409 0.10654,-0.0727 0.0783,-0.16016 -0.14146,-0.0173 -0.25012,0.0642 -0.36054,0.13017 -0.5274,0.31397 -1.09608,0.51294 -1.68945,0.66569 -0.42933,0.11077 -0.86572,0.13547 -1.29963,0.19474 -0.34819,0.0476 -0.69815,0.091 -1.04705,0.12629 -0.62794,0.0635 -1.25977,0.0833 -1.89018,0.11959 -0.0328,0.002 -0.0667,-0.0169 -0.10019,-0.0236 -0.41698,-0.0871 -0.83679,-0.0998 -1.25518,-0.0233 -0.23213,0.0427 -0.45755,0.14041 -0.69004,0.15664 -0.2226,0.0155 -0.43356,0.0571 -0.64452,0.11818 -0.0674,0.0194 -0.13794,0.0448 -0.20567,0.042 -0.22754,-0.009 -0.37712,0.11148 -0.52493,0.28681 z m -9.49078,70.31919 c -0.50095,-0.17286 -0.94545,-0.33444 -1.38924,-0.49424 -0.41663,-0.14958 -0.80222,-0.36195 -1.20968,-0.52847 -0.2106,-0.0861 -0.42439,-0.17109 -0.629,-0.27481 -0.40005,-0.20285 -0.78881,-0.42898 -1.18745,-0.63218 -0.7373,-0.37571 -1.49825,-0.70485 -2.28635,-0.96484 -0.3168,-0.10443 -0.62936,-0.22437 -0.95109,-0.30904 -0.51153,-0.13405 -1.03576,-0.19261 -1.56457,-0.16651 -0.33302,0.0166 -0.667457,0.031 -0.995892,0.0963 -0.06773,0.0134 -0.160867,0.007 -0.186973,0.11042 0.239183,0.1464 0.510471,0.16087 0.758825,0.24553 0.36654,0.12524 0.72425,0.27693 1.10631,0.3556 0.0935,0.0194 0.18204,0.0663 0.27023,0.10619 0.48824,0.22225 0.95391,0.49036 1.45732,0.68192 0.32844,0.12523 0.64806,0.27516 0.96626,0.4258 0.34149,0.16157 0.66569,0.36407 1.01635,0.5013 0.78494,0.30656 1.55787,0.65758 2.40278,0.77928 0.3563,0.0512 0.71225,0.12383 1.0735,0.12207 0.22895,-0.001 0.45755,0.004 0.6858,0.003 0.19826,-7.9e-4 0.40322,0.0635 0.66287,-0.0575 z m 19.89843,-65.56234 c -0.0709,-0.0607 -0.13371,-0.0653 -0.19086,-0.066 -0.23847,-0.004 -0.47342,-0.042 -0.71014,-0.0607 -0.32455,-0.0254 -0.65158,-0.0346 -0.97402,-0.0617 -0.29457,-0.0247 -0.59266,-0.0921 -0.88688,-0.12418 -0.47343,-0.0515 -0.93804,-0.15699 -1.41252,-0.20038 -0.25365,-0.0233 -0.50659,-0.0699 -0.75565,-0.12559 -0.40252,-0.0907 -0.79552,-0.22754 -1.20897,-0.26458 -0.68545,-0.0617 -1.34479,-0.26211 -2.02459,-0.36301 -1.00648,-0.14922 -2.01331,-0.20249 -3.02719,-0.18485 -0.22119,0.004 -0.43745,0.0416 -0.65193,0.0977 -0.52353,0.13758 -1.00401,0.37923 -1.48873,0.61101 -0.0409,0.0194 -0.10442,0.0286 -0.0878,0.11818 0.10513,-0.0635 0.21555,-0.0861 0.32914,-0.1016 0.23566,-0.0321 0.47026,-0.0727 0.70556,-0.10725 0.5595,-0.0818 1.12254,-0.11782 1.68522,-0.0603 0.62195,0.0632 1.22237,0.25294 1.84079,0.3436 0.46955,0.0691 0.92393,0.21485 1.3843,0.33161 0.31539,0.0801 0.63289,0.1711 0.95497,0.2025 0.38382,0.0381 0.75989,0.12065 1.14794,0.14464 0.38065,0.0236 0.76765,0.0938 1.14618,0.18238 0.28293,0.066 0.5715,0.12453 0.86042,0.14147 0.49036,0.0293 0.98143,0.0406 1.47461,0.0317 0.53622,-0.01 1.0153,-0.18803 1.50848,-0.33937 0.12277,-0.0378 0.24059,-0.091 0.38171,-0.14535 z m -36.303764,5.66808 c 0.216077,0.4953 0.530542,0.92816 0.816753,1.37725 0.194873,0.30585 0.477906,0.5401 0.688763,0.83361 0.04727,0.066 0.120825,0.10054 0.186301,0.14534 0.166053,0.1143 0.352497,0.19086 0.508495,0.32809 0.23703,0.20849 0.458187,0.43603 0.72471,0.61277 0.343254,0.22754 0.72196,0.40499 1.016423,0.70415 0.04851,0.0494 0.11095,0.0882 0.173109,0.12065 0.270227,0.14076 0.484365,0.34501 0.689575,0.56656 0.204716,0.22119 0.362056,0.47731 0.555377,0.70591 0.381706,0.45049 0.686858,0.95638 1.027996,1.4358 0.147812,0.20744 0.248708,0.44239 0.23777,0.71508 -0.0056,0.13688 0.03211,0.27693 0.12065,0.46602 0.0067,-0.10266 0.0127,-0.14358 0.0113,-0.1845 -0.01693,-0.45791 -0.08749,-0.90911 -0.155575,-1.36208 -0.07797,-0.51681 -0.191206,-1.02129 -0.362302,-1.51306 -0.135467,-0.39017 -0.255413,-0.78987 -0.522113,-1.12007 -0.409575,-0.508 -0.926888,-0.88441 -1.491332,-1.19838 -0.300672,-0.16722 -0.589809,-0.35031 -0.873937,-0.54364 -0.538408,-0.36618 -1.071173,-0.74012 -1.66511,-1.01882 -0.316653,-0.14852 -0.630589,-0.30303 -0.912813,-0.52493 -0.245816,-0.19332 -0.511915,-0.36548 -0.77403,-0.54575 z m 26.355784,6.78639 c -0.10019,-0.073 -0.19968,-0.10478 -0.2974,-0.13688 -0.2928,-0.0963 -0.58137,-0.20179 -0.88406,-0.26952 -0.64593,-0.14464 -1.26118,-0.393 -1.89159,-0.58985 -1.08444,-0.33866 -2.13748,-0.77223 -3.19299,-1.1938 -0.72037,-0.28751 -1.44639,-0.56585 -2.19357,-0.76588 -0.83185,-0.2226 -1.67429,-0.42404 -2.54494,-0.43921 -0.78881,-0.0137 -1.56634,0.0473 -2.30152,0.3683 -0.0635,0.0275 -0.15029,0.0219 -0.21555,0.13089 0.36054,-0.0183 0.68721,-0.0127 1.00718,-0.0561 0.71719,-0.0977 1.40194,0.0667 2.08244,0.23954 0.38171,0.097 0.7673,0.19332 1.12995,0.36124 0.31962,0.14782 0.66252,0.2466 0.97579,0.40535 0.37959,0.19261 0.79339,0.28222 1.18604,0.43321 0.33584,0.12841 0.69179,0.21343 1.01917,0.36477 0.55704,0.25788 1.15147,0.37959 1.74025,0.52458 0.33338,0.0818 0.66675,0.16263 1.00083,0.2413 0.55633,0.13123 1.10243,0.31115 1.67358,0.37606 0.49001,0.0557 0.9839,0.0526 1.47602,0.0723 0.0688,0.003 0.14217,0.0106 0.23037,-0.0663 z m -12.65696,13.09617 c -0.19015,-0.0917 -0.33902,-0.0871 -0.48613,-0.0907 -0.14076,-0.003 -0.2854,0.0124 -0.42192,-0.0134 -0.49319,-0.0921 -0.9779,-0.22084 -1.46297,-0.34784 -0.5013,-0.13159 -0.98425,-0.3242 -1.50989,-0.37606 -0.4438,-0.0441 -0.83326,-0.28963 -1.21391,-0.50165 -0.58385,-0.32455 -1.14935,-0.68721 -1.69827,-1.06821 -0.607487,-0.42157 -1.197682,-0.8696 -1.776945,-1.32962 -0.538972,-0.42827 -1.105075,-0.8128 -1.689346,-1.1751 -0.428837,-0.266 -0.885648,-0.37712 -1.383948,-0.33514 -0.05831,0.005 -0.133702,-0.012 -0.163158,0.0575 -0.02304,0.054 0.02106,0.10054 0.0515,0.14288 0.232341,0.32314 0.494173,0.61489 0.813752,0.85971 0.377579,0.28893 0.750607,0.58244 1.157817,0.83044 0.498017,0.30304 0.890235,0.74295 1.372835,1.06821 0.431449,0.29105 0.853017,0.59267 1.350082,0.77083 0.273051,0.0977 0.542571,0.21166 0.801861,0.34148 0.54364,0.27199 1.0975,0.51012 1.68099,0.68792 0.53129,0.16228 1.06645,0.30057 1.61114,0.40675 0.24165,0.0469 0.48718,0.0286 0.72919,0.0931 0.54822,0.14676 1.10807,0.20144 1.67534,0.11783 0.17251,-0.0257 0.34678,-0.0441 0.56198,-0.13899 z M 9.3819557,76.678103 c -0.0066,0.0138 -0.01323,0.0272 -0.01986,0.0406 0.259644,0.15523 0.505601,0.34325 0.7817553,0.45932 0.52765,0.22154 1.039177,0.48048 1.581715,0.66957 0.495158,0.17251 0.997585,0.27729 1.519978,0.30586 0.520206,0.0289 1.037943,-0.0332 1.557196,-0.0275 0.484224,0.006 0.966012,-0.0494 1.445826,-0.0974 0.505211,-0.0508 1.008449,-0.12594 1.502762,-0.266 0.402518,-0.1143 0.772125,-0.29809 1.155205,-0.45297 0.119346,-0.0483 0.12291,-0.12876 0.01447,-0.18732 -0.185632,-0.10019 -0.37578,-0.19297 -0.567479,-0.28116 -0.57023,-0.26282 -1.176689,-0.17463 -1.769816,-0.15487 -0.288959,0.01 -0.576297,0.0391 -0.867339,0.0226 -0.298203,-0.0166 -0.600252,-0.0363 -0.896268,-0.008 -0.779954,0.0741 -1.563793,0.10759 -2.339763,0.22789 -0.250542,0.0392 -0.50546,0.0437 -0.762458,-0.003 -0.151871,-0.0275 -0.31436,-0.0155 -0.473498,-0.009 -0.350591,0.0141 -0.70351,0.0314 -1.050749,-0.054 -0.2692753,-0.0663 -0.5410203,-0.12312 -0.8116713,-0.18415 z m -2.475089,-25.896 c 0.05786,0.24871 0.215512,0.45191 0.338561,0.66851 0.23936,0.42122 0.492654,0.83432 0.751452,1.2439 0.173778,0.27481 0.384351,0.52634 0.616408,0.75177 0.213713,0.20778 0.456812,0.38699 0.695607,0.56726 0.28829,0.21731 0.579332,0.43498 0.9046993,0.59373 0.223097,0.10865 0.437515,0.22719 0.635811,0.37535 0.234139,0.17498 0.486058,0.32103 0.755192,0.43216 0.511916,0.21166 1.029652,0.40992 1.542697,0.61912 0.236326,0.0967 0.46923,0.20214 0.699629,0.31186 0.137125,0.0653 0.256188,0.15663 0.311433,0.30868 0.01198,0.0328 0.02442,0.0684 0.0466,0.0942 0.035,0.0402 0.08943,0.0409 0.108725,-0.007 0.04904,-0.12171 -0.01077,-0.24271 -0.02522,-0.36336 -0.01103,-0.0903 -0.101706,-0.0854 -0.168558,-0.0967 -0.100576,-0.0173 -0.175683,-0.078 -0.170566,-0.17251 0.01114,-0.21097 -0.112607,-0.33514 -0.237738,-0.47767 -0.117687,-0.1344 -0.255482,-0.24094 -0.383504,-0.36053 -0.288961,-0.27058 -0.586494,-0.53305 -0.861695,-0.81704 -0.143299,-0.14781 -0.320534,-0.24483 -0.4717,-0.37994 -0.334574,-0.2988 -0.677721,-0.59055 -1.036425,-0.85936 -0.428414,-0.32139 -0.877676,-0.60784 -1.3647923,-0.84526 -0.52712,-0.25682 -1.043164,-0.54469 -1.523012,-0.89041 -0.328401,-0.23636 -0.708731,-0.39547 -1.010532,-0.67346 -0.03429,-0.0314 -0.08417,-0.0674 -0.15307,-0.0236 z m 9.5726603,21.84294 c -5.29e-4,-0.085 -0.04752,-0.12594 -0.09592,-0.16475 -0.204613,-0.16439 -0.400722,-0.32349 -0.679487,-0.37959 -0.351824,-0.0705 -0.675251,-0.25682 -1.037801,-0.30409 -0.366993,-0.048 -0.71935,-0.16475 -1.087013,-0.21731 -0.498581,-0.0713 -1.000161,0.0286 -1.496554,-0.0607 -0.346992,-0.0624 -0.701393,-0.013 -1.052654,-0.0656 -0.9138,-0.13617 -1.8413593,-0.15522 -2.7519493,-0.33231 -0.538832,-0.10443 -1.05738,-0.25788 -1.559383,-0.47414 -0.08378,-0.036 -0.164007,-0.0804 -0.246944,-0.1217 -0.02014,0.0586 0.004,0.0861 0.02618,0.11183 0.218263,0.25364 0.432682,0.51082 0.658142,0.75776 0.09991,0.10936 0.206975,0.21661 0.343394,0.28646 0.376484,0.19191 0.747324,0.39617 1.130159,0.57467 0.269381,0.12594 0.534811,0.26212 0.835342,0.32068 0.5382693,0.10442 1.0849333,0.12241 1.6269053,0.18697 0.349215,0.0416 0.696877,0.10795 1.051313,0.10019 0.528073,-0.0113 1.051596,-0.0639 1.577305,-0.1203 0.653593,-0.0702 1.312723,-0.14181 1.975697,-0.0988 0.259609,0.0166 0.522288,0.0275 0.783273,8e-4 z m 22.889459,-51.80436 c 0.0286,-0.11253 0.007,-0.19755 -0.0117,-0.28222 -0.14957,-0.67134 -0.49706,-1.258 -0.79974,-1.86372 -0.008,-0.0155 -0.0155,-0.0325 -0.0268,-0.0455 -0.33479,-0.37712 -0.54116,-0.84102 -0.85655,-1.23578 -0.41416,-0.51859 -0.84984,-1.01247 -1.32821,-1.46897 -0.30762,-0.29316 -0.59125,-0.60678 -0.84772,-0.94297 -0.32562,-0.42722 -0.65088,-0.85443 -0.95744,-1.29611 -0.2353,-0.33937 -0.508,-0.65405 -0.7373,-0.9973 -0.24977,-0.37324 -0.46814,-0.76694 -0.70098,-1.15182 -0.0501,-0.0825 -0.10018,-0.16581 -0.15557,-0.24518 -0.0349,-0.0508 -0.0924,-0.0631 -0.13794,-0.0222 -0.11112,0.0995 -0.22401,0.19862 -0.29245,0.33726 -0.0272,0.0554 -0.0282,0.10654 0.0247,0.13899 0.23072,0.14111 0.36442,0.38241 0.57044,0.54822 0.35878,0.28822 0.60396,0.66499 0.80363,1.06892 0.17533,0.35418 0.31468,0.72601 0.47836,1.0862 0.21485,0.47272 0.42828,0.94685 0.66146,1.4104 0.15381,0.30551 0.30022,0.6149 0.52705,0.8823 0.29739,0.35066 0.54222,0.74048 0.70133,1.17581 0.0709,0.19332 0.17497,0.36654 0.28786,0.5341 0.27658,0.40887 0.5715,0.80469 0.82691,1.22802 0.073,0.12101 0.17674,0.20673 0.30551,0.28082 0.40428,0.23318 0.84737,0.39193 1.23578,0.65581 0.127,0.0857 0.27905,0.13476 0.42933,0.20496 z m -21.771859,7.54698 c -0.08848,0.17674 0.0725,0.27516 0.05775,0.36724 -0.02109,0.13194 -0.03584,0.25012 0.0084,0.37641 0.0259,0.0744 0.04713,0.15099 0.06368,0.22825 0.07232,0.33761 0.182562,0.66322 0.334573,0.97261 0.174591,0.35595 0.354965,0.70908 0.541833,1.05869 0.192651,0.36053 0.449932,0.67768 0.75311,0.94615 0.388337,0.34395 0.802285,0.65863 1.207029,0.98425 0.253399,0.20355 0.53495,0.37958 0.758999,0.61136 0.317114,0.32808 0.708343,0.54786 1.07061,0.80751 0.500452,0.35877 1.056077,0.63782 1.537618,1.02693 0.03493,0.0282 0.07056,0.0536 0.136877,0.0215 0.0011,-0.2674 -0.08079,-0.52175 -0.179562,-0.77505 -0.136879,-0.35031 -0.389821,-0.62547 -0.586316,-0.93733 -0.27799,-0.44132 -0.651899,-0.80998 -0.945976,-1.23931 -0.239217,-0.3496 -0.583036,-0.5722 -0.938001,-0.78211 -0.02963,-0.0176 -0.06988,-0.0303 -0.08505,-0.0568 -0.107881,-0.18838 -0.303283,-0.25859 -0.471842,-0.36901 -0.338418,-0.2219 -0.677579,-0.4445 -0.963646,-0.73625 -0.186302,-0.18979 -0.40005,-0.3503 -0.631013,-0.4766 -0.23989,-0.13088 -0.426474,-0.31609 -0.591151,-0.52035 -0.214982,-0.2667 -0.437269,-0.5274 -0.621241,-0.82126 -0.138079,-0.22049 -0.268994,-0.45015 -0.456671,-0.68686 z m -3.008278,5.80637 c -0.09038,0.0917 -0.06957,0.16369 -0.06615,0.23248 0.01408,0.28151 0.01048,0.5655 0.04826,0.84384 0.04339,0.32209 0.01323,0.65652 0.124708,0.96626 0.120015,0.33373 0.121955,0.68263 0.162172,1.02588 0.05486,0.46672 0.139734,0.92145 0.356658,1.34373 0.06449,0.12523 0.138888,0.24941 0.177623,0.38312 0.132291,0.45578 0.371512,0.85231 0.643821,1.23366 0.07288,0.1023 0.154903,0.18168 0.265816,0.2473 0.144957,0.0857 0.314608,0.127 0.445241,0.22824 0.379942,0.29351 0.810014,0.49354 1.236805,0.70274 0.220909,0.1083 0.429789,0.24165 0.650558,0.35031 0.187431,0.0924 0.240204,0.0522 0.226129,-0.1517 -0.01143,-0.16686 -0.0241,-0.33408 -0.04272,-0.50024 -0.01569,-0.14111 -0.04904,-0.28081 -0.132011,-0.39793 -0.158607,-0.22296 -0.271886,-0.47237 -0.409115,-0.70732 -0.263067,-0.45015 -0.532625,-0.88971 -0.914754,-1.2506 -0.03817,-0.036 -0.07193,-0.0776 -0.102799,-0.1203 -0.551781,-0.76305 -1.147093,-1.49613 -1.58256,-2.33785 -0.04008,-0.0773 -0.09522,-0.14852 -0.151696,-0.2152 -0.144145,-0.17004 -0.256046,-0.35877 -0.334891,-0.56621 -0.168664,-0.44344 -0.44136,-0.83678 -0.601099,-1.31021 z m 34.323477,-22.97959 c 0.0811,-0.20179 0.1457,-0.5387 0.20708,-0.87771 0.127,-0.7016802 -0.0251,-1.3874802 -0.11536,-2.0750402 -0.0293,-0.22261 -0.13088,-0.43639 -0.2039,-0.65229 -0.0307,-0.0914 -0.097,-0.14781 -0.17075,-0.0494 -0.17286,0.23072 -0.39158,0.4184 -0.55139,0.66605 -0.39405,0.6103 -0.59267,1.29046 -0.7687,1.9794302 -0.10901,0.42722 -0.21696,0.85584 -0.36513,1.26824 -0.14217,0.39581 -0.35983,0.76411 -0.53763,1.14758 -0.0938,0.20285 -0.21167,0.39335 -0.36689,0.5461 -0.40569,0.3997 -0.72672,0.88371 -1.20615,1.20897 -0.0434,0.0296 -0.0854,0.0656 -0.11641,0.10725 -0.0621,0.0836 -0.14394,0.1845 -0.0815,0.28257 0.0515,0.0808 0.16299,0.024 0.24836,0.0127 0.0173,-0.002 0.0346,-0.007 0.0511,-0.0124 0.77259,-0.23741 1.50002,-0.5588 2.12867,-1.08232 0.31785,-0.26493 0.65757,-0.50518 0.92851,-0.82056 0.38911,-0.45261 0.67063,-0.96943 0.92004,-1.64923 z m -34.433825,39.75876 c 0.01638,-0.007 0.03277,-0.0134 0.04932,-0.0201 0.004,-0.0339 0.01389,-0.0681 0.01114,-0.10125 -0.03457,-0.41557 0.0072,-0.82656 0.06064,-1.2386 0.03418,-0.26388 -0.01035,-0.52952 -0.09853,-0.78105 -0.227507,-0.64841 -0.479565,-1.2887 -0.690809,-1.94204 -0.14358,-0.4445 -0.324379,-0.87489 -0.509164,-1.29928 -0.178188,-0.40852 -0.394123,-0.8061 -0.60579,-1.20262 -0.345757,-0.647 -0.764011,-1.24566 -1.152878,-1.86408 -0.407917,-0.64876 -0.943116,-1.19839 -1.388109,-1.83409 -0.02798,0.0871 -0.0017,0.15346 0.02029,0.2166 0.07853,0.22543 0.127459,0.45861 0.1911,0.68757 0.139488,0.50024 0.249167,1.01106 0.480554,1.48131 0.136807,0.27764 0.243346,0.56656 0.332246,0.86219 0.111619,0.37147 0.22613,0.74542 0.40139,1.08938 0.221615,0.43462 0.360786,0.89711 0.519959,1.3529 0.07288,0.20884 0.146756,0.41522 0.248744,0.61066 0.138465,0.26564 0.276543,0.53199 0.426473,0.79128 0.150072,0.25964 0.244616,0.54433 0.381741,0.81068 0.07179,0.13935 0.103187,0.30762 0.178435,0.45826 0.264054,0.52881 0.59644,1.01776 0.878663,1.53564 0.07426,0.13653 0.175684,0.25823 0.264584,0.38665 z m -10.1704773,8.36647 c 0.140123,0.10513 0.25534,0.16651 0.381,0.21132 0.648229,0.23107 1.294941,0.46637 1.94317,0.69744 0.256611,0.0914 0.529872,0.14746 0.771455,0.26776 0.535622,0.26705 1.081334,0.51717 1.587641,0.84067 0.38735,0.24765 0.748524,0.52281 1.0653533,0.86148 0.385304,0.41169 0.775123,0.82303 1.216801,1.17475 0.39303,0.31291 0.791422,0.61912 1.178913,0.93909 0.121144,0.10019 0.235797,0.21732 0.387773,0.272 0.248885,0.0892 0.490044,0.19579 0.726652,0.3122 0.308681,0.1517 0.644101,0.23848 0.946996,0.4064 0.09783,0.0543 0.210537,0.12136 0.33387,0.1076 0.01916,-0.055 -0.0044,-0.0818 -0.02466,-0.10971 -0.389149,-0.5334 -0.778581,-1.0668 -1.235816,-1.54552 -0.09744,-0.10195 -0.20066,-0.19756 -0.281799,-0.31503 -0.308011,-0.4445 -0.692891,-0.82162 -1.08645,-1.18604 -0.316689,-0.29316 -0.692468,-0.51259 -1.052971,-0.75001 -1.133158,-0.74647 -2.3636113,-1.28905 -3.6338933,-1.74942 -0.509588,-0.18486 -1.04454,-0.24483 -1.575929,-0.32385 -0.531918,-0.0794 -1.065354,-0.12489 -1.648106,-0.11113 z m 30.3725423,28.78067 c -0.0861,-0.085 -0.16475,-0.0751 -0.24483,-0.0681 -0.45614,0.0399 -0.91334,-0.002 -1.37054,0.024 -0.50271,0.0282 -1.00048,-0.0639 -1.49366,-0.15028 -0.4064,-0.0709 -0.81527,-0.15099 -1.19627,-0.31926 -0.18521,-0.0819 -0.36795,-0.16863 -0.55739,-0.24095 -0.32949,-0.12594 -0.66816,-0.23495 -0.98143,-0.3937 -0.43215,-0.21943 -0.85936,-0.44591 -1.31127,-0.62512 -0.30233,-0.11995 -0.60184,-0.25153 -0.89006,-0.40181 -0.3055,-0.15946 -0.61066,-0.31504 -0.93627,-0.42934 -0.44062,-0.15486 -0.87877,-0.31785 -1.321859,-0.46566 -0.189796,-0.0635 -0.389115,-0.0988 -0.5842,-0.14676 0.03245,0.0907 0.07514,0.14676 0.127352,0.19191 0.500944,0.43039 0.999417,0.86396 1.507067,1.28658 0.24271,0.20179 0.48613,0.41311 0.76023,0.5648 0.62336,0.34537 1.27318,0.64629 1.87079,1.03576 0.47448,0.30903 0.9786,0.5595 1.48307,0.80715 0.59126,0.29034 1.23543,0.39723 1.89054,0.42898 0.43462,0.0212 0.8703,-0.0166 1.276,-0.16545 0.43815,-0.16052 0.877,-0.31997 1.31692,-0.4752 0.25823,-0.0907 0.45684,-0.25823 0.65581,-0.45755 z M 4.3007207,59.752883 c 0.102658,0.0815 0.205599,0.16299 0.308116,0.24518 0.785354,0.6283 1.493944,1.34127 2.212446,2.04153 0.811107,0.79057 1.683279,1.49754 2.640189,2.1015 0.320252,0.20214 0.6264273,0.42792 0.9490433,0.623 0.526838,0.31927 1.106416,0.53799 1.663029,0.80046 0.574358,0.27058 1.151326,0.46954 1.789359,0.50905 0.447747,0.0275 0.884166,0.0265 1.371283,-0.13723 -0.574887,-0.17462 -1.076783,-0.38311 -1.569579,-0.6163 -0.468806,-0.2219 -0.964494,-0.39123 -1.384794,-0.70556 -0.288819,-0.21554 -0.559752,-0.45578 -0.851464,-0.6671 -0.602368,-0.43709 -1.135239,-0.94791 -1.6325853,-1.49754 -0.244334,-0.26987 -0.53908,-0.47625 -0.82049,-0.70132 -0.334434,-0.26741 -0.730639,-0.42157 -1.095799,-0.63183 -0.344805,-0.19826 -0.716456,-0.33408 -1.09153,-0.4639 -0.54998,-0.1905 -1.101901,-0.37924 -1.639322,-0.60149 -0.276155,-0.1143 -0.554814,-0.22013 -0.847902,-0.29845 z M 37.713746,27.085313 c 0.16334,0.26811 0.30092,0.55739 0.49601,0.8001 0.35313,0.43956 0.76341,0.82938 1.19133,1.19698 0.27375,0.23495 0.55633,0.45967 0.8636,0.65263 0.14817,0.0931 0.26635,0.23954 0.42086,0.31574 0.44979,0.2219 0.90523,0.43498 1.36949,0.62512 0.56197,0.23037 1.13841,0.4184 1.73919,0.5334 0.31891,0.0614 0.63641,0.13194 0.95603,0.19262 0.32843,0.0624 0.66534,0.0677 0.98848,0.15946 0.0751,0.0215 0.15699,0.0201 0.23566,0.0275 0.38523,0.0356 0.77152,0.0501 1.15781,0.0691 0.63112,0.031 1.24637,-0.0515 1.85244,-0.22014 0.0483,-0.0134 0.11465,-0.0219 0.11148,-0.0903 -0.003,-0.0642 -0.0699,-0.0699 -0.11677,-0.0903 -0.58173,-0.25823 -1.19416,-0.42439 -1.80376,-0.59866 -0.70237,-0.20109 -1.40652,-0.39653 -2.08915,-0.66146 -0.60007,-0.23283 -1.20156,-0.46461 -1.84326,-0.55739 -0.61454,-0.0889 -1.18992,-0.31821 -1.78188,-0.48719 -0.84278,-0.24094 -1.6136,-0.66181 -2.41406,-1.00718 -0.24835,-0.10724 -0.47695,-0.25929 -0.69426,-0.42933 -0.19862,-0.15522 -0.37465,-0.34431 -0.63924,-0.43074 z M 6.4329447,50.562673 c -0.02508,0.16933 0.03115,0.32703 0.0725,0.48578 0.141923,0.54504 0.207645,1.10666 0.373168,1.64782 0.141923,0.46426 0.331823,0.91017 0.487539,1.36807 0.305118,0.89782 0.850265,1.63301 1.521778,2.27965 0.309209,0.29775 0.649887,0.56268 1.020586,0.78776 0.7441143,0.45226 1.5564913,0.64487 2.4167743,0.64805 0.442102,10e-4 0.868998,-0.12312 1.300198,-0.20708 0.184785,-0.0363 0.346145,-0.13088 0.51248,-0.20955 0.154623,-0.073 0.171027,-0.18274 0.05126,-0.28963 -0.370557,-0.33056 -0.767008,-0.64029 -1.237473,-0.79728 -0.467571,-0.15593 -0.911824,-0.36865 -1.381054,-0.51576 -0.221615,-0.0692 -0.412045,-0.19403 -0.607871,-0.31327 -0.233151,-0.14182 -0.444536,-0.31715 -0.691198,-0.4385 -0.6937373,-0.34114 -1.2996333,-0.80645 -1.8585743,-1.33527 -0.518548,-0.49036 -0.871326,-1.10348 -1.224104,-1.71097 -0.264724,-0.45614 -0.552873,-0.90134 -0.756003,-1.39982 z m 25.9669113,-3.49709 c -0.0773,-0.10442 -0.17074,-0.11288 -0.25082,-0.14181 -1.06327,-0.381 -2.11314,-0.7934 -3.14431,-1.25518 -0.98249,-0.43992 -1.94945,-0.90488 -2.84868,-1.50284 -0.49918,-0.33196 -0.96838,-0.70626 -1.48237,-1.01776 -0.322089,-0.19544 -0.614895,-0.43992 -0.935218,-0.63888 -0.626534,-0.38912 -1.316001,-0.63959 -2.020041,-0.84138 -0.22546,-0.0646 -0.450215,-0.14781 -0.691372,-0.16686 -0.447853,-0.0353 -0.878771,0.048 -1.307889,0.15346 -0.06558,0.0162 -0.129259,0.0589 -0.182176,0.10301 -0.06463,0.0543 -0.166616,0.11183 -0.126928,0.2092 0.03641,0.0896 0.139734,0.0406 0.214452,0.0381 0.407072,-0.0145 0.813155,-0.0176 1.197364,0.14605 0.553966,0.23636 1.052267,0.5722 1.554303,0.89781 0.33782,0.21908 0.629568,0.50236 0.95236,0.74542 0.63994,0.48225 1.269295,0.97826 1.951565,1.40053 0.45579,0.28187 0.85972,0.64559 1.36454,0.84949 0.29352,0.11853 0.57221,0.32103 0.87419,0.3616 0.74965,0.0998 1.4418,0.40111 2.17487,0.55068 0.48296,0.0988 0.95603,0.24025 1.45839,0.21943 0.20108,-0.008 0.4131,0.001 0.60395,0.0575 0.25753,0.0755 0.44203,-0.019 0.64382,-0.16757 z m 10.42,-12.05194 c 10e-4,-0.019 0.002,-0.0381 0.003,-0.0572 -0.11183,-0.0159 -0.22366,-0.036 -0.33584,-0.0469 -0.21978,-0.0215 -0.4445,-0.0219 -0.65335,-0.096 -0.63429,-0.22401 -1.30633,-0.29104 -1.94839,-0.48683 -0.47942,-0.1464 -0.98742,-0.19015 -1.45591,-0.38347 -0.0402,-0.0166 -0.0843,-0.0307 -0.12771,-0.0324 -0.15486,-0.007 -0.2861,-0.0769 -0.42227,-0.14217 -0.32632,-0.15593 -0.66005,-0.29528 -1.01142,-0.387 -0.44485,-0.11571 -0.87418,-0.27235 -1.29434,-0.46073 -0.44167,-0.19791 -0.88653,-0.39405 -1.34302,-0.55351 -0.3549,-0.12347 -0.72002,-0.2226 -1.08585,-0.3182 -0.55669,-0.1457 -1.11231,-0.17428 -1.6764,-0.15381 -0.19615,0.007 -0.39688,0.0222 -0.63041,0.1083 0.27022,0.1397 0.50235,0.25717 0.72848,0.38453 0.37571,0.21202 0.75777,0.41839 1.14829,0.59513 0.45967,0.20814 0.89288,0.45756 1.33068,0.70238 0.37677,0.21061 0.73801,0.44556 1.10384,0.67346 0.3362,0.20955 0.67769,0.4131 1.03823,0.57361 0.21272,0.0949 0.38805,0.2413 0.59196,0.34502 0.65369,0.33161 1.36595,0.41733 2.07786,0.44273 0.54151,0.0194 1.0862,-0.004 1.63265,-0.0589 0.82268,-0.0832 1.57092,-0.37042 2.32975,-0.64805 z m -14.76657,31.43673 c -0.0191,-0.0575 -0.0603,-0.0727 -0.0998,-0.0861 -0.29704,-0.10124 -0.55139,-0.28469 -0.78599,-0.47731 -0.36089,-0.29633 -0.76129,-0.53657 -1.11936,-0.83537 -0.14076,-0.11783 -0.30092,-0.21449 -0.47237,-0.28822 -0.38806,-0.16757 -0.76024,-0.36866 -1.14053,-0.55139 -0.663224,-0.31856 -1.367722,-0.50695 -2.063047,-0.72532 -0.462314,-0.14534 -0.943821,-0.19755 -1.42268,-0.25964 -0.09564,-0.0127 -0.190712,-0.0582 -0.284268,-0.0533 -0.44817,0.0233 -0.896022,0.0423 -1.325282,0.20602 -0.612246,0.23354 -1.176973,0.55845 -1.74198,0.88265 -0.212902,0.12242 -0.447852,0.21802 -0.620395,0.39935 -0.20546,0.21625 -0.397018,0.44556 -0.59309,0.67063 -0.0048,0.006 0.0087,0.0272 0.01654,0.0497 0.127881,-0.0586 0.250791,-0.13088 0.383223,-0.17251 0.36971,-0.11606 0.741786,-0.22542 1.116084,-0.32597 0.655389,-0.17568 1.320834,-0.21448 1.988502,-0.0892 0.596689,0.11183 1.191295,0.23636 1.780681,0.38453 0.469087,0.11783 0.945337,0.21025 1.410335,0.34219 0.685799,0.19438 1.364543,0.41416 2.046457,0.62195 0.0924,0.0282 0.18592,0.0593 0.28117,0.0716 0.51223,0.0677 1.00541,0.24519 1.52964,0.25083 0.36795,0.004 0.73554,0.0624 1.11619,-0.0152 z M 11.72186,86.963343 c 0.05348,0.0945 0.109679,0.10019 0.156951,0.11888 0.555202,0.22261 1.121304,0.40817 1.697743,0.57186 0.629072,0.1785 1.264072,0.22683 1.909126,0.21202 0.201473,-0.005 0.410104,-0.0159 0.602086,-0.0709 0.560319,-0.16122 1.079254,-0.43251 1.609937,-0.66746 0.255905,-0.11324 0.507542,-0.24765 0.770326,-0.34254 0.653203,-0.23531 1.241883,-0.57962 1.79338,-0.99307 0.162492,-0.12171 0.323287,-0.24448 0.495549,-0.35243 0.419486,-0.26282 0.792938,-0.58773 1.185262,-0.88723 0.09617,-0.0734 0.07786,-0.15523 -0.03447,-0.19015 -0.0496,-0.0155 -0.104704,-0.0236 -0.156528,-0.0205 -0.333481,0.0212 -0.668478,-0.0261 -1.000866,0.0208 -0.149399,0.0212 -0.297248,0.0314 -0.447603,0.0169 -0.149932,-0.0145 -0.29958,-0.005 -0.448276,0.0183 -0.59972,0.0931 -1.203288,0.14499 -1.796555,0.30162 -0.479391,0.12665 -0.942835,0.28293 -1.400069,0.46637 -0.564867,0.22684 -1.084122,0.54787 -1.639605,0.79693 -0.266911,0.11959 -0.549698,0.18626 -0.812905,0.30797 -0.474028,0.21943 -0.964742,0.39053 -1.479022,0.48154 -0.329776,0.0586 -0.640256,0.19368 -1.004464,0.21097 z m 37.570056,-56.01441 c -0.34925,-0.16263 -0.6731,-0.36583 -1.02059,-0.51364 -0.53622,-0.22825 -1.03575,-0.52705 -1.55892,-0.77999 -0.48507,-0.23425 -0.90523,-0.57256 -1.34162,-0.88689 -0.75776,-0.54574 -1.54834,-1.04528 -2.31457,-1.57974 -0.80504,-0.56126 -1.657,-1.03222 -2.5848,-1.37265 -0.9846,-0.3616 -1.9745,-0.40676 -2.98874,-0.19086 -0.0695,0.0145 -0.13793,0.0296 -0.19967,0.0667 -0.15875,0.0953 -0.17109,0.16228 -0.0328,0.27728 0.15311,0.12806 0.33408,0.22578 0.35843,0.45897 0.005,0.0483 0.0787,0.0899 0.12135,0.1344 0.16616,0.17322 0.381,0.2847 0.56056,0.44027 0.42369,0.36654 0.89712,0.64241 1.41218,0.86466 0.76905,0.33161 1.52576,0.69391 2.3442,0.89112 0.28258,0.0681 0.5521,0.17427 0.83185,0.25082 0.24836,0.0684 0.50412,0.0843 0.75001,0.15381 0.46425,0.13159 0.93027,0.24871 1.38289,0.42792 0.41557,0.1644 0.85125,0.28681 1.27917,0.42404 0.35242,0.11289 0.70626,0.2226 1.06362,0.31856 0.46849,0.12594 0.94157,0.23283 1.39312,0.41522 0.17886,0.0727 0.36266,0.1337 0.54434,0.20002 z m -10.82358,-10.12472 c -0.18802,-0.16616 -0.36865,-0.33232 -0.62194,-0.38347 -0.13441,-0.0275 -0.24412,-0.11289 -0.36231,-0.18556 -0.3623,-0.2219 -0.58208,-0.56409 -0.79375,-0.90064 -0.21942,-0.3489 -0.4265,-0.70203 -0.71507,-0.99942 -0.0487,-0.0501 -0.0543,-0.1076 -0.0519,-0.17004 0.003,-0.0811 -0.0134,-0.15734 -0.049,-0.23036 -0.13264,-0.26811 -0.26705,-0.53481 -0.44168,-0.78 -0.22507,-0.31538 -0.44379,-0.635 -0.66181,-0.95532 -0.0335,-0.0497 -0.0543,-0.11077 -0.0716,-0.16898 -0.10548,-0.35771 -0.27764,-0.68474 -0.45262,-1.01106 -0.0956,-0.1778 -0.19402,-0.35207 -0.26211,-0.54575 -0.19685,-0.55809 -0.47061,-1.08091 -0.77964,-1.58432 -0.0695,-0.11289 -0.16192,-0.2099 -0.27975,-0.27552 -0.0289,-0.0159 -0.0769,-0.008 -0.0875,-0.0476 -0.0504,-0.1845 -0.22084,-0.26846 -0.33302,-0.40005 -0.16969,-0.19931 -0.2533,-0.19896 -0.41805,0.003 -0.41133,0.50412 -0.54751,1.11125 -0.62759,1.73602 -0.0769,0.59937 0.18451,1.11866 0.4124,1.64147 0.10866,0.24907 0.25823,0.48049 0.39053,0.71932 0.22154,0.40075 0.46601,0.79093 0.77364,1.12889 0.62371,0.68474 1.31551,1.29645 2.09761,1.79775 0.40005,0.25647 0.79799,0.52458 1.22485,0.72919 0.45861,0.22014 0.91969,0.44591 1.41005,0.59549 0.24342,0.0744 0.44874,0.23848 0.70026,0.28681 z m -23.303437,36.26026 c 0.05401,0.0409 0.128413,0.0243 0.19484,0.024 0.317642,-0.002 0.603321,0.1143 0.887872,0.23319 0.516502,0.21554 0.950029,0.56691 1.406277,0.87841 0.229166,0.15699 0.47103,0.27199 0.732438,0.35525 0.523803,0.16616 1.067964,0.21908 1.608738,0.29104 0.104844,0.0141 0.208349,0.0282 0.310727,0.0582 0.465629,0.13582 0.94107,0.22331 1.423103,0.27517 0.166336,0.0176 0.330589,0.0448 0.494983,0.0787 0.196921,0.0406 0.402802,0.0861 0.599829,0.0688 0.491418,-0.0423 0.965906,-0.18486 1.437216,-0.32526 0.174977,-0.0519 0.353834,-0.12594 0.485424,-0.26 0.2861,-0.29069 0.63606,-0.49918 0.94756,-0.75742 0.18168,-0.15028 0.33126,-0.31538 0.43709,-0.52034 0.13617,-0.26317 0.12347,-0.28363 -0.1711,-0.3616 -0.0423,-0.0113 -0.0843,-0.0265 -0.12735,-0.0353 -0.30057,-0.0603 -0.59725,-0.16263 -0.91052,-0.0847 -0.393697,0.0977 -0.799745,0.11253 -1.19803,0.18767 -0.665692,0.12489 -1.343978,0.17992 -2.02364,0.17604 -0.343111,-0.002 -0.684741,0.0554 -1.028136,0.0236 -0.579049,-0.054 -1.138415,-0.17604 -1.696508,-0.3556 -0.548606,-0.17639 -1.105887,-0.34043 -1.678022,-0.45121 -0.396629,-0.0769 -0.78204,-0.12664 -1.176586,-0.0624 -0.352777,0.0575 -0.670841,0.20144 -0.929074,0.45791 -0.02424,0.024 -0.04547,0.054 -0.02713,0.10583 z m 13.033727,9.81534 c -0.0413,-0.0586 -0.0885,-0.0536 -0.12947,-0.0437 -0.24412,0.0586 -0.4893,0.0483 -0.73589,0.0183 -0.17463,-0.0212 -0.35102,-0.06 -0.52423,-0.0508 -0.53022,0.0275 -1.02835,-0.13935 -1.52576,-0.26599 -0.3803,-0.0963 -0.759535,-0.21943 -1.134185,-0.34749 -0.567267,-0.19403 -1.147585,-0.34043 -1.735312,-0.46425 -0.602192,-0.127 -1.188016,-0.32703 -1.796838,-0.43145 -0.260422,-0.0445 -0.518973,-0.1009 -0.776642,-0.16016 -0.38227,-0.0878 -0.766869,-0.0868 -1.154536,-0.0511 -0.397156,0.037 -0.777486,0.14357 -1.153689,0.26775 -0.334185,0.11042 -0.682943,0.18133 -0.994127,0.35525 -0.155152,0.0868 -0.329354,0.14993 -0.462174,0.33196 0.73533,0.26988 1.37474,0.68686 2.089255,0.94333 0.07468,0.0268 0.150178,0.054 0.219922,0.091 0.416031,0.22048 0.868151,0.34113 1.319072,0.45543 0.365866,0.0928 0.743442,0.1397 1.115518,0.20814 0.112429,0.0208 0.223237,0.0621 0.336092,0.0677 0.975784,0.0473 1.949942,0.13546 2.927842,0.13511 0.475192,0 0.949682,-0.0247 1.424162,-0.0688 0.32879,-0.0307 0.635,-0.14358 0.95638,-0.19791 0.5267,-0.0889 1.01036,-0.30621 1.47779,-0.55915 0.10618,-0.0572 0.21167,-0.11818 0.25682,-0.23319 z m -3.18135,-15.40475 c -0.2226,-0.054 -0.38911,-0.0519 -0.551037,-0.0455 -1.013531,0.0377 -2.026814,0.0205 -3.040097,0.006 -0.352213,-0.005 -0.704604,-0.0293 -1.056394,-0.0205 -0.872596,0.0219 -1.746109,0.031 -2.614012,-0.0586 -0.492937,-0.0508 -0.965872,-0.006 -1.43838,0.11253 -0.26723,0.0667 -0.516221,0.18239 -0.745244,0.33408 -0.186338,0.12348 -0.186868,0.16228 -0.02812,0.32068 0.230683,0.23001 0.46027,0.46178 0.69977,0.68262 0.18133,0.16722 0.376873,0.31997 0.598877,0.43216 0.282646,0.14252 0.553826,0.3048 0.839504,0.44344 0.425556,0.20637 0.859616,0.36689 1.327891,0.42016 0.576405,0.0656 1.152456,0.15416 1.736302,0.1016 0.05211,-0.005 0.106116,-0.001 0.15794,0.007 0.144285,0.0233 0.280845,-0.005 0.414512,-0.0554 0.469514,-0.17886 0.94079,-0.35349 1.407901,-0.5387 0.433213,-0.17145 0.79869,-0.45085 1.123598,-0.77681 0.409575,-0.41169 0.703789,-0.92217 1.166989,-1.36419 z m 4.71699,-20.80436 c 0.0198,-0.008 0.0399,-0.0169 0.0596,-0.0251 -0.024,-0.48895 0.005,-0.98425 -0.16968,-1.45626 -0.21414,-0.5775 -0.4318,-1.15394 -0.66287,-1.72438 -0.0783,-0.19403 -0.14288,-0.39582 -0.27376,-0.56974 -0.36019,-0.47801 -0.70273,-0.96873 -1.06327,-1.44639 -0.37112,-0.49248 -0.69991,-1.01635 -1.10667,-1.48237 -0.24835,-0.28469 -0.50729,-0.56268 -0.73342,-0.86466 -0.32314,-0.43109 -0.68615,-0.82479 -1.04987,-1.2199 -0.30903,-0.3362 -0.669567,-0.62971 -0.87065,-1.05551 -0.02506,-0.0533 -0.06491,-0.10725 -0.170747,-0.11325 -0.05539,0.21943 -0.112887,0.44556 -0.170037,0.67169 -0.09031,0.35666 -0.05997,0.71332 -0.03175,1.07597 0.06209,0.79728 0.29351,1.53459 0.702027,2.21968 0.180269,0.30268 0.388057,0.58879 0.542217,0.90735 0.11218,0.23248 0.26529,0.43991 0.44238,0.62371 0.35525,0.3683 0.65935,0.77999 1.00084,1.15958 0.28328,0.31432 0.53728,0.66357 0.89182,0.89676 0.56127,0.36901 1.07209,0.80116 1.60796,1.20191 0.23566,0.17604 0.43533,0.38418 0.61136,0.61736 0.14711,0.19509 0.29598,0.38912 0.4445,0.5835 z m 23.87671,-8.02852 c -0.18662,-0.013 -0.18874,-0.0173 -0.29387,0.0289 -0.47625,0.2099 -0.97684,0.25788 -1.49013,0.24342 -0.71261,-0.0201 -1.42134,-0.0596 -2.12408,-0.19932 -0.68156,-0.13547 -1.37795,-0.17463 -2.06445,-0.28787 -0.35525,-0.0589 -0.71473,-0.10301 -1.05904,-0.20214 -0.67733,-0.19509 -1.3649,-0.34008 -2.05352,-0.48436 -0.24165,-0.0508 -0.48754,-0.0713 -0.72531,-0.13018 -0.20779,-0.0515 -0.41028,-0.0723 -0.62477,-0.055 -0.32279,0.0265 -0.64841,0.0377 -0.97226,0.0342 -0.44379,-0.005 -0.87241,0.0459 -1.27035,0.25823 -0.0437,0.0229 -0.10759,0.0282 -0.097,0.10407 0.0586,0.0582 0.13511,0.0818 0.2099,0.10583 0.3302,0.10513 0.63747,0.25718 0.92992,0.44133 0.26141,0.16439 0.52988,0.31468 0.82021,0.42615 0.11395,0.0434 0.22296,0.10866 0.32279,0.17992 0.59973,0.42721 1.2439,0.76553 1.95157,0.97473 0.56586,0.16756 1.14088,0.29774 1.71626,0.42756 0.46744,0.10584 0.94298,0.13547 1.41535,0.17569 0.48013,0.0409 0.96661,0.0102 1.45062,0.005 0.38664,-0.004 0.7747,0.009 1.15676,-0.0737 0.55386,-0.12029 1.09996,-0.26529 1.55963,-0.61842 0.31468,-0.242 0.60466,-0.51505 0.86043,-0.81915 0.13828,-0.16439 0.29597,-0.31997 0.38135,-0.53446 z m -24.35684,49.14406 c -0.0501,-0.0145 -0.0677,-0.0261 -0.0829,-0.0233 -0.94968,0.19438 -1.90817,0.3182 -2.87549,0.38946 -1.08091,0.079 -2.147007,-0.0388 -3.196167,-0.26458 -0.908897,-0.19544 -1.827919,-0.26917 -2.746941,-0.36477 -0.05182,-0.006 -0.10622,-0.002 -0.157655,0.008 -0.233294,0.043 -0.46782,0.0755 -0.705273,0.0564 -0.172263,-0.0138 -0.321771,0.0945 -0.48119,0.0938 -0.184396,-10e-4 -0.343818,0.0628 -0.513186,0.10618 -0.13575,0.0346 -0.213889,0.11642 -0.238831,0.25118 -0.03528,0.19085 -0.06904,0.38171 -0.103222,0.57291 -0.01638,0.0917 0.01312,0.15452 0.110667,0.17674 0.37292,0.084 0.713846,0.25118 1.058757,0.40817 0.433668,0.19755 0.886071,0.34678 1.336426,0.49918 0.54088,0.18274 1.042882,0.47131 1.611879,0.57891 0.412644,0.078 0.822219,0.1725 1.231794,0.26529 0.335843,0.0758 0.67945,0.0688 1.01882,0.1023 0.165102,0.0162 0.336202,0.0159 0.500242,-0.007 0.39158,-0.0554 0.77505,-0.14464 1.1564,-0.25929 0.81951,-0.24589 1.48802,-0.7119 2.06587,-1.32362 0.19932,-0.21096 0.38841,-0.43321 0.56621,-0.66252 0.14852,-0.19191 0.33584,-0.35736 0.44379,-0.6029 z m 8.32803,-30.89839 c -0.19015,-0.0892 -0.37359,-0.19897 -0.57185,-0.26494 -0.92111,-0.30832 -1.78224,-0.75529 -2.66877,-1.143 -0.42933,-0.18767 -0.81738,-0.45014 -1.23648,-0.65581 -0.35525,-0.17463 -0.70344,-0.36407 -1.04564,-0.56268 -0.883,-0.51259 -1.73919,-1.06962 -2.66206,-1.51518 -0.74683,-0.36125 -1.52118,-0.60925 -2.34174,-0.70485 -0.23918,-0.0279 -0.49036,-0.0878 -0.72813,0.0307 -0.0423,0.0212 -0.0833,0.002 -0.127,-0.005 -0.39264,-0.0631 -0.76765,0.0254 -1.13453,0.15205 -0.1203,0.0416 -0.13159,0.14746 -0.0282,0.21802 0.10125,0.0691 0.21026,0.13229 0.3242,0.17603 0.2085,0.0801 0.38912,0.20003 0.5708,0.32738 0.29563,0.20744 0.53728,0.48366 0.85831,0.65829 0.5274,0.2861 1.00506,0.65087 1.50565,0.9786 0.6477,0.42439 1.27071,0.88477 1.97133,1.22414 0.4512,0.21872 0.88617,0.46813 1.36454,0.63182 0.56656,0.19368 1.12818,0.40394 1.68663,0.62019 0.641,0.248 1.3021,0.28998 1.97697,0.2286 0.21025,-0.0191 0.42051,-0.0649 0.62935,-0.0579 0.20638,0.007 0.40358,-0.009 0.59902,-0.0691 0.0759,-0.0236 0.15205,-0.0399 0.23283,-0.0434 0.28399,-0.012 0.55034,-0.10372 0.8248,-0.22402 z m -12.04278,40.83508 c 0.0416,0.0152 0.0822,0.0321 0.12453,0.0452 0.71332,0.22119 1.42875,0.43392 2.17946,0.49177 0.13124,0.0102 0.26176,0.0377 0.39124,0.0639 0.0787,0.0159 0.15451,0.0251 0.23495,0.01 0.19508,-0.0381 0.38699,-0.0155 0.57255,0.0512 0.10125,0.0363 0.20179,0.0437 0.30974,0.0455 0.33161,0.006 0.64488,-0.091 0.96062,-0.16193 0.92286,-0.20708 1.64429,-0.77646 2.35302,-1.3589 0.14852,-0.12206 0.28399,-0.26317 0.42475,-0.39581 0.32103,-0.30233 0.59372,-0.64982 0.87947,-0.9846 0.0452,-0.0522 0.0896,-0.12101 0.0575,-0.19333 -0.036,-0.0811 -0.12348,-0.0568 -0.18839,-0.0572 -0.21237,-0.001 -0.41839,0.0515 -0.62618,0.0875 -0.41063,0.0709 -0.82585,0.0483 -1.23931,0.0582 -0.66675,0.0162 -1.33208,0.0723 -2.00025,2.7e-4 -0.45614,-0.0487 -0.90487,-0.13441 -1.35572,-0.20955 -0.48507,-0.0811 -0.96414,-0.19721 -1.44992,-0.27341 -0.76517,-0.11959 -1.52894,-0.23636 -2.27506,-0.45614 -0.30374,-0.0896 -0.602192,-0.21837 -0.913342,-0.26141 -0.535871,-0.0741 -1.038225,-0.26952 -1.562523,-0.38488 -0.649325,-0.14322 -1.289969,-0.15945 -1.939433,-0.0624 -0.12005,0.018 -0.235514,0.0713 -0.350166,0.11607 -0.07719,0.03 -0.102658,0.0942 -0.07331,0.17321 0.03362,0.09 0.05387,0.18838 0.146333,0.24377 0.600287,0.35736 1.086308,0.86783 1.669344,1.24883 0.316688,0.20708 0.60565,0.46743 0.943115,0.6283 0.448733,0.21414 0.835731,0.51788 1.258713,0.76764 0.477309,0.28187 0.953909,0.55951 1.468259,0.76871 z m -8.021351,-9.67457 c 0.169227,-0.19968 0.429929,-0.32915 0.530683,-0.60996 0.06145,-0.1718 0.18616,-0.29845 0.310337,-0.42368 0.465069,-0.46849 1.005277,-0.82797 1.611456,-1.08585 0.153246,-0.0653 0.315452,-0.12065 0.479001,-0.14817 0.610198,-0.10301 1.218459,-0.14958 1.836526,-0.0145 0.344628,0.0751 0.691833,0.1277 1.021678,0.26035 0.130881,0.0529 0.279048,0.0261 0.415221,0.0727 0.29986,0.1023 0.606071,0.18168 0.887589,0.33866 0.19156,0.10654 0.40781,0.16758 0.6223,0.2212 0.0512,0.013 0.11148,0.0113 0.15275,0.0385 0.30515,0.20144 0.67028,0.20673 1.00365,0.31433 0.0755,0.0247 0.1577,0.0328 0.22825,0.0663 0.35349,0.16898 0.73131,0.19191 1.11125,0.1845 0.33408,-0.007 0.67063,-0.0148 1.00083,-0.061 0.36266,-0.0511 0.71508,-0.0603 1.06574,0.0536 0.0737,0.024 0.13723,-0.0205 0.20532,-0.0328 0.11289,-0.0205 0.21625,0.005 0.27235,0.11077 0.0529,0.0995 0.008,0.18733 -0.0674,0.26106 -0.0504,0.0487 -0.0917,0.11324 -0.15099,0.1457 -0.44767,0.24518 -0.73201,0.64734 -1.0361,1.03822 -0.62654,0.80504 -1.38995,1.44886 -2.34703,1.82916 -0.56903,0.22577 -1.17264,0.36971 -1.78047,0.35383 -0.602547,-0.0159 -1.218497,0.0152 -1.807637,-0.18238 -0.149577,-0.0501 -0.306916,-0.0938 -0.463267,-0.10372 -0.386537,-0.0243 -0.73533,-0.17815 -1.090718,-0.30198 -0.674828,-0.23495 -1.343059,-0.48965 -2.009457,-0.74789 -0.328541,-0.127 -0.641774,-0.29139 -0.974971,-0.40922 -0.302332,-0.10654 -0.36449,-0.12065 -0.616411,-0.0861 -0.03842,0.0402 -0.01707,0.0836 -7.94e-4,0.12171 0.24116,0.55845 0.472935,1.12078 0.738471,1.66899 0.211138,0.43604 0.416594,0.87524 0.590902,1.32856 0.08834,0.22966 0.20574,0.44803 0.304834,0.67381 0.04216,0.0963 0.104458,0.0737 0.172932,0.0448 0.235516,-0.0995 0.473641,-0.19332 0.705027,-0.30162 0.139878,-0.0656 0.285785,-0.097 0.434481,-0.10266 0.713705,-0.0265 1.42695,-0.008 2.133002,0.10019 0.313618,0.0483 0.624416,0.10089 0.941562,0.12629 0.208139,0.0166 0.414514,0.0797 0.618064,0.13476 0.48472,0.13124 0.96485,0.27976 1.45133,0.40323 0.4699,0.11888 0.92569,0.28787 1.4037,0.37571 0.0603,0.0113 0.12206,0.025 0.17851,0.0487 0.53904,0.22684 1.11372,0.33196 1.6764,0.47484 0.6992,0.1778 1.40758,0.32209 2.12654,0.40252 0.74401,0.0832 1.48802,0.17109 2.23344,0.24271 0.30621,0.0293 0.61595,0.0155 0.92251,0.0529 0.0921,0.0113 0.17322,0.031 0.23178,0.10618 0.0674,0.0864 0.0914,0.16404 -0.0141,0.24801 -0.29845,0.23812 -0.52353,0.54221 -0.76483,0.83572 -0.31221,0.3803 -0.64029,0.75354 -1.03117,1.05904 -0.49283,0.38524 -0.96343,0.8054 -1.54022,1.06751 -0.83185,0.37782 -1.69298,0.57926 -2.61797,0.45826 -0.4004,-0.0526 -0.80327,-0.1009 -1.21003,-0.11077 -0.25258,-0.006 -0.50623,-0.0787 -0.75106,-0.14147 -0.57115,-0.1464 -1.13347,-0.32244 -1.6824,-0.54857 -0.50094,-0.20637 -0.943678,-0.50341 -1.401936,-0.77717 -0.573263,-0.34254 -1.131782,-0.71049 -1.703105,-1.05692 -0.415607,-0.25188 -0.804368,-0.53798 -1.177255,-0.84808 -0.127741,-0.10654 -0.25467,-0.21519 -0.404318,-0.28469 -0.04974,0.0243 -0.0386,0.0621 -0.02455,0.0914 0.225602,0.46814 0.403508,0.95709 0.630483,1.42558 0.15667,0.32314 0.279331,0.66498 0.418642,0.99695 0.347803,0.82832 0.625899,1.68768 1.071703,2.47438 0.06999,0.12312 0.153001,0.20284 0.293759,0.15593 0.222956,-0.0744 0.459669,-0.0303 0.678392,-0.0801 0.425802,-0.0967 0.859014,-0.067 1.286935,-0.11853 0.45578,-0.0547 0.90804,0.0293 1.36278,0.10407 0.55315,0.091 1.05974,0.31715 1.5882,0.47625 0.33126,0.0998 0.66358,0.23319 0.97402,0.40675 0.26035,0.14605 0.55174,0.22896 0.82338,0.35772 0.43851,0.20779 0.86149,0.44274 1.28658,0.67381 0.272,0.14781 0.56092,0.25752 0.84138,0.38029 0.39511,0.17322 0.78528,0.35948 1.18639,0.52141 0.52458,0.21202 1.06786,0.35666 1.60761,0.51505 0.25259,0.0741 0.51576,0.11183 0.7747,0.16404 0.0684,0.0138 0.14182,0.008 0.20038,0.0572 0.085,0.0709 0.1277,0.15487 0.0448,0.24977 -0.4064,0.46531 -0.81209,0.92922 -1.43157,1.12818 -0.34361,0.11042 -0.67381,0.26035 -1.01071,0.38735 -0.2914,0.10972 -0.60219,0.19368 -0.92428,0.19827 -0.21978,0.003 -0.43956,0.013 -0.65793,0.0335 -0.41381,0.0385 -0.80151,-0.091 -1.19874,-0.16475 -0.44062,-0.0818 -0.84031,-0.24906 -1.21532,-0.49177 -0.13123,-0.085 -0.29492,-0.11712 -0.43568,-0.18944 -0.54892,-0.28152 -1.06609,-0.61736 -1.58573,-0.94827 -0.20215,-0.12876 -0.42369,-0.21555 -0.62936,-0.33514 -0.44027,-0.25576 -0.88829,-0.50764 -1.27423,-0.83432 -0.28081,-0.23777 -0.57785,-0.45967 -0.843139,-0.71649 -0.2159,-0.2092 -0.458964,-0.38558 -0.688268,-0.57856 -0.116771,-0.0988 -0.26388,-0.13335 -0.385588,-0.21096 -0.08043,0.0706 -0.02363,0.12559 2.65e-4,0.17322 0.34572,0.69462 0.696735,1.38606 1.111953,2.04293 0.11783,0.18627 0.236007,0.37324 0.335847,0.56939 0.1852,0.36336 0.46178,0.6664 0.65863,1.02164 0.28787,0.51894 0.68051,0.96273 1.02835,1.43933 0.65052,0.89183 1.4037,1.69616 2.10961,2.54071 0.31785,0.37994 0.57856,0.8001 0.84314,1.21603 0.10054,0.15839 0.28751,0.26987 0.28081,0.49353 -0.001,0.0423 0.0674,0.0476 0.10407,0.0702 0.0744,0.0455 0.10442,0.11817 0.10266,0.20178 -0.002,0.1016 -0.10866,0.17886 -0.17992,0.11959 -0.0769,-0.0642 -0.22789,-0.0885 -0.19015,-0.24271 0.0124,-0.0511 -0.019,-0.049 -0.0466,-0.0691 -0.22296,-0.163579 -0.39723,-0.373129 -0.54363,-0.605259 -0.58173,-0.92039 -1.3081,-1.72684 -2.01189,-2.55129 -0.40605,-0.47589 -0.7994,-0.96237 -1.16276,-1.47214 -0.0663,-0.0931 -0.14217,-0.17956 -0.2099,-0.27164 -0.14605,-0.19896 -0.28963,-0.39828 -0.40993,-0.61559 -0.18309,-0.33091 -0.4124,-0.63536 -0.607129,-0.9585 -0.226835,-0.37712 -0.461081,-0.75071 -0.674864,-1.13594 -0.192617,-0.34679 -0.424744,-0.67028 -0.592312,-1.03118 -0.141113,-0.30303 -0.281872,-0.60607 -0.451205,-0.89535 -0.04127,-0.0705 -0.06773,-0.14287 -0.16919,-0.13722 -0.02299,0.001 -0.05207,-0.0145 -0.06999,-0.0314 -0.05457,-0.0512 -0.0678,-0.15417 -0.171307,-0.14358 -0.108974,0.0109 -0.203661,0.066 -0.283176,0.13405 -0.457907,0.39018 -0.987354,0.68086 -1.462511,1.04317 -0.538551,0.41063 -1.119645,0.73695 -1.739088,0.98707 -0.595455,0.24024 -1.176692,0.51047 -1.759198,0.77717 -0.402519,0.1845 -0.799394,0.36724 -1.243965,0.4071 -0.732401,0.0653 -1.456018,0.0413 -2.173992,-0.15875 -0.576968,-0.16051 -1.158381,-0.30691 -1.724484,-0.50306 -0.290759,-0.10054 -0.577673,-0.21837 -0.852981,-0.35525 -0.215124,-0.10653 -0.4312,-0.20072 -0.665057,-0.25117 -0.07137,-0.0152 -0.132821,-0.0402 -0.188912,-0.0864 -0.06562,-0.054 -0.06752,-0.11818 -0.04424,-0.19086 0.02286,-0.072 0.07966,-0.0984 0.144533,-0.0854 0.148026,0.0289 0.279224,-0.0127 0.407494,-0.0776 0.04865,-0.0247 0.09758,-0.0282 0.152823,-0.0243 0.349603,0.0251 0.690951,-0.0533 1.003618,-0.18239 0.404213,-0.16721 0.81153,-0.33725 1.190378,-0.56197 0.355529,-0.21061 0.689151,-0.45473 1.033639,-0.68227 0.551214,-0.36372 1.09929,-0.73978 1.706173,-1.00507 0.442349,-0.19367 0.890905,-0.3937 1.366732,-0.48436 0.525711,-0.10054 1.054594,-0.18415 1.59826,-0.17463 0.789483,0.0138 1.554692,0.1457 2.31535,0.34255 0.339831,0.0878 0.671656,0.19861 1.039744,0.32808 -0.05221,-0.226914 -0.144145,-0.397304 -0.233717,-0.563464 -0.180798,-0.33549 -0.321768,-0.6851 -0.434091,-1.04846 -0.04904,-0.1591 -0.129117,-0.30833 -0.191664,-0.46355 -0.257281,-0.63747 -0.530262,-1.26788 -0.823667,-1.88983 -0.202848,-0.43003 -0.385974,-0.86924 -0.581236,-1.30281 -0.04699,-0.10442 -0.09991,-0.20743 -0.162208,-0.30303 -0.128445,-0.19756 -0.268182,-0.64135 -0.336656,-0.73766 -0.05443,-0.0762 -0.121955,-0.16051 -0.240734,-0.11853 -0.06657,0.0233 -0.133281,0.0476 -0.196638,0.0783 -0.390843,0.18874 -0.796925,0.33655 -1.221248,0.42545 -0.51689,0.10831 -1.036672,0.19474 -1.565839,0.23672 -0.474345,0.0374 -0.948796,0.0818 -1.42367,0.10019 -0.896268,0.0342 -1.797226,0.12135 -2.683051,-0.10619 -0.350837,-0.09 -0.695889,-0.20849 -1.018646,-0.37006 -0.339125,-0.16969 -0.695889,-0.29704 -1.03325,-0.46955 -0.6064613,-0.31045 -1.1979283,-0.63994 -1.6638423,-1.15253 -0.106785,-0.11747 -0.223378,-0.22366 -0.357046,-0.3115 -0.05785,-0.0381 -0.115041,-0.085 -0.155998,-0.14005 -0.08445,-0.11395 -0.03718,-0.22648 0.101564,-0.25718 0.03376,-0.007 0.07193,-0.0116 0.104881,-0.004 0.267476,0.0649 0.542114,0.0201 0.813471,0.0642 0.409539,0.0663 0.82751,0.031 1.2388493,0.001 0.439314,-0.0314 0.879052,-0.0508 1.317943,-0.0804 0.352213,-0.0236 0.703086,-0.0459 1.055581,-0.0328 0.501897,0.018 1.004323,0.0275 1.505373,0.06 0.817174,0.0526 1.633927,0.1143 2.449724,0.1845 0.75491,0.0649 1.468438,0.28469 2.147393,0.61806 0.101706,0.0501 0.201189,0.1016 0.338032,0.12242 -0.01156,-0.15911 -0.0781,-0.28646 -0.134337,-0.40711 -0.289949,-0.62265 -0.559753,-1.25412 -0.864447,-1.87078 -0.17032,-0.34466 -0.307446,-0.71049 -0.467854,-1.06292 -0.08516,-0.18767 -0.09853,-0.20073 -0.298625,-0.16404 -0.186021,0.0342 -0.373981,0.0332 -0.552027,-0.007 -0.3937,-0.0893 -0.790718,-0.0416 -1.185688,-0.0557 -0.484785,-0.018 -0.971761,0.0293 -1.448151,0.0974 -0.43808,0.0624 -0.877676,0.0709 -1.314944,0.1217 -0.385445,0.0448 -0.770714,0.0367 -1.156723,-0.0293 -0.285256,-0.0487 -0.577392,-0.0561 -0.864976,-0.0935 -0.392606,-0.0512 -0.7893403,-0.0631 -1.1791953,-0.13864 -0.280282,-0.0543 -0.534282,-0.16793 -0.792938,-0.28434 -0.465914,-0.21026 -0.897079,-0.48649 -1.364368,-0.69215 -0.147885,-0.0649 -0.270652,-0.16475 -0.385163,-0.27588 -0.555766,-0.53904 -0.989718,-1.16698 -1.345107,-1.85208 -0.04424,-0.0854 -0.06297,-0.16651 0,-0.24659 0.07137,-0.091 0.158892,-0.085 0.26155,-0.0494 0.549416,0.1905 1.109874,0.34149 1.678023,0.46496 0.043,0.009 0.08682,0.0198 0.126223,0.0381 0.197485,0.0917 0.404178,0.0995 0.618878,0.0977 0.459317,-0.004 0.90731,-0.10054 1.361652,-0.14005 0.262361,-0.0229 0.5268033,-0.0377 0.7900113,-0.0328 0.177376,0.003 0.351543,-0.0279 0.52779,-0.0212 0.466055,0.0169 0.927559,0.0762 1.386734,0.15664 0.06036,0.0102 0.12252,0.0116 0.183974,0.0155 0.422769,0.0289 0.836471,0.0963 1.224527,0.27904 0.06364,0.03 0.12954,0.0632 0.197731,0.0741 0.634719,0.10301 1.126702,0.47766 1.619356,0.84878 0.259752,0.19579 0.494842,0.42157 0.763413,0.6089 0.237172,0.16545 0.490855,0.27093 0.770466,0.34078 0.05486,-0.0713 0.0085,-0.13794 -0.01241,-0.19685 -0.09768,-0.27341 -0.214664,-0.54222 -0.294886,-0.81809 -0.110524,-0.38065 -0.230539,-0.75848 -0.337748,-1.13983 -0.202848,-0.72143 -0.41247,-1.4411 -0.603605,-2.1657 -0.114512,-0.43392 -0.230679,-0.86854 -0.289912,-1.31551 -0.03309,-0.24906 -0.08326,-0.28998 -0.342159,-0.29951 -0.05225,-0.002 -0.107773,-0.006 -0.156845,0.008 -0.538514,0.15346 -1.081193,0.11184 -1.625247,0.0416 -0.478049,-0.0614 -0.919692,-0.22683 -1.351597,-0.43674 -0.276437,-0.1344 -0.54543,-0.2868 -0.839752,-0.38558 -0.421147,-0.14147 -0.805075,-0.36795 -1.164731,-0.61736 -0.5723123,-0.39653 -1.1729873,-0.7493 -1.7345383,-1.16241 -0.562363,-0.41416 -1.08712,-0.86818 -1.585842,-1.35537 -0.428837,-0.41875 -0.857426,-0.83785 -1.293989,-1.24848 -0.552168,-0.51964 -1.124338,-1.01529 -1.74692,-1.45062 -0.188948,-0.13229 -0.398533,-0.22507 -0.591185,-0.34819 -0.05182,-0.0328 -0.105692,-0.0635 -0.153529,-0.10125 -0.07454,-0.0593 -0.120579,-0.13653 -0.0762,-0.23107 0.03983,-0.0847 0.121673,-0.0896 0.205458,-0.0801 0.148554,0.0169 0.297391,0.0448 0.446228,0.0452 0.475298,0.002 0.950278,-0.0173 1.425857,0.0113 0.123614,0.007 0.243064,0.036 0.361739,0.0547 0.582224,0.0914 1.178489,0.0797 1.751894,0.22366 0.323991,0.0811 0.64135,0.19298 0.955393,0.30833 0.545571,0.20038 1.089201,0.40676 1.61163,0.66322 0.3794833,0.18592 0.7539213,0.38206 1.1219743,0.59055 0.514421,0.2914 1.012578,0.60396 1.476728,0.97332 0.319546,0.25435 0.599969,0.54539 0.87436,0.84278 0.286632,0.31045 0.526803,0.66746 0.813857,0.97085 0.323003,0.34149 0.601382,0.71261 0.894609,1.07421 0.166195,0.20496 0.290655,0.44238 0.504507,0.65299 -0.02864,-0.32173 -0.09782,-0.60713 -0.151976,-0.895 -0.105974,-0.56338 -0.188664,-1.13171 -0.315981,-1.69016 -0.112607,-0.49283 -0.162068,-0.99483 -0.183976,-1.49119 -0.02014,-0.45967 -0.102129,-0.90946 -0.128021,-1.36595 -0.01394,-0.24554 -0.05789,-0.48966 -0.08061,-0.73484 -0.03722,-0.40111 -0.06865,-0.80257 -0.101422,-1.20403 -0.0051,-0.061 0.0019,-0.12418 -0.0097,-0.1838 -0.02371,-0.12453 -0.06449,-0.14746 -0.184925,-0.0885 -0.559329,0.27446 -1.167341,0.35912 -1.772144,0.38064 -0.797771,0.0286 -1.556349,-0.13511 -2.299969,-0.48507 -0.9723273,-0.45755 -1.6631363,-1.20226 -2.3226543,-1.99601 -0.311468,-0.37465 -0.482459,-0.83856 -0.663963,-1.28694 -0.158609,-0.39193 -0.295169,-0.79304 -0.429119,-1.1945 -0.175965,-0.52705 -0.279612,-1.07351 -0.405412,-1.61396 -0.100048,-0.42933 -0.190994,-0.86007 -0.25467,-1.29681 -0.03528,-0.24201 -0.20574,-0.42651 -0.296122,-0.64594 -0.06036,-0.1464 -0.132433,-0.28786 -0.195545,-0.43321 -0.03641,-0.084 -0.06092,-0.17074 0.03556,-0.23565 0.08322,-0.0565 0.162878,-0.0473 0.245816,0.007 0.08378,0.0547 0.143863,0.12453 0.191699,0.21273 0.271604,0.49953 0.586917,0.96308 1.08204,1.27387 0.05154,0.0325 0.09645,0.0776 0.139453,0.12171 0.245569,0.25153 0.569948,0.37642 0.868857,0.54222 0.01542,0.008 0.03348,0.0134 0.04727,0.0236 0.549557,0.4191 1.175032,0.70414 1.786608,1.01318 0.8157983,0.4124 1.5023393,1.00577 2.2130103,1.56633 0.596829,0.47096 1.142259,0.99731 1.682009,1.53035 0.162066,0.16016 0.305504,0.33902 0.480801,0.53552 0.0521,-0.24695 0.05292,-0.47131 0.04519,-0.69004 -0.01484,-0.4258 0.04755,-0.84419 0.09236,-1.26365 0.04586,-0.42897 0.111056,-0.85619 0.165348,-1.28411 0.01215,-0.0963 0.01765,-0.19367 -0.0303,-0.28504 -0.201753,-0.38417 -0.423191,-0.76094 -0.763445,-1.0347 -0.344629,-0.27728 -0.649888,-0.59513 -0.981569,-0.88476 -0.636799,-0.55563 -1.149139,-1.21356 -1.608314,-1.917 -0.388867,-0.59619 -0.64382,-1.24989 -0.854393,-1.92652 -0.173072,-0.55668 -0.298873,-1.12395 -0.4276013,-1.69086 -0.183551,-0.80822 -0.268711,-1.63019 -0.338843,-2.45498 -0.06505,-0.76482 -0.05073,-1.53141 -0.09028,-2.29659 -0.0067,-0.13158 -0.04106,-0.2614 -0.05553,-0.39264 -0.0109,-0.0984 -0.01214,-0.20355 0.10721,-0.24165 0.111901,-0.036 0.183127,0.0254 0.23495,0.1203 0.2538593,0.46567 0.5625393,0.89499 0.8869183,1.31268 0.340642,0.43851 0.734201,0.83715 1.030217,1.30916 0.45847,0.73166 0.98171,1.42275 1.359429,2.20486 0.172403,0.35666 0.378566,0.69709 0.552309,1.05304 0.123472,0.25295 0.228494,0.51647 0.324133,0.78176 0.302189,0.83749 0.600673,1.67675 0.891715,2.51848 0.155434,0.44979 0.178895,0.91475 0.100896,1.38289 -0.05101,0.30586 -0.05002,0.61242 -0.02384,0.92533 0.06131,-0.24729 0.128836,-0.49318 0.182986,-0.74189 0.148272,-0.68121 0.355811,-1.34443 0.561694,-2.01012 0.227119,-0.73343 0.545288,-1.43158 0.787964,-2.159 0.135466,-0.4064 0.372885,-0.77788 0.556188,-1.16911 0.239501,-0.51153 0.54088,-0.98884 0.815801,-1.48061 0.198437,-0.35489 0.459986,-0.6671 0.683365,-1.00506 0.0339,-0.0515 0.07606,-0.0977 0.106363,-0.15134 0.04149,-0.073 0.02469,-0.1397 -0.05003,-0.17957 -0.302755,-0.16263 -0.600675,-0.33619 -0.912672,-0.47872 -0.257387,-0.11747 -0.503801,-0.24588 -0.739563,-0.40322 -0.263065,-0.17568 -0.543383,-0.32597 -0.81968,-0.48084 -0.08583,-0.0483 -0.172508,-0.0952 -0.232727,-0.17145 -0.289417,-0.36583 -0.58829,-0.72601 -0.726228,-1.18568 -0.09938,-0.33091 -0.2661,-0.6343 -0.402802,-0.94968 -0.08146,-0.18768 -0.146897,-0.37783 -0.174625,-0.58032 -0.05373,-0.393 -0.130633,-0.78246 -0.164677,-1.17863 -0.01185,-0.13864 -0.03376,-0.27975 -0.08488,-0.41346 -0.02466,-0.0653 -0.04149,-0.13687 -0.04452,-0.20637 -0.02315,-0.54504 -0.122626,-1.08409 -0.12125,-1.63089 5.29e-4,-0.23883 0.0091,-0.47555 0.05842,-0.7105 0.03073,-0.14605 0.06865,-0.29245 0.06244,-0.44415 -0.003,-0.073 0.0088,-0.14181 0.05842,-0.1979 0.175014,-0.19721 0.253437,-0.4378 0.315278,-0.68721 0.05059,-0.20391 0.186867,-0.25224 0.345088,-0.1143 0.112569,0.0981 0.208772,0.21484 0.313902,0.32173 0.612526,0.62265 1.172702,1.29081 1.678305,2.00096 0.428447,0.60219 0.841867,1.21179 1.155768,1.89194 0.22324,0.48331 0.385022,0.98178 0.563351,1.47814 0.220345,0.61383 0.381037,1.24495 0.53467,1.87678 0.09811,0.40358 0.11095,0.82021 0.09867,1.23543 -0.0013,0.0445 -0.0092,0.0882 0.04039,0.14534 0.136562,-0.0924 0.236186,-0.22542 0.330589,-0.35595 0.433917,-0.59972 0.873654,-1.19733 1.392626,-1.72544 0.475721,-0.48401 0.892985,-1.02094 1.38384,-1.48943 0.426791,-0.40781 0.857533,-0.81174 1.28651,-1.21708 0.01905,-0.018 0.0381,-0.0367 0.05856,-0.0533 0.08431,-0.0691 0.107243,-0.13652 0.0049,-0.21202 -0.04904,-0.0367 -0.08608,-0.09 -0.136171,-0.12488 -0.344313,-0.24165 -0.660754,-0.52035 -1.049303,-0.70274 -0.366853,-0.1725 -0.669324,-0.45472 -1.001289,-0.6865 -0.56402,-0.3937 -1.060945,-0.87066 -1.601682,-1.29258 -0.298344,-0.23283 -0.597535,-0.46531 -0.884166,-0.7112 -0.411763,-0.35313 -0.739317,-0.77823 -0.970809,-1.27282 -0.01503,-0.0318 -0.02275,-0.0677 -0.04068,-0.0974 -0.40086,-0.67169 -0.668195,-1.39664 -0.876829,-2.147 -0.148836,-0.53517 -0.182737,-1.07492 -0.09274,-1.62102 0.02011,-0.12206 0.04671,-0.2413 0.04452,-0.36547 -0.0016,-0.10019 0.0058,-0.20179 0.120825,-0.23919 0.115218,-0.0378 0.217453,0.006 0.277672,0.10125 0.09056,0.14393 0.233997,0.23883 0.327977,0.37783 0.02426,0.036 0.05362,0.0713 0.08781,0.0977 0.431445,0.33514 0.872418,0.66287 1.366871,0.89324 0.739035,0.34466 1.420884,0.77717 2.075321,1.25624 0.32191,0.23566 0.683225,0.40005 1.025668,0.59761 0.168804,0.097 0.331821,0.19826 0.480695,0.31996 0.361243,0.29528 0.714726,0.59831 0.954968,1.00965 0.04022,0.0684 0.07902,0.13582 0.112535,0.20814 0.416984,0.90594 0.647002,1.86232 0.779992,2.84551 0.0261,0.19191 0.006,0.38876 0.0589,0.57785 0.007,0.0243 0.0222,0.0462 0.0356,0.073 0.0878,-7.9e-4 0.15098,-0.0504 0.20426,-0.10618 0.54504,-0.57044 1.20967,-0.99554 1.81045,-1.49825 0.43991,-0.36795 0.89817,-0.71049 1.37477,-1.02976 0.1016,-0.0681 0.18169,-0.16722 0.27799,-0.24377 0.3101,-0.24588 0.6223,-0.4893 0.93557,-0.73095 0.17745,-0.13653 0.2092,-0.28399 0.0818,-0.47414 -0.10795,-0.16086 -0.22083,-0.31926 -0.34184,-0.47096 -0.14852,-0.18591 -0.29951,-0.369 -0.43427,-0.5662 -0.12594,-0.18486 -0.3369,-0.28117 -0.502,-0.42651 -0.16475,-0.14535 -0.35454,-0.26247 -0.5207,-0.4064 -0.29492,-0.25506 -0.62441,-0.46073 -0.94227,-0.68192 -0.33796,-0.23566 -0.60678,-0.53481 -0.87136,-0.84173 -0.35101,-0.4071 -0.70379,-0.81315 -1.04846,-1.2252 -0.25999,-0.31079 -0.484713,-0.64417 -0.693557,-0.99342 -0.23989,-0.40146 -0.48119,-0.79974 -0.679098,-1.22414 -0.267052,-0.57326 -0.428625,-1.17334 -0.471662,-1.8034 -0.01236,-0.18379 -0.05045,-0.363 -0.04692,-0.55139 0.0074,-0.36689 0.09102,-0.71684 0.18415,-1.06539 0.07091,-0.26423 0.144639,-0.52705 0.197556,-0.79586 0.0099,-0.0515 0.02045,-0.10549 0.04586,-0.15029 0.08925,-0.15769 0.255765,-0.16545 0.359482,-0.0148 0.05503,0.0794 0.09666,0.16792 0.142168,0.25364 0.11924,0.22578 0.235657,0.45297 0.357013,0.67769 0.03316,0.0614 0.07197,0.12277 0.121002,0.1718 0.572206,0.57397 1.116896,1.17122 1.632306,1.79846 0.32314,0.393 0.67804,0.76271 0.98601,1.16735 0.34608,0.45508 0.70097,0.90487 1.01106,1.38712 0.12383,0.19226 0.28928,0.35207 0.42263,0.53904 0.26105,0.36654 0.52282,0.7299 0.72884,1.13206 0.13335,0.26071 0.2413,0.52917 0.32702,0.80751 0.1457,0.47132 0.39758,0.90312 0.51612,1.3836 0.11042,0.44556 0.18415,0.89641 0.10371,1.35749 -0.003,0.0176 -0.0138,0.0356 -0.0106,0.0515 0.0233,0.12665 -0.0314,0.29845 0.0882,0.36724 0.10654,0.0614 0.19862,-0.0808 0.28611,-0.14534 0.34748,-0.25682 0.7119,-0.49706 1.02729,-0.78916 0.48613,-0.4505 1.02623,-0.83291 1.51624,-1.27706 0.27375,-0.248 0.57079,-0.4706 0.8456,-0.7172 0.32809,-0.29421 0.64982,-0.59584 0.96309,-0.90628 0.36265,-0.35948 0.7112,-0.73343 1.06962,-1.0975 0.2607,-0.26493 0.24906,-0.29139 -0.0825,-0.43638 -0.93662,-0.40993 -1.89759,-0.76129 -2.82787,-1.18745 -0.33619,-0.15417 -0.6932,-0.25929 -1.02305,-0.43215 -0.45262,-0.23707 -0.93874,-0.42052 -1.36384,-0.69815 -0.75636,-0.49354 -1.41676,-1.0982 -1.87607,-1.89794 -0.15805,-0.27517 -0.3235,-0.54399 -0.45967,-0.83256 -0.21837,-0.46284 -0.27658,-0.94121 -0.20779,-1.44286 0.0204,-0.14782 0.0254,-0.2981 0.0325,-0.44768 0.003,-0.0716 0.0141,-0.14005 0.0392,-0.20672 0.0631,-0.16616 0.13087,-0.20003 0.27692,-0.10372 0.16123,0.10619 0.31221,0.2293 0.45932,0.35489 0.27482,0.23425 0.56233,0.45332 0.80151,0.72955 0.16369,0.18873 0.40958,0.26917 0.61525,0.40358 0.47237,0.30868 0.96449,0.58561 1.47884,0.81527 0.5327,0.23741 1.03541,0.52846 1.54587,0.80503 0.58244,0.31609 1.1236,0.69533 1.5935,1.1677 0.0311,0.031 0.0628,0.0646 0.0829,0.10266 0.24236,0.46284 0.60749,0.84067 0.88406,1.28164 0.22825,0.36336 0.508,0.69532 0.7165,1.0735 0.0557,0.10089 0.115,0.10125 0.18238,0.0236 0.17322,-0.19967 0.34537,-0.4004 0.514,-0.60431 0.42686,-0.51611 0.83785,-1.04457 1.2312,-1.58715 0.2226,-0.30691 0.45296,-0.60819 0.67945,-0.91228 0.0261,-0.0356 0.0522,-0.0716 0.0741,-0.10971 0.13299,-0.2339 0.11042,-0.3108 -0.1203,-0.44345 -0.13088,-0.0755 -0.26811,-0.12523 -0.41592,-0.16263 -0.28117,-0.0716 -0.55104,-0.16968 -0.8121,-0.30938 -0.26987,-0.14429 -0.57432,-0.22331 -0.86184,-0.3362 -0.3944,-0.15487 -0.76693,-0.35595 -1.14123,-0.55315 -0.64876,-0.34149 -1.264,-0.73766 -1.8482,-1.17828 -0.30798,-0.23248 -0.57891,-0.51365 -0.87313,-0.76518 -0.43321,-0.37077 -0.77435,-0.82091 -1.08161,-1.29293 -0.2974,-0.45684 -0.58809,-0.92181 -0.76765,-1.44356 -0.0286,-0.0833 -0.0614,-0.16546 -0.0991,-0.24518 -0.33373,-0.70556 -0.36125,-1.42382 -0.0988,-2.15689 0.0504,-0.14111 0.0935,-0.28504 0.139,-0.42792 0.09,-0.28116 0.24659,-0.51788 0.42439,-0.75459 0.24447,-0.32561 0.51964,-0.62195 0.77964,-0.93204 0.0741,-0.0889 0.14922,-0.17533 0.25259,-0.23001 0.15381,-0.0815 0.24553,-0.0543 0.32385,0.0977 0.22119,0.43074 0.45049,0.85619 0.75353,1.23684 0.12171,0.15275 0.19262,0.3362 0.29845,0.49777 0.33232,0.50765 0.70026,0.99166 1.05763,1.48061 0.38205,0.52352 0.7694,1.05198 1.24036,1.50636 0.0504,0.0487 0.10972,0.0878 0.16087,0.13582 0.4819,0.45191 0.9398,0.92357 1.3328,1.45909 0.14992,0.20425 0.32385,0.39052 0.44943,0.61418 0.24413,0.43462 0.57574,0.8121 0.76588,1.28658 0.11184,0.2787 0.23672,0.56409 0.41558,0.82092 0.13335,0.1912 0.20461,0.42615 0.30303,0.6417 0.0293,0.0642 0.0515,0.13194 0.0857,0.19297 0.0462,0.0811 0.10865,0.0871 0.16616,0.0113 0.0797,-0.10548 0.15733,-0.21308 0.23142,-0.32244 0.3496,-0.51929 0.70132,-1.03681 1.04528,-1.55928 0.22754,-0.34607 0.4452,-0.6992 0.66392,-1.05092 0.0956,-0.15381 0.13018,-0.30657 -0.0208,-0.45544 -0.12665,-0.12488 -0.1718,-0.30304 -0.28504,-0.44274 -0.46602,-0.57573 -1.00366,-1.08867 -1.45168,-1.67957 -0.39935,-0.5274 -0.85725,-1.00436 -1.2954,-1.4986 -0.46003,-0.51894 -0.80046,-1.11548 -1.07739,-1.74801 -0.0924,-0.21167 -0.0977,-0.44909 -0.12276,-0.67452 -0.0635,-0.56373 -0.0166,-1.12042 0.16721,-1.6658102 0.14358,-0.42651 0.28681,-0.85125 0.47378,-1.26153 0.10619,-0.23354 0.25788,-0.44274 0.36619,-0.67064 0.16122,-0.33972 0.39934,-0.64558 0.47731,-1.02411 0.0141,-0.0688 0.0286,-0.13864 0.0529,-0.20461 0.0314,-0.0857 0.0794,-0.15522 0.18839,-0.15663 0.10865,-0.001 0.18944,0.031 0.22718,0.14005 0.12418,0.35772 0.28928,0.69991 0.40147,1.06257 0.13758,0.44661 0.3436,0.86465 0.53728,1.28905 0.21307,0.46743 0.50658,0.88582 0.74471,1.3373802 0.242,0.45967 0.48965,0.9144 0.69003,1.39488 0.11042,0.26494 0.13829,0.54575 0.22119,0.81492 0.12736,0.41204 0.27129,0.81773 0.41028,1.2259 0.21661,0.63676 0.37536,1.2834 0.33126,1.96532 -0.01,0.14358 -0.0279,0.29351 0.0504,0.4565 0.14534,-0.17357 0.24236,-0.34678 0.34572,-0.51859 0.41064,-0.68333 0.65405,-1.41887 0.75812,-2.2098 0.1143,-0.86818 0.34537,-1.71097 0.63712,-2.53576 0.13864,-0.393 0.37994,-0.7355402 0.56973,-1.1034902 0.20673,-0.40111 0.46073,-0.77541 0.73131,-1.13171 0.30269,-0.39793 0.64841,-0.76588 1.05128,-1.07386 0.38453,-0.29421 0.77576,-0.57855 1.17934,-0.84561 0.09,-0.0593 0.15769,-0.1404 0.24412,-0.20073 0.17145,-0.11994 0.25788,-0.0889 0.3369,0.10407 0.0744,0.18168 0.0547,0.37712 0.0998,0.56515 0.10865,0.45368 0.25576,0.89853 0.3242,1.36278 0.11465,0.77894 0.18239,1.54552 -10e-4,2.3336302 -0.19226,0.8255 -0.52705,1.56598 -1.04739,2.22426 -0.35737,0.45226 -0.79834,0.81915 -1.26754,1.15182 -0.33161,0.2346 -0.67415,0.45473 -1.04633,0.61736 -0.33832,0.14782 -0.69145,0.26176 -1.03576,0.39617 -0.28681,0.11183 -0.58208,0.19897 -0.86536,0.32385 -0.23425,0.10337 -0.30904,0.30198 -0.37748,0.51047 -0.031,0.0949 0.0314,0.14711 0.13829,0.12559 0.0773,-0.0159 0.15099,-0.048 0.22613,-0.0734 0.31609,-0.10759 0.63888,-0.19156 0.96026,-0.28187 0.34714,-0.0974 0.69604,-0.18415 1.05058,-0.23883 0.54857,-0.0854 1.08056,-0.25082 1.63547,-0.30938 0.35772,-0.0374 0.71156,-0.12594 1.06222,-0.21167 0.26529,-0.0649 0.53728,-0.0688 0.80398,-0.11783 0.242,-0.0444 0.49142,-0.0462 0.73095,-0.11253 0.24836,-0.0684 0.50624,-0.072 0.75918,-0.0938 0.76412,-0.0663 1.51554,-0.21908 2.27683,-0.30516 0.49636,-0.0564 0.99977,-0.12417 1.45309,-0.36865 0.0307,-0.0166 0.0646,-0.0321 0.0984,-0.037 0.10548,-0.0152 0.21801,-0.0349 0.2794,0.0854 0.061,0.11854 -0.0325,0.17251 -0.10619,0.23707 -0.24589,0.21519 -0.49812,0.42545 -0.60572,0.75283 -0.0205,0.0628 -0.0702,0.11042 -0.13794,0.10583 -0.14781,-0.01 -0.21378,0.096 -0.29845,0.18627 -0.65651,0.70167 -1.32362,1.39241 -2.14594,1.90747 -0.23284,0.14605 -0.48648,0.25047 -0.73801,0.35665 -0.47026,0.19827 -0.92746,0.42757 -1.42452,0.56163 -0.82938,0.22436 -1.66829,0.24624 -2.51601,0.15416 -0.42157,-0.0455 -0.83256,-0.14781 -1.24954,-0.21731 -0.0346,-0.006 -0.0691,-0.0219 -0.10336,-0.0212 -0.6403,0.0183 -1.24637,-0.21731 -1.87996,-0.24871 -0.19367,-0.01 -0.3877,-0.0303 -0.58102,-0.0264 -0.20638,0.004 -0.38347,0.11747 -0.5708,0.19014 -0.0903,0.0353 -0.17427,0.0995 -0.2667,0.11325 -0.22895,0.0342 -0.34325,0.18626 -0.45014,0.36688 -0.20673,0.34855 -0.41522,0.69639 -0.63888,1.034 -0.20885,0.31538 -0.44203,0.61454 -0.65687,0.92639 -0.0773,0.11183 -0.13194,0.23989 -0.21731,0.39864 0.31785,-0.10901 0.57361,-0.24377 0.8449,-0.34114 0.58067,-0.20814 1.17298,-0.30409 1.78788,-0.26317 0.29033,0.0191 0.58137,0.01 0.87171,0.0194 0.44133,0.0145 0.87524,0.0642 1.31022,0.13547 0.47731,0.0783 0.95955,0.12524 1.43439,0.22049 0.56162,0.11218 1.12219,0.22824 1.68381,0.34113 0.59584,0.1203 1.19098,0.24236 1.79529,0.31856 0.6992,0.0882 1.39417,0.20885 2.09655,0.27094 0.46426,0.0409 0.92957,0.0723 1.39453,0.10724 0.2286,0.0169 0.45685,0.0353 0.6858,0.048 0.10478,0.006 0.19615,0.0332 0.23495,0.13723 0.037,0.0984 -0.0236,0.16757 -0.0945,0.22648 -0.18521,0.15452 -0.29139,0.37253 -0.44097,0.55563 -0.47872,0.58737 -0.95462,1.17616 -1.53423,1.66969 -0.24342,0.20673 -0.52423,0.36054 -0.81986,0.47696 -0.26987,0.10619 -0.54927,0.1905 -0.82832,0.26988 -0.29916,0.0854 -0.61136,0.0794 -0.91899,0.096 -0.57996,0.031 -1.15993,0.01 -1.7406,0.002 -0.89782,-0.0116 -1.76601,-0.20144 -2.63031,-0.40781 -0.4438,-0.10584 -0.89676,-0.19191 -1.32045,-0.37359 -0.45403,-0.19438 -0.90205,-0.40146 -1.30634,-0.68827 -0.18803,-0.13335 -0.3817,-0.24977 -0.59196,-0.34643 -0.26352,-0.121 -0.52669,-0.25082 -0.76941,-0.40887 -0.35348,-0.23001 -0.75,-0.3489 -1.13665,-0.49565 -0.078,-0.0296 -0.15416,-0.0229 -0.23424,-0.0106 -0.14781,0.0229 -0.26846,-0.008 -0.37006,-0.14146 -0.13159,-0.17251 -0.26953,-0.16722 -0.41134,0.006 -0.139,0.17039 -0.26212,0.35384 -0.39335,0.53093 -0.34643,0.46743 -0.67945,0.94544 -1.04528,1.39735 -0.21625,0.2667 -0.42898,0.53693 -0.64805,0.80187 -0.0339,0.0406 -0.066,0.0825 -0.0977,0.12523 -0.0212,0.0286 -0.0392,0.0614 -0.0215,0.0974 0.0187,0.037 0.0554,0.0384 0.091,0.0335 0.0787,-0.0116 0.15699,-0.0243 0.2353,-0.0363 0.58773,-0.0907 1.17193,-0.0917 1.76001,0.0166 1.17369,0.2166 2.2158,0.7306 3.21134,1.36525 0.89111,0.56797 1.73461,1.20826 2.64407,1.74942 0.17321,0.10266 0.33514,0.2286 0.48683,0.3616 0.47131,0.4131 1.03329,0.6731 1.58997,0.93522 0.31115,0.1464 0.59478,0.33796 0.91052,0.47695 0.45015,0.19826 0.88865,0.42439 1.3402,0.62124 0.25083,0.10972 0.48825,0.24236 0.72567,0.37712 0.0783,0.0445 0.12276,0.1009 0.10301,0.19191 -0.0183,0.0861 -0.0751,0.13618 -0.16122,0.15487 -0.52423,0.1136 -1.02129,0.31927 -1.53811,0.45685 -0.18592,0.0494 -0.37853,0.0822 -0.57009,0.0995 -0.71226,0.0632 -1.42628,0.061 -2.13748,-0.0123 -0.60502,-0.0624 -1.20192,-0.17569 -1.79882,-0.29351 -0.67486,-0.13335 -1.34831,-0.26988 -1.99284,-0.51823 -0.64064,-0.24695 -1.27529,-0.50695 -1.87113,-0.85196 -0.0381,-0.0219 -0.084,-0.0349 -0.11501,-0.0639 -0.37112,-0.34361 -0.83819,-0.55916 -1.21179,-0.89289 -0.36018,-0.32208 -0.72848,-0.63817 -1.0488,-1.00541 -0.43639,-0.50059 -0.76059,-1.07492 -1.10067,-1.63865 -0.11007,-0.18274 -0.28469,-0.31151 -0.38418,-0.50271 -0.0459,-0.0885 -0.12206,-0.0423 -0.17498,0.0116 -0.16086,0.16369 -0.32137,0.32738 -0.47801,0.49495 -0.78387,0.83855 -1.63019,1.61325 -2.5086,2.34808 -0.5401,0.45191 -1.07315,0.9137 -1.62701,1.35009 -0.15029,0.11853 -0.28858,0.25258 -0.46849,0.41133 0.27905,0.0138 0.508,-0.0388 0.73871,-0.0543 0.66993,-0.0459 1.3388,-0.0561 2.00237,0.066 0.40746,0.0751 0.81457,0.15275 1.2192,0.24059 0.17992,0.0388 0.35525,0.10301 0.53093,0.16087 0.62689,0.20567 1.26295,0.38735 1.85773,0.68121 0.17498,0.0864 0.36901,0.11924 0.55069,0.18591 0.57855,0.21238 1.15605,0.42934 1.72931,0.65652 0.54046,0.21379 1.08656,0.40817 1.64712,0.56233 0.25471,0.0702 0.50095,0.17145 0.75212,0.254 0.72849,0.23919 1.47638,0.41452 2.1964,0.68192 0.0811,0.0303 0.17321,0.0307 0.25858,0.0512 0.11466,0.0272 0.19227,0.10019 0.19333,0.21978 7.9e-4,0.11572 -0.0861,0.16052 -0.18944,0.18557 -0.9458,0.2286 -1.82493,0.64417 -2.73544,0.9726 -0.61701,0.22261 -1.25625,0.33408 -1.90959,0.399 -0.94827,0.0942 -1.88277,0.0176 -2.8134,-0.15029 -0.33267,-0.06 -0.62724,-0.23213 -0.92252,-0.39123 -0.51999,-0.27975 -1.04422,-0.55245 -1.55575,-0.84702 -0.2741,-0.15769 -0.52564,-0.35313 -0.79798,-0.51611 -0.60501,-0.36266 -1.23013,-0.68721 -1.85843,-1.00648 -0.38488,-0.19544 -0.774,-0.38276 -1.15218,-0.59019 -0.25117,-0.13829 -0.52422,-0.20497 -0.79022,-0.29704 -0.0508,-0.0177 -0.0995,-0.0183 -0.15381,-2.7e-4 -0.35207,0.11536 -0.35278,0.11395 -0.50976,-0.21025 -1.61749,1.21497 -3.25967,2.3883 -4.72899,3.78601 0.33126,-0.0818 0.66393,-0.0991 0.9906,-0.15311 0.46108,-0.0765 0.9144,-0.0261 1.36843,0.0303 0.52564,0.0656 1.03928,0.18486 1.5374,0.37183 0.31539,0.11853 0.60572,0.28681 0.91229,0.42087 0.56761,0.2487 1.05021,0.64311 1.60196,0.91757 0.32491,0.16122 0.62442,0.3616 0.9211,0.56903 0.13476,0.0945 0.30586,0.13547 0.45156,0.21661 0.40852,0.22648 0.80786,0.47025 1.22908,0.67345 0.43638,0.21061 0.86642,0.43462 1.31268,0.62547 0.51012,0.21837 1.01283,0.45615 1.52788,0.66181 0.44239,0.1771 0.89147,0.3362 1.31692,0.55351 0.10196,0.0519 0.2025,0.10689 0.30057,0.16616 0.073,0.0437 0.11677,0.11007 0.0959,0.19967 -0.0229,0.0984 -0.0991,0.16263 -0.19014,0.15417 -0.21872,-0.0201 -0.42157,0.003 -0.60502,0.13229 -0.013,0.009 -0.0353,0.0148 -0.0508,0.0113 -0.24483,-0.0586 -0.47378,0.037 -0.69991,0.0921 -0.49988,0.12206 -1.01282,0.0977 -1.51553,0.17463 -0.52917,0.0811 -1.0541,0.0279 -1.57727,-0.0561 -0.20214,-0.0325 -0.38841,-0.11782 -0.57856,-0.18661 -0.6477,-0.23354 -1.29751,-0.46144 -1.93604,-0.71791 -0.44873,-0.18027 -0.88477,-0.39511 -1.31833,-0.61066 -0.32315,-0.16051 -0.63183,-0.34995 -0.94933,-0.5214 -0.42121,-0.22754 -0.76341,-0.56762 -1.1751,-0.80963 -0.48577,-0.28575 -0.93204,-0.63323 -1.4284,-0.90593 -0.24306,-0.13335 -0.44414,-0.34325 -0.66357,-0.51929 -0.19967,-0.16016 -0.40076,-0.31715 -0.64664,-0.40534 -0.13159,-0.0469 -0.25153,-0.0878 -0.40535,-0.0677 -0.17568,0.0229 -0.340778,-0.0871 -0.458253,-0.22049 -0.07373,-0.084 -0.125587,-0.0801 -0.196144,-0.0219 -0.08114,0.0677 -0.161573,0.13723 -0.238125,0.21026 -0.471665,0.45085 -0.950031,0.89535 -1.410301,1.35748 -0.298201,0.29987 -0.559223,0.63606 -0.854815,0.93839 -0.444006,0.45403 -0.853546,0.93628 -1.239801,1.43898 -0.143864,0.18733 -0.280318,0.3803 -0.42926,0.58315 0.115322,0.0825 0.223377,0.0388 0.316654,0.0212 0.398674,-0.0759 0.802708,-0.0624 1.180994,0.0462 0.368194,0.10583 0.752827,0.17003 1.100206,0.35842 0.285398,0.15451 0.605015,0.23671 0.900642,0.37853 0.480131,0.23001 0.927806,0.50694 1.349373,0.8255 0.36654,0.27693 0.77611,0.48718 1.1363,0.77223 0.15134,0.11994 0.3235,0.21414 0.47378,0.33549 0.37359,0.30268 0.80574,0.50412 1.22449,0.72849 0.74613,0.39934 1.51342,0.75424 2.29517,1.07773 0.86325,0.35701 1.73567,0.68933 2.61656,0.99872 0.15028,0.0529 0.30092,0.10512 0.42968,0.20143 0.1397,0.10407 0.13688,0.23883 -0.0215,0.3041 -0.46496,0.19156 -0.86642,0.50553 -1.34796,0.66957 -0.49177,0.16722 -0.98355,0.26035 -1.50319,0.20532 -1.03434,-0.10972 -2.06445,-0.25436 -3.0607,-0.55387 -0.76729,-0.23071 -1.52541,-0.50235 -2.23873,-0.87806 -0.18062,-0.0949 -0.37253,-0.1591 -0.558444,-0.23989 -0.250119,-0.10865 -0.509059,-0.20531 -0.742596,-0.3436 -0.515056,-0.30516 -1.003125,-0.65123 -1.453197,-1.04846 -0.277956,-0.24518 -0.57023,-0.46955 -0.894504,-0.6544 -0.174873,-0.0995 -0.330872,-0.23283 -0.492231,-0.3549 -0.4221,-0.31961 -0.838271,-0.64523 -1.150797,-1.08232 -0.08696,-0.12171 -0.188243,-0.23354 -0.285821,-0.34713 -0.129117,-0.15064 -0.248425,-0.15134 -0.362831,0.006 -0.139594,0.19262 -0.275061,0.38876 -0.403471,0.58914 -0.452157,0.7052 -0.884555,1.42134 -1.246437,2.17911 -0.510434,1.06821 -0.918315,2.17734 -1.289859,3.29811 -0.185068,0.55845 -0.354156,1.12784 -0.442738,1.71415 -0.02498,0.1651 -0.113559,0.31433 -0.123365,0.47449 0.02442,0.0402 0.05457,0.0367 0.07306,0.0183 0.250507,-0.24765 0.551743,-0.43039 0.829027,-0.64346 0.511386,-0.39265 1.08024,-0.65088 1.737714,-0.69004 0.333338,-0.0201 0.660469,-0.10089 0.997268,-0.10795 0.38047,-0.008 0.756142,0.0261 1.131638,0.0776 0.06079,0.008 0.122381,0.0194 0.183304,0.0176 0.554355,-0.0148 1.078301,0.14923 1.612019,0.26247 0.80405,0.17074 1.544179,0.5401 2.341104,0.73448 0.386647,0.0942 0.773647,0.17321 1.166637,0.22719 0.15063,0.0208 0.30021,0.036 0.39934,0.1711 0.0554,0.0758 0.12277,0.0363 0.19156,0.0307 0.15593,-0.0124 0.25365,0.06 0.26882,0.18521 0.0198,0.16615 -0.0536,0.3055 -0.20779,0.31397 -0.27693,0.0148 -0.47554,0.18274 -0.68439,0.32138 -0.26493,0.17568 -0.4833,0.4071 -0.67627,0.66393 -0.195794,0.2607 -0.389821,0.5274 -0.61948,0.75635 -0.395464,0.3937 -0.842081,0.71226 -1.386768,0.89182 -0.315984,0.10407 -0.631968,0.21661 -0.941176,0.34714 -0.314748,0.13264 -0.647806,0.19508 -1.002242,0.19861 -0.725418,0.007 -1.441839,-0.0617 -2.158859,-0.14993 -0.09797,-0.012 -0.191805,-0.0349 -0.280424,-0.0734 -0.662975,-0.28751 -1.325102,-0.57714 -1.940701,-0.9599 -0.188349,-0.11678 -0.344627,-0.27376 -0.500062,-0.43075 -0.210714,-0.21272 -0.425133,-0.42192 -0.637786,-0.63288 -0.04325,-0.043 -0.08541,-0.10442 -0.153072,-0.0452 -0.04851,0.0423 -0.03267,0.0977 0.0048,0.14147 0.08065,0.0942 0.04921,0.15522 -0.05098,0.20567 -0.06146,0.031 -0.07454,0.0924 -0.08269,0.15628 -0.114794,0.89041 -0.261691,1.77659 -0.261691,2.6797 0,0.3877 -0.0098,0.77505 0.02,1.16205 0.0046,0.0593 -0.0094,0.12453 0.05179,0.18097 0.101426,-0.0145 0.120052,-0.10548 0.156565,-0.18203 0.134231,-0.28011 0.297778,-0.53799 0.532482,-0.74895 0.409964,-0.3683 0.900959,-0.57961 1.419931,-0.72742 0.269521,-0.0766 0.550931,-0.1397 0.829416,-0.1517 0.780272,-0.0339 1.561465,-0.10442 2.33553,0.11077 0.404847,0.11254 0.831215,0.14535 1.246963,0.21661 0.381317,0.0656 0.756814,0.17321 1.141023,0.22331 0.422169,0.0547 0.832099,0.16333 1.232149,0.2928 0.391583,0.12665 0.770112,0.30233 1.138062,0.48895 0.31432,0.15981 0.62441,0.22507 0.9652,0.127 0.27199,-0.0783 0.55809,-0.0723 0.83361,-0.13899 0.23036,-0.0557 0.34608,0.0818 0.28751,0.31467 -0.0236,0.0946 -0.38487,0.95498 -0.43779,1.05622 -0.12982,0.24765 -0.31609,0.44097 -0.54222,0.60466 -0.25682,0.18592 -0.50624,0.38277 -0.74965,0.58597 -0.33902,0.28293 -0.723197,0.45614 -1.153235,0.55421 -0.419804,0.0956 -0.8255,0.24236 -1.268587,0.22543 -0.240702,-0.009 -0.471382,-0.0533 -0.705099,-0.0956 -0.501756,-0.091 -1.004321,-0.1778 -1.505902,-0.26987 -0.199142,-0.0363 -0.396486,-0.0825 -0.594924,-0.12277 -0.06876,-0.0138 -0.138218,-0.0282 -0.207928,-0.0335 -1.040977,-0.0773 -1.996369,-0.36619 -2.826771,-1.03788 -0.417407,-0.33796 -0.905934,-0.57255 -1.446107,-0.67168 -0.106257,-0.0198 -0.21128,-0.007 -0.316407,0 -0.03334,0.002 -0.08393,0.012 -0.09522,0.0342 -0.09825,0.19402 -0.318063,0.31996 -0.27714,0.59301 0.07856,0.52282 0.03736,1.05658 0.125129,1.5801 0.128588,0.76588 0.186584,1.53987 0.237596,2.31351 0.03045,0.45967 0.127987,0.90664 0.199813,1.35855 0.10527,0.66146 0.280001,1.31057 0.371933,1.9752 0.01045,0.0759 0.0077,0.15875 0.06047,0.22296 0.07472,0.0205 0.09468,-0.0374 0.119203,-0.0808 0.108479,-0.18979 0.207679,-0.37747 0.38668,-0.52564 0.08781,-0.0727 0.147744,-0.20814 0.23181,-0.30797 0.265676,-0.31574 0.599969,-0.53869 0.958143,-0.73484 0.557284,-0.30444 1.112062,-0.61348 1.706282,-0.84278 0.47706,-0.18415 0.97536,-0.25295 1.479339,-0.19509 0.436279,0.0501 0.880284,0.0257 1.310216,0.14358 0.254246,0.0699 0.514419,0.11289 0.756074,0.22931 0.109008,0.0526 0.238476,0.0614 0.355245,0.0995 0.570796,0.18521 1.140883,0.37324 1.680637,0.63782 0.44944,0.21978 0.89323,0.45085 1.33844,0.67875 0.054,0.0279 0.10512,0.0645 0.15099,0.10477 0.18591,0.16263 0.37853,0.31538 0.59055,0.44486 0.11959,0.073 0.23953,0.14957 0.31997,0.27199 0.0663,0.10124 0.19014,0.12488 0.27728,0.19826 0.39899,0.33584 0.9084,0.40746 1.3776,0.57502 0.0547,0.0194 0.12171,0.004 0.18309,0.006 0.13476,0.006 0.25223,0.0815 0.25929,0.1778 0.008,0.12207 -0.055,0.20109 -0.17251,0.23213 -0.13617,0.036 -0.2293,0.10972 -0.28857,0.24483 -0.0455,0.10442 -0.14746,0.17392 -0.23672,0.24589 -0.43885,0.35313 -0.9278,0.60854 -1.47496,0.74894 -0.33267,0.0854 -0.66569,0.17004 -0.99836,0.25718 -0.34431,0.09 -0.69779,0.10019 -1.04951,0.11324 -0.43004,0.0155 -0.861136,0.0272 -1.291171,0.0148 -0.771173,-0.0215 -1.543934,-0.0349 -2.311365,-0.10372 -0.647383,-0.0579 -1.291625,-0.16439 -1.925392,-0.32561 -0.739598,-0.18803 -1.43397,-0.48472 -2.114161,-0.82162 -0.165806,-0.0822 -0.334751,-0.15769 -0.502568,-0.2353 -0.255516,-0.11783 -0.520099,-0.21414 -0.770467,-0.34573 -0.155715,-0.0818 -0.211277,-0.03 -0.180268,0.14711 0.10033,0.57327 0.230822,1.13983 0.370276,1.70498 0.181928,0.73695 0.406824,1.4605 0.625227,2.18616 0.0889,0.29528 0.19237,0.58667 0.306882,0.87277 0.07609,0.1898 0.08022,0.39829 0.172685,0.58173 0.01955,0.0388 0.02508,0.085 0.103082,0.11959"
       style="fill:#f9f9f9;fill-opacity:1;fill-rule:nonzero;stroke:none;stroke-width:0.0352777" />
  </g>
</svg>
