<svg xmlns="http://www.w3.org/2000/svg" xmlns:svg="http://www.w3.org/2000/svg" id="svg1" width="300" height="400" version="1.1" viewBox="0 0 79.375 105.833"><title>Hand drawn leaves flowers - Designed by Freepik</title><g id="layer1"><path id="path79" d="m 67.934629,56.470862 c -0.222473,0.498426 -0.465773,0.987875 -0.652732,1.501414 -0.08042,0.220018 -0.220436,0.364522 -0.44985,0.44617 -0.38372,0.137156 -0.767439,0.268607 -1.167903,0.348611 -0.236346,0.04733 -0.469845,0.107383 -0.704976,0.161651 0.46944,-0.348205 0.877656,-0.720086 1.202593,-1.183405 0.209408,-0.297999 0.498832,-0.520066 0.774382,-0.750708 0.19757,-0.166142 0.374336,-0.337584 0.517613,-0.556388 0.137572,-0.209824 0.276765,-0.433523 0.552315,-0.562937 0.06978,0.217994 0.0092,0.413122 -0.0714,0.595592 z m -1.206679,2.65257 c -0.129808,0.355959 -0.384124,0.63313 -0.602107,0.931544 -0.171048,0.233905 -0.39271,0.428618 -0.54374,0.680076 -0.03426,0.05797 -0.100787,0.09547 -0.147374,0.146957 -0.127366,0.14043 -0.249826,0.159616 -0.426175,0.05508 -0.269417,-0.159616 -0.561699,-0.282898 -0.869082,-0.353924 -0.564974,-0.129808 -1.133617,-0.230641 -1.718586,-0.160021 -0.06411,0.0081 -0.137156,0.03182 -0.233083,-0.03552 0.167369,-0.137573 0.331058,-0.226973 0.498832,-0.302893 0.329022,-0.148183 0.647432,-0.313921 0.953588,-0.504965 0.132262,-0.0825 0.293509,-0.128176 0.433928,-0.09303 0.255949,0.06411 0.487816,-0.01041 0.717231,-0.07637 0.246159,-0.07058 0.491496,-0.137156 0.743764,-0.180837 0.344134,-0.05925 0.687434,-0.121246 0.998902,-0.294724 0.05959,-0.03344 0.133083,-0.06942 0.192676,-0.0081 0.0567,0.05797 0.02487,0.132667 0.0012,0.196761 z m -1.933294,2.377439 c -0.418016,0.482909 -0.939714,0.827437 -1.495292,1.126662 -0.09223,0.04976 -0.18859,0.09349 -0.274728,0.151863 -0.196344,0.131844 -0.396784,0.164094 -0.628652,0.09431 -0.368607,-0.111086 -0.758864,-0.10125 -1.135236,-0.173491 -0.65029,-0.124913 -1.317313,-0.09593 -1.967996,-0.230236 -0.266155,-0.05473 -0.547015,-0.07313 -0.833165,-0.02083 0.128582,-0.18329 0.282076,-0.306978 0.459234,-0.391483 0.651518,-0.311467 1.241787,-0.731105 1.880644,-1.065438 0.161653,-0.08447 0.322079,-0.129403 0.497617,-0.133488 0.638036,-0.01423 1.276477,-0.03344 1.914513,-0.03506 0.545372,-0.0012 1.038095,0.231046 1.54468,0.392698 0.17268,0.05508 0.169,0.133072 0.03842,0.28453 z m -4.710385,2.161481 c -0.789483,-0.247374 -1.58386,-0.186137 -2.37988,-0.03066 -0.291461,0.05716 -0.585792,0.10125 -0.877657,0.151435 -0.01874,-0.111432 0.03876,-0.136334 0.08204,-0.171442 0.224937,-0.183291 0.450671,-0.365761 0.674787,-0.551088 0.04617,-0.03796 0.09639,-0.08574 0.153078,-0.05959 0.206549,0.09511 0.3874,-0.01308 0.573942,-0.06283 0.273097,-0.07267 0.544157,-0.09026 0.827865,-0.0567 0.760091,0.09026 1.523041,0.157163 2.284359,0.239621 0.22533,0.02407 0.440871,0.10611 0.672333,0.124092 -0.628651,0.374739 -1.267092,0.649884 -2.010868,0.417195 z m -1.368735,0.987875 c -0.531498,0.172275 -1.0438,0.39271 -1.564282,0.591912 -0.597617,0.22901 -1.191983,0.468631 -1.825529,0.582112 -0.10773,0.0192 -0.258806,0.08412 -0.322484,-0.02858 -0.06491,-0.115482 0.07475,-0.208193 0.147362,-0.287792 0.211457,-0.231047 0.376777,-0.50088 0.619256,-0.707847 0.422507,-0.360044 0.87562,-0.620077 1.450395,-0.664569 0.473931,-0.03714 0.940929,-0.151852 1.413633,-0.211039 0.488638,-0.06121 0.965426,0.03264 1.442631,0.170631 -0.436786,0.252674 -0.8997,0.405347 -1.360982,0.555162 z m -1.307918,-2.695838 c 0.441277,-0.555173 0.847456,-1.143001 1.330366,-1.658982 0.738059,-0.788672 1.500592,-1.565089 2.517453,-2.010854 0.234321,-0.102407 0.479658,-0.180017 0.722541,-0.260438 0.530272,-0.175538 1.059318,-0.354328 1.594078,-0.515576 0.409848,-0.123686 0.829081,-0.215135 1.240155,-0.335547 0.288602,-0.08447 0.567415,-0.202893 0.856018,-0.288198 0.400463,-0.117982 0.775609,-0.29882 1.202189,-0.490674 -0.09917,0.221245 -0.232678,0.344527 -0.386578,0.438012 -0.376372,0.229415 -0.659258,0.556389 -0.91317,0.901738 -0.264117,0.358818 -0.612729,0.607012 -0.986659,0.812347 -0.846634,0.464544 -1.673261,0.968282 -2.550917,1.375272 -0.590698,0.273907 -1.189946,0.529855 -1.75573,0.854386 -0.726211,0.415565 -1.457328,0.822554 -2.172927,1.255256 -0.255948,0.155126 -0.482099,0.365355 -0.706202,0.567831 -0.327808,0.295546 -0.697641,0.539251 -1.029926,0.837655 0.362902,-0.486185 0.664165,-1.010739 1.039309,-1.482228 z m -16.386517,9.327679 c 0.245348,-0.09836 0.382504,0.01678 0.517624,0.208599 0.112705,0.160021 0.19757,0.368214 0.475156,0.340858 0.119614,-0.0118 0.209825,0.13431 0.271466,0.246969 0.373513,0.686208 0.384946,1.369974 -0.01041,2.055361 -0.33719,0.585373 -0.787851,1.062984 -1.351598,1.429566 -0.378825,0.246147 -0.820922,0.311051 -1.257292,0.378409 -0.08042,0.01261 -0.155126,-0.03506 -0.226973,-0.07799 -0.424949,-0.253495 -0.786625,-0.579659 -1.085028,-0.971142 -0.235131,-0.308205 -0.302488,-0.689876 -0.309026,-1.05441 -0.007,-0.412706 -0.01712,-0.836023 0.09593,-1.257303 0.11715,-0.602108 0.555579,-0.958079 1.040942,-1.275263 0.111086,-0.07267 0.185733,-0.03634 0.260438,0.06942 0.155531,0.220841 0.239215,0.230641 0.4768,0.10449 0.280027,-0.149005 0.5768,-0.221257 0.896437,-0.185745 0.06781,0.007 0.144908,0.01227 0.205323,-0.0118 z M 39.57685,64.946189 c -0.03876,-0.658853 -0.07301,-1.325066 -0.170227,-1.976571 -0.11716,-0.784183 -0.136751,-1.572438 -0.211456,-2.357432 -0.007,-0.08089 -0.03714,-0.168595 -0.01632,-0.241668 0.149815,-0.53313 0.09963,-1.085028 0.158794,-1.626718 0.102869,-0.946242 0.149814,-1.89902 0.244515,-2.846892 0.0368,-0.366166 0.04698,-0.736011 0.08656,-1.108703 0.0898,0.02858 0.07753,0.08089 0.08285,0.124914 0.08042,0.671107 0.23799,1.323838 0.419245,1.974938 0.226961,0.816016 0.434737,1.638153 0.598033,2.470911 0.104953,0.535987 0.254316,1.063806 0.317173,1.607547 0.09639,0.82908 0.181254,1.659386 0.271869,2.489288 0.01874,0.175527 0.03263,0.343717 -0.113862,0.486994 -0.09511,0.09269 -0.08818,0.212278 -9.26e-4,0.315553 0.191866,0.227377 0.170644,0.478014 0.135941,0.756006 -0.09431,0.755197 -0.305346,1.481823 -0.520065,2.205175 -0.132667,0.449029 -0.35147,0.872357 -0.558842,1.372821 -0.09963,-0.429033 -0.20044,-0.784588 -0.26208,-1.146264 -0.142468,-0.834797 -0.410659,-1.641428 -0.461272,-2.499899 z m 0.549862,-13.758428 c 0.122865,-0.613956 0.144504,-1.247503 0.315136,-1.855337 0.02453,-0.08771 0.01956,-0.186555 0.150231,-0.297583 0.482505,0.593949 0.866629,1.214431 1.110335,1.983919 -0.349838,-0.114672 -0.577217,-0.344538 -0.869082,-0.442502 -0.07024,-0.02326 -0.133083,-0.145326 -0.207788,-0.06041 -0.08818,0.10044 -0.0058,0.206145 0.07394,0.270239 0.25309,0.204096 0.499237,0.426175 0.779682,0.586184 0.389852,0.222484 0.62253,0.517208 0.732331,0.960937 0.1053,0.426175 0.291877,0.833164 0.458436,1.241785 0.136334,0.333928 0.251042,0.669477 0.313504,1.027473 0.06364,0.36576 0.167774,0.724589 0.259628,1.085039 0.114673,0.45066 0.09269,0.921339 0.175932,1.402212 -0.14124,-0.142062 -0.277587,-0.289829 -0.425354,-0.424949 -0.146146,-0.133892 -0.282076,-0.276359 -0.411884,-0.426174 -0.365761,-0.422913 -0.75235,-0.825817 -1.216896,-1.143001 -0.26819,-0.183292 -0.545372,-0.354329 -0.822958,-0.524151 -0.25758,-0.157162 -0.428618,-0.342085 -0.461284,-0.676406 -0.08736,-0.905822 -0.135107,-1.801854 0.04617,-2.70727 z m 3.482879,6.840428 c 0.08818,0.458841 0.09223,0.92542 0.138788,1.38793 0.0024,0.02291 -0.0024,0.04617 -0.0034,0.06942 -0.01342,0.09511 -0.07475,0.124508 -0.146551,0.07429 -0.104143,-0.07267 -0.200429,-0.15839 -0.291462,-0.246968 -0.400046,-0.388627 -0.776418,-0.799699 -1.158922,-1.205045 -0.421686,-0.446182 -0.900511,-0.838071 -1.35772,-1.249955 -0.115136,-0.103681 -0.214303,-0.209825 -0.247374,-0.368202 -0.09511,-0.454757 -0.232678,-0.900939 -0.264523,-1.367521 -0.0058,-0.08736 -0.05925,-0.200024 0.04733,-0.251459 0.07961,-0.03842 0.152268,0.0331 0.212683,0.08852 0.181243,0.166964 0.39882,0.281266 0.602118,0.415565 0.166143,0.11016 0.313505,0.240442 0.449851,0.382087 0.604559,0.626199 1.201367,1.259746 1.807975,1.883907 0.111085,0.113862 0.181254,0.231868 0.21105,0.387388 z m 0.169822,2.471732 c -0.03472,0.252279 -0.04165,0.508227 -0.05832,0.736427 -0.03957,0.182875 -0.08366,0.204918 -0.215541,0.128987 -0.01041,-0.0058 -0.01956,-0.01261 -0.02904,-0.01956 -0.746205,-0.578444 -1.434045,-1.218111 -2.0382,-1.944727 -0.15758,-0.189413 -0.249017,-0.411896 -0.29882,-0.659267 -0.0678,-0.34086 -0.169,-0.67518 -0.2539,-1.012371 -0.01632,-0.06526 -0.05102,-0.144504 0.03795,-0.181244 0.06005,-0.02487 0.105763,0.02777 0.150637,0.06445 0.251053,0.207777 0.493532,0.425771 0.71111,0.66825 0.536392,0.597614 1.103808,1.162172 1.742249,1.651215 0.193497,0.148183 0.285756,0.31841 0.251875,0.56782 z m -0.154722,1.66266 c -0.04119,0.334322 -0.09963,0.666607 -0.16083,0.998082 -0.03842,0.205739 -0.09349,0.408621 -0.142885,0.612324 -0.01157,0.04455 -0.02164,0.09511 -0.07834,0.102406 -0.05184,0.007 -0.08528,-0.02535 -0.110622,-0.06734 -0.282898,-0.47231 -0.677634,-0.857662 -1.004202,-1.295269 -0.271466,-0.363308 -0.507418,-0.744586 -0.526604,-1.229544 -0.0155,-0.401678 -0.07024,-0.802951 -0.169,-1.198508 0.114673,-0.0155 0.152673,0.04814 0.20044,0.09465 0.317184,0.307799 0.623745,0.62702 0.954398,0.919707 0.292283,0.258401 0.539251,0.578443 0.914813,0.733558 0.161236,0.067 0.137156,0.213088 0.122865,0.329843 z M 43.0981,64.616357 c -0.14573,0.331463 -0.231868,0.68048 -0.320864,1.029103 -0.01041,0.04119 -0.0449,0.07671 -0.06364,0.10773 -0.125318,0.02326 -0.147362,-0.07313 -0.190222,-0.134714 -0.131451,-0.191449 -0.267381,-0.380861 -0.384946,-0.58048 -0.157985,-0.269012 -0.273502,-0.559245 -0.287388,-0.873572 -0.01956,-0.452303 -0.01596,-0.905416 -0.113863,-1.351194 -0.007,-0.02939 0.01435,-0.06445 0.03842,-0.161652 0.424139,0.574776 0.873989,1.059733 1.238107,1.612048 0.07302,0.111086 0.143693,0.217982 0.08447,0.352697 z m -0.666618,1.883896 c -0.02453,0.07719 -0.04085,0.160021 -0.08042,0.229414 -0.301262,0.524567 -0.621697,1.034415 -1.135641,1.384265 -0.0368,0.02487 -0.08007,0.04004 -0.186972,0.09223 0.116756,-0.533535 0.316779,-0.984611 0.470263,-1.444251 0.153494,-0.458841 0.224115,-0.934819 0.332295,-1.478143 0.24329,0.340442 0.432703,0.612312 0.581707,0.912764 0.04976,0.100787 0.05103,0.200429 0.01874,0.303703 z m -13.49104,19.642388 c 0.124096,-0.416015 0.311466,-0.780052 0.79234,-0.877981 0.174312,-0.03552 0.270644,-0.20089 0.446992,-0.255137 0.254733,-0.07869 0.496796,-0.111434 0.746623,-0.01644 0.470679,0.179241 0.84542,0.472021 1.02421,0.957222 0.06978,0.189447 0.141241,0.388614 0.128999,0.605786 -0.679673,-0.15133 -1.344254,-0.140013 -2.008823,-0.03957 -0.289007,0.04374 -0.577214,0.07197 -0.867043,0.03032 -0.275955,-0.03923 -0.342086,-0.138417 -0.263298,-0.404247 z m 3.452668,3.128922 c -0.09511,0.186218 -0.172668,0.380942 -0.235941,0.582145 -0.08412,0.268237 -0.260855,0.472796 -0.517208,0.585051 -0.6111,0.268573 -1.245873,0.358332 -1.839416,0.2282 -0.761725,-0.199341 -1.193205,-0.816433 -1.122177,-1.534925 0.03306,-0.331509 0.029,-0.667843 0.176349,-0.98261 0.0698,-0.149409 0.11838,-0.297547 0.274728,-0.386994 0.08858,-0.05103 0.169,-0.128211 0.231456,-0.210183 0.137567,-0.179704 0.340859,-0.202962 0.531093,-0.282076 0.318398,-0.132666 0.670284,-0.104605 0.982562,-0.279993 0.19513,-0.109813 0.455567,0.0034 0.678053,0.05786 0.234309,0.05751 0.412694,0.187815 0.580885,0.38829 0.478419,0.571015 0.604155,1.160068 0.259616,1.835214 z M 17.879893,84.111002 c -0.181656,-0.283708 -0.327798,-0.489401 -0.449037,-0.708656 -0.112671,-0.204108 -0.23472,-0.402129 -0.34943,-0.604155 -0.349023,-0.613134 -0.794385,-1.142225 -1.310773,-1.621872 -0.471487,-0.438013 -0.727847,-0.980492 -0.687434,-1.64711 0.01836,-0.298808 -0.07348,-0.600891 0.01674,-0.93277 0.223291,0.13594 0.430665,0.277181 0.56864,0.484957 0.135935,0.20493 0.286976,0.394747 0.444138,0.581301 0.280036,0.332366 0.414747,0.753161 0.671103,1.099643 0.270646,0.366293 0.422094,0.798926 0.659264,1.185908 0.167776,0.273953 0.365761,0.437562 0.706618,0.472797 -0.08898,0.556677 -0.172264,1.078906 -0.269829,1.689957 z m -0.253094,2.220601 c -0.0022,0.03344 -0.02816,0.06167 -0.07062,0.06908 -0.08572,-0.0046 -0.100417,-0.08169 -0.130222,-0.141287 -0.342491,-0.686162 -0.63518,-1.394008 -0.924194,-2.10344 -0.250645,-0.615668 -0.537211,-1.207581 -0.997676,-1.701888 -0.192268,-0.206504 -0.332696,-0.448253 -0.292282,-0.752327 0.0028,-0.02279 0.0022,-0.04605 0.0028,-0.06932 0.0053,-0.122957 -0.137568,-0.28542 -0.01308,-0.355103 0.146549,-0.08181 0.224927,0.120713 0.320039,0.204108 0.503737,0.441195 0.878884,0.98526 1.200147,1.567452 0.296774,0.5388 0.616812,1.061688 1.003799,1.541335 0.05552,0.06874 0.09062,0.136022 0.07757,0.22084 -0.0792,0.504675 -0.145733,1.010821 -0.176349,1.5206 z m -0.0551,2.44402 c -0.125728,-0.01782 -0.157979,-0.0832 -0.196758,-0.13998 -0.447811,-0.648693 -0.948282,-1.265946 -1.240153,-2.009676 -0.160836,-0.409813 -0.311876,-0.825816 -0.390254,-1.260195 -0.120014,-0.661596 -0.307792,-1.311874 -0.347388,-1.987957 -0.0045,-0.07799 -0.02857,-0.155983 0.01099,-0.272206 0.23717,0.255462 0.375965,0.529866 0.494345,0.81354 0.294731,0.706572 0.574767,1.419349 0.874393,2.123527 0.09961,0.233453 0.236766,0.45221 0.366578,0.671952 0.373923,0.634322 0.449444,1.32702 0.428215,2.060995 z m -2.561132,-3.202885 c -0.21758,-0.460345 -0.460058,-0.906192 -0.633956,-1.392377 -0.377191,-1.055601 -0.629057,-2.143453 -0.847452,-3.233827 -0.211453,-1.055602 -0.408214,-2.119442 -0.41107,-3.210199 -0.0013,-0.532713 -0.04735,-1.067879 -0.04898,-1.603057 -0.0013,-0.516791 0.09919,-1.016039 0.208189,-1.518146 0.185736,-0.853576 0.515164,-1.660613 0.770708,-2.491729 0.07103,-0.230642 0.201247,-0.444134 0.31065,-0.662533 0.383314,-0.764998 0.824999,-1.498556 1.191166,-2.274974 0.340859,-0.723768 0.742543,-1.420587 1.080543,-2.147203 0.451075,-0.970332 0.855614,-1.959421 1.229947,-2.962003 0.148999,-0.399226 0.338408,-0.783766 0.500061,-1.186671 0.108991,0.344943 0.130629,0.680074 0.133895,1.014408 0.0098,0.995221 -0.125322,1.970449 -0.415152,2.925263 -0.145734,0.479242 -0.327389,0.944598 -0.493941,1.415277 -0.229008,0.64661 -0.479241,1.284646 -0.713965,1.928398 -0.150632,0.413921 -0.316773,0.820101 -0.485773,1.226686 -0.280443,0.674775 -0.531904,1.362198 -0.780096,2.050859 -0.305346,0.847455 -0.513534,1.715728 -0.760502,2.576236 -0.11675,0.406584 -0.163288,0.823374 -0.203291,1.239332 -0.07593,0.799284 -0.133078,1.604283 -0.08613,2.404793 0.07879,1.344622 0.166143,2.690944 0.379637,4.022582 0.07553,0.469441 0.128998,0.941751 0.249013,1.40625 0.07388,0.285745 0.09225,0.590316 0.201656,0.920564 -0.194309,-0.134749 -0.300037,-0.288603 -0.375149,-0.447929 z m 3.667796,-19.021455 c 0.0045,-0.01758 0.03102,-0.02939 0.07266,-0.06654 0.409439,0.539656 0.913175,0.982575 1.281792,1.575296 0.366167,0.589055 0.301262,1.199736 0.376372,1.810024 0.04083,0.33269 0.03634,0.67069 0.08083,1.005429 0.04981,0.376776 -0.0037,0.752338 -0.04409,1.166259 -0.189002,-0.103217 -0.251458,-0.242884 -0.326979,-0.367798 -0.270646,-0.447408 -0.534351,-0.898474 -0.817243,-1.338129 -0.342081,-0.531486 -0.742132,-1.010728 -1.200148,-1.443024 -0.113897,-0.107383 -0.163284,-0.206967 -0.09634,-0.365761 0.271463,-0.642121 0.501696,-1.299353 0.673145,-1.97576 z m 0.343307,-2.460302 c 0.004,-0.04571 0.0073,-0.09349 0.09348,-0.152674 0.559251,1.066664 0.824998,2.199055 1.044209,3.380009 -0.217985,-0.128581 -0.354735,-0.298403 -0.501285,-0.456387 -0.181655,-0.195939 -0.348615,-0.405347 -0.55558,-0.578028 -0.172675,-0.144098 -0.241661,-0.330652 -0.220436,-0.55884 0.05103,-0.544146 0.09348,-1.089113 0.139609,-1.63408 z m 1.097689,10.428224 c -0.0057,0.01597 -0.03634,0.02291 -0.07225,0.04409 -0.143283,-0.137561 -0.199618,-0.329426 -0.265748,-0.508227 -0.169001,-0.459235 -0.377599,-0.901738 -0.555987,-1.356078 -0.20329,-0.518433 -0.550274,-0.942976 -0.83684,-1.407522 -0.07429,-0.119614 -0.201656,-0.191045 -0.302893,-0.286162 -0.141242,-0.132261 -0.329429,-0.217172 -0.395966,-0.428628 -0.04775,-0.152673 -0.235542,-0.124497 -0.362904,-0.201249 0.143283,-0.364535 0.280852,-0.720494 0.423725,-1.074013 0.04083,-0.10125 0.112254,-0.110969 0.187781,-0.02939 0.08695,0.09349 0.182878,0.181255 0.255949,0.285352 0.453118,0.646611 0.956445,1.257292 1.344247,1.952074 0.213087,0.381277 0.407804,0.787851 0.759277,1.078096 0.06532,0.05427 0.104907,0.130618 0.09716,0.215946 -0.05225,0.578027 -0.07226,1.161769 -0.275543,1.715716 z M 19.875245,75.5573 c -0.119605,0.531892 -0.238395,1.064211 -0.394742,1.586718 -0.01347,0.04455 -0.02654,0.08979 -0.04775,0.131035 -0.07756,0.152673 -0.158386,0.160021 -0.242072,0.007 -0.156343,-0.284923 -0.317182,-0.570274 -0.445768,-0.868273 -0.349838,-0.812336 -0.750296,-1.599782 -1.171165,-2.375795 -0.227784,-0.420054 -0.53966,-0.78622 -0.90256,-1.10014 -0.169001,-0.145731 -0.214313,-0.283292 -0.146957,-0.509444 0.175123,-0.591102 0.451074,-1.136069 0.689473,-1.73246 0.424133,0.410253 0.769074,0.799689 1.080132,1.220148 0.420461,0.569464 0.64498,1.232806 0.917664,1.873295 0.204516,0.480469 0.357188,0.984195 0.634365,1.431604 0.0694,0.111895 0.0551,0.221661 0.02939,0.335964 z m -0.792342,2.913415 c -0.401273,0.927055 -0.490264,1.933663 -0.726213,2.903949 -0.03021,0.125042 -0.05551,0.249087 -0.05716,0.378906 -0.0013,0.08864 0.0147,0.210149 -0.105728,0.227864 -0.09961,0.0147 -0.212678,-0.0058 -0.284931,-0.09836 -0.03511,-0.04547 -0.06328,-0.09651 -0.09144,-0.146552 -0.324938,-0.577738 -0.629874,-1.168065 -0.980121,-1.729637 -0.355146,-0.569499 -0.715601,-1.14182 -1.237704,-1.585133 -0.0792,-0.06734 -0.142876,-0.152673 -0.216762,-0.226973 -0.24942,-0.249005 -0.333103,-0.53394 -0.257582,-0.888673 0.09144,-0.431081 0.140834,-0.87113 0.209821,-1.307107 0.01065,-0.06862 0.01797,-0.149409 0.09184,-0.176348 0.0792,-0.02939 0.126138,0.03552 0.170225,0.0906 0.378821,0.468631 0.772342,0.922149 1.098095,1.435689 0.486999,0.766618 0.870311,1.589171 1.331186,2.368818 0.08,0.135524 0.169001,0.255137 0.335552,0.276811 0.12777,0.01724 0.217985,-0.09234 0.15267,-0.193416 -0.457199,-0.704248 -0.719272,-1.512106 -1.177695,-2.213009 -0.165327,-0.253495 -0.317593,-0.513122 -0.473529,-0.771524 -0.151038,-0.250232 -0.329428,-0.477194 -0.532312,-0.688244 -0.233088,-0.242074 -0.448218,-0.500881 -0.60048,-0.804179 -0.06899,-0.137167 -0.103692,-0.27636 -0.06409,-0.435559 0.134301,-0.54293 0.338409,-1.061365 0.537618,-1.581836 0.04327,-0.112705 0.114708,-0.09269 0.188595,-0.02615 0.403315,0.360866 0.724578,0.788256 0.963383,1.269546 0.424135,0.853577 0.832755,1.714906 1.237704,2.577867 0.105323,0.22452 0.265747,0.408622 0.39066,0.618041 0.137568,0.230225 0.231865,0.458425 0.09838,0.724579 z m 10.36291,-22.986096 c -0.724986,0.13144 -1.407925,0.399641 -2.099441,0.640072 -0.883373,0.307384 -1.785934,0.528236 -2.724008,0.544967 -0.556805,0.01041 -1.119323,0.02974 -1.669596,-0.0714 -0.542517,-0.09963 -1.037679,-0.324126 -1.543863,-0.70581 1.339347,-0.08736 2.601545,-0.177979 3.842514,-0.426985 0.938075,-0.188602 1.887989,-0.255543 2.835454,-0.346575 0.537207,-0.05138 1.054823,0.07637 1.563868,0.257174 -0.03588,0.113863 -0.136754,0.09593 -0.204928,0.108541 z m -7.486229,-8.359812 c -0.389843,-0.707846 -0.760502,-1.36302 -0.953585,-2.102711 -0.04327,-0.166142 -0.148999,-0.314731 -0.20574,-0.47842 -0.235949,-0.680492 -0.385354,-1.382621 -0.502512,-2.091694 -0.03023,-0.184506 -0.03102,-0.370655 3.06e-4,-0.555983 0.09104,-0.535166 0.131036,-1.076466 0.336365,-1.593257 0.135935,-0.34249 0.213498,-0.711109 0.327797,-1.065437 0.177573,-0.552315 0.369434,-1.099319 0.584154,-1.628364 0.07551,-0.02118 0.101644,0.02245 0.11879,0.06411 0.308202,0.752339 0.64008,1.499782 0.81112,2.297029 0.155528,0.725794 0.325347,1.459352 0.365352,2.196184 0.05674,1.043395 0.01265,2.09291 -0.39066,3.090181 -0.108181,0.267785 -0.162062,0.558019 -0.235131,0.839285 -0.08409,0.324116 -0.162062,0.649874 -0.25636,1.029103 z m -7.585016,-0.753565 c -0.444544,0.120018 -0.593544,0.525781 -0.855616,0.819696 -0.65151,0.731521 -1.134833,1.585502 -1.696943,2.381928 -0.146957,0.208598 -0.239622,0.452303 -0.292688,0.705798 -0.08572,0.409444 -0.186557,0.815611 -0.307386,1.21648 -0.01308,0.04455 -0.01145,0.101249 -0.03919,0.133071 -0.239215,0.273513 -0.218804,0.62621 -0.294731,0.948693 -0.06164,0.263701 -0.18288,0.502917 -0.284524,0.749886 -0.209008,0.508644 -0.284118,1.056053 -0.47108,1.571212 -0.130629,0.360045 -0.2779937,0.712741 -0.4690377,1.045037 -0.142466,0.247779 -0.151037,0.53394 -0.2530937,0.793972 -0.30942,0.786221 -0.6980427,1.521005 -1.2972974,2.128826 -0.3918857,0.107729 -0.4159717,0.521292 -0.6400807,0.766224 -0.2984027,0.325341 -0.6119107,0.638441 -0.9380754,0.935629 -0.3784137,0.345349 -0.7123307,0.733558 -1.0846214,1.084612 -0.2114561,0.199214 -0.417603,0.404131 -0.6221173,0.610288 -0.4951661,0.499236 -0.7952024,1.145037 -1.2532185,1.672855 -0.081231,0.09385 -0.1200152,0.22452 -0.1763483,0.339228 -0.068584,0.139204 -0.014302,0.251458 0.092259,0.339632 0.1049064,0.0869 0.2118621,0.05879 0.3212629,-0.0092 0.1347109,-0.08412 0.2363554,-0.179195 0.2457455,-0.353102 0.00405,-0.07834 0.031023,-0.164094 0.073478,-0.22982 0.4527072,-0.704583 0.9054166,-1.409154 1.5712147,-1.941879 0.1249137,-0.09998 0.2396187,-0.212266 0.3588187,-0.318816 -0.108181,0.885016 -0.245338,1.734509 -0.4584253,2.568078 -0.07062,0.276765 -0.2935032,0.43556 -0.575171,0.433928 -0.4069908,-0.0024 -0.8143865,-0.01308 -1.2213773,-0.02199 -0.3045246,-0.007 -0.5543514,-0.162087 -0.8062205,-0.307817 -0.1167486,-0.06781 -0.105323,-0.161248 -0.045719,-0.268608 0.1461388,-0.264522 0.2759515,-0.538846 0.4302563,-0.798461 0.3510639,-0.589876 0.7021255,-1.179741 1.0944217,-1.743893 0.2853406,-0.410254 0.5857853,-0.816838 0.8111189,-1.259745 0.2992193,-0.58946 0.6082392,-1.181372 0.8082632,-1.813284 0.106133,-0.33637 0.2906467,-0.63151 0.4139287,-0.958078 0.126545,-0.335965 0.2286,-0.681313 0.3567777,-1.016861 0.170636,-0.445361 0.40903,-0.866224 0.5392527,-1.321791 0.224516,-0.786219 0.6474247,-1.48835 0.8980687,-2.265185 0.1461397,-0.453112 0.3959667,-0.882551 0.6633484,-1.290767 0.202473,-0.309431 0.370249,-0.640894 0.5604757,-0.959305 0.381273,-0.638858 0.8388777,-1.223005 1.2564807,-1.835734 0.360456,-0.528236 0.666615,-1.091972 1.054417,-1.602652 0.157978,-0.207372 0.33147,-0.387388 0.574356,-0.495153 0.07225,-0.03228 0.154305,-0.07834 0.19431,-0.142062 0.139609,-0.221662 0.366168,-0.263296 0.591092,-0.313504 0.0796,-0.01758 0.15553,-0.03148 0.224519,-0.08528 0.139609,-0.109812 0.266155,-0.236346 0.482098,-0.113862 0.08491,0.0486 0.215131,-0.05843 0.322081,-0.104953 0.131447,-0.05716 0.273506,-0.09511 0.392703,0.01157 0.0698,0.06283 -0.04369,0.26126 -0.247784,0.315957 z m -0.806631,3.323679 c -0.109396,-0.426996 -0.05102,-0.86745 -0.213904,-1.275262 -0.01838,-0.04536 -0.01715,-0.102407 0.02042,-0.130213 0.22411,-0.166154 0.244928,-0.508633 0.539249,-0.615182 0.0494,-0.01759 0.08286,-0.07834 0.15594,-0.151447 -0.126956,0.760912 -0.257174,1.479775 -0.501695,2.172104 z m -0.394742,1.801033 c -0.06858,0.250243 -0.05674,0.520482 -0.191454,0.826233 -0.142872,-0.417196 -0.271052,-0.772346 -0.385762,-1.131973 -0.119605,-0.375157 -0.223291,-0.755197 -0.340857,-1.131164 -0.03348,-0.106919 -0.04326,-0.204108 0.02165,-0.298404 0.202883,-0.293508 0.406988,-0.586196 0.624975,-0.8997 0.148588,0.142873 0.132668,0.300846 0.131854,0.438823 -0.0022,0.349839 0.06368,0.692746 0.08981,1.03931 0.004,0.05716 0.0078,0.123698 0.03797,0.168595 0.222478,0.329021 0.10287,0.65559 0.01185,0.98828 z m -0.584154,2.330089 c -0.118383,0.413932 -0.213905,0.834391 -0.324936,1.25036 -0.03225,0.120828 -0.04083,0.25309 -0.150631,0.364534 -0.112671,-0.06816 -0.135529,-0.187365 -0.145733,-0.293104 -0.06368,-0.652732 -0.240029,-1.278525 -0.429848,-1.901865 -0.11104,-0.364535 -0.118791,-0.712325 0.01065,-1.08666 0.154715,-0.447397 0.238398,-0.919302 0.353107,-1.380574 0.03388,0.0012 0.06776,0.0024 0.102047,0.0046 0.182472,0.573942 0.364944,1.147896 0.547005,1.722254 0.0074,0.02199 0.0053,0.04779 0.01593,0.0678 0.215537,0.414337 0.142876,0.82989 0.02244,1.252801 z m -0.949097,3.062419 c -0.09838,0.357591 -0.236355,0.702535 -0.469854,1.087482 -0.04775,-0.18247 -0.100417,-0.302084 -0.107765,-0.424544 -0.04449,-0.751934 -0.193494,-1.495281 -0.185735,-2.251704 9.19e-4,-0.05635 -0.0048,-0.124103 -0.03511,-0.167774 -0.156347,-0.228604 -0.10736,-0.461282 -0.03634,-0.700093 0.06655,-0.222473 0.124914,-0.447397 0.184514,-0.671513 0.02082,-0.07915 0.03265,-0.161652 0.140017,-0.186554 0.01836,0.02453 0.05021,0.04814 0.05593,0.07719 0.17594,0.86215 0.346979,1.725517 0.524963,2.587263 0.04695,0.227367 -0.01308,0.441275 -0.07062,0.650278 z m -1.122995,2.745234 c -0.08532,0.173895 -0.202473,0.332285 -0.349841,0.570274 -0.06082,-0.502917 -0.123279,-0.924602 -0.160018,-1.348323 -0.04123,-0.476799 -0.1187887,-0.945834 -0.2343157,-1.409569 -0.01674,-0.06816 -0.05101,-0.138383 -0.02082,-0.203692 0.208189,-0.451078 0.2845267,-0.955637 0.5641527,-1.418551 0.09919,0.126961 0.111444,0.23432 0.117158,0.334737 0.04286,0.744586 0.187777,1.474476 0.331467,2.202722 0.09267,0.468629 -0.05266,0.87276 -0.247783,1.272402 z m -0.8543917,1.575703 c -0.3286107,0.657637 -0.7535624,1.248324 -1.2944461,1.751239 -0.02532,0.02372 -0.0551,0.04281 -0.08613,0.05832 -0.01838,0.0092 -0.04246,0.0058 -0.07266,0.0092 0.04204,-0.705394 -0.02939,-1.405892 -0.06164,-2.107606 -0.01509,-0.333511 0.02857,-0.668654 0.01185,-1.00625 -0.01509,-0.303298 0.157572,-0.555578 0.3453487,-0.780087 0.296364,-0.353515 0.6282417,-0.677226 0.8866407,-1.104222 0.1122547,0.16819 0.08042,0.302893 0.0894,0.42577 0.05348,0.730697 0.180022,1.452013 0.276361,2.176592 0.02734,0.206966 -0.0083,0.404131 -0.09471,0.576395 z m -1.9965728,2.026374 c -0.0024,0.106919 -0.03348,0.199213 -0.117972,0.278813 -0.4335237,0.409026 -0.9360364,0.709882 -1.4826341,0.971952 0.198392,-0.193081 0.137978,-0.438834 0.16206,-0.658853 0.06001,-0.555984 0.2490127,-1.088708 0.2865667,-1.64755 0.0061,-0.09269 0.0147,-0.184922 0.01797,-0.277586 0.01632,-0.466177 0.137977,-0.876442 0.5494567,-1.161376 0.208189,-0.143682 0.3490227,-0.365749 0.5172047,-0.547814 0.122058,0.05959 0.089,0.149399 0.08981,0.22533 0.0082,0.602929 0.0049,1.206679 0.0245,1.809202 0.01099,0.338417 -0.0396,0.671512 -0.04695,1.007882 z M 14.447636,43.514978 c -0.137159,-0.141657 -0.213087,-0.300047 -0.266561,-0.457614 -0.162877,-0.478825 -0.421687,-0.908276 -0.682126,-1.333628 -0.407805,-0.665797 -0.549862,-1.394865 -0.616404,-2.157409 -0.06654,-0.76663 -0.01592,-1.535295 -0.06613,-2.301103 -0.0083,-0.127366 -0.02611,-0.255948 -0.05959,-0.378419 -0.248193,-0.910717 -0.411479,-1.839809 -0.617218,-2.759516 -0.03388,-0.151446 0.05102,-0.323721 -0.03307,-0.443324 -0.292282,-0.416374 -0.302894,-0.920517 -0.459241,-1.377715 -0.304936,-0.891543 -0.642937,-1.768794 -1.004206,-2.638699 -0.264522,-0.636809 -0.391067,-1.316895 -0.519654,-1.990039 -0.09348,-0.489864 -0.1649187,-0.986243 -0.1873707,-1.488349 -0.01552,-0.341264 0.0449,-0.672323 0.07348,-1.007477 0.0057,-0.067 0.04326,-0.132666 0.0747,-0.194307 0.03919,-0.07753 0.04123,-0.203287 0.166958,-0.190627 0.09348,0.0092 0.110218,0.111084 0.143283,0.183279 0.317591,0.698867 0.598033,1.417729 0.959713,2.092909 0.483733,0.903786 0.876432,1.850431 1.365064,2.750548 0.160428,0.29595 0.293097,0.610276 0.285342,0.960936 -9.2e-4,0.02326 0.0013,0.04779 0.0083,0.06942 0.211863,0.667427 0.132668,1.362209 0.191043,2.043522 0.02816,0.326164 -0.05102,0.649053 -0.01592,0.976847 0.06246,0.588649 0.100012,1.180157 0.162468,1.768794 0.02489,0.231869 0.05879,0.46332 0.05021,0.69601 -0.01307,0.352279 0.0396,0.702118 0.115934,1.036451 0.225741,0.990327 0.33392,1.994934 0.455159,2.999552 0.05267,0.438418 0.145322,0.871131 0.247377,1.30139 0.04818,0.203692 0.07674,0.408206 0.08572,0.620067 0.01386,0.323721 0.146957,0.63233 0.16206,0.958899 0.0037,0.07719 0.04532,0.156342 -0.0192,0.259627 z m -2.032087,-3.284082 c -0.10287,-0.365356 -0.20574,-0.731105 -0.30861,-1.096866 0.388623,0.284518 0.331879,0.695592 0.30861,1.096866 z m -1.025432,-2.688085 c -0.345754,-0.449445 -0.457197,-1.009919 -0.704168,-1.506725 -0.106133,-0.213493 -0.231457,-0.425354 -0.288198,-0.744169 0.335552,0.189412 0.524146,0.425365 0.707026,0.658448 0.358002,0.455161 0.693554,0.928282 1.0487,1.38548 0.275954,0.355554 0.216353,0.765807 0.214722,1.167081 -3.07e-4,0.08528 -0.07185,0.115483 -0.150223,0.06607 -0.03797,-0.02407 -0.07185,-0.05913 -0.100012,-0.09511 -0.243703,-0.309419 -0.487406,-0.619255 -0.727844,-0.931128 z m -1.31812,-3.197135 C 9.9585173,33.868888 9.7364463,33.428422 9.5911203,32.962649 9.4249766,32.431568 9.2506696,31.90456 9.2249526,31.336334 c -0.01754,-0.380051 -0.107765,-0.756828 -0.168593,-1.134843 -0.05552,-0.344122 -0.102454,-0.688649 -0.09349,-1.114015 0.222477,0.314327 0.409029,0.578444 0.5935437,0.839287 -0.01552,0.067 -0.04898,0.04004 -0.07021,0.01874 -0.09553,-0.09431 -0.1955317,-0.132667 -0.3008507,-0.02083 -0.09103,0.09674 -0.04409,0.187376 0.01632,0.282897 0.4902637,0.775598 0.9788954,1.552028 1.4658954,2.329673 0.105729,0.169 0.235132,0.317184 0.365762,0.466177 0.411478,0.467405 0.653547,1.011562 0.711515,1.659804 -0.113076,-0.04039 -0.177165,-0.137573 -0.232682,-0.220852 -0.387804,-0.583743 -0.849493,-1.102177 -1.36466,-1.575702 -0.06776,-0.06249 -0.116748,-0.144504 -0.1751237,-0.217173 -0.08328,-0.10287 -0.189818,-0.149398 -0.304936,-0.07058 -0.129811,0.08945 -0.07878,0.217993 -0.0078,0.307799 0.179617,0.228188 0.3629007,0.455972 0.5678267,0.66089 0.48006,0.479657 0.849084,1.045847 1.260156,1.578977 0.04981,0.06445 0.07837,0.1539 0.140835,0.198392 0.405762,0.288602 0.446583,0.733153 0.520471,1.193614 -0.148182,-0.02291 -0.198392,-0.117161 -0.261258,-0.200023 -0.225335,-0.296368 -0.446584,-0.596403 -0.682533,-0.884195 -0.222885,-0.271455 -0.491899,-0.494343 -0.798873,-0.667023 -0.17145,-0.09673 -0.287384,-0.223699 -0.334328,-0.421674 z M 8.9755326,26.961913 c 0.05838,-0.296773 0.144919,-0.587828 0.213499,-0.882969 0.05184,-0.222067 0.17553,-0.429032 0.117565,-0.676001 -0.02122,-0.0898 0.04449,-0.173085 0.1873707,-0.21635 -0.09593,1.835734 0.209003,3.583699 0.9580757,5.263094 -0.131854,-0.0058 -0.160021,-0.08448 -0.179616,-0.138383 C 10.046687,29.688774 9.6356153,29.168303 9.2649586,28.642938 8.8783799,28.095112 8.8587859,27.555862 8.9755326,26.961913 Z M 31.075807,19.067469 c -0.0714,0.184101 -0.01712,0.393521 -0.157163,0.615993 -0.329831,-0.395153 -0.478837,-0.842549 -0.722543,-1.233617 -0.02939,-0.04698 -0.0024,-0.06816 0.03923,-0.106572 0.173895,-0.157973 0.196355,-0.235942 0.05925,-0.396367 -0.683349,-0.800106 -0.800089,-1.775738 -0.889081,-2.76566 -0.06123,-0.683755 0.02654,-1.369141 -0.05715,-2.052896 -0.07267,-0.598855 -0.07797,-1.206678 -0.272687,-1.787158 -0.02489,-0.07348 -0.07225,-0.165332 0.0098,-0.225342 0.09593,-0.07024 0.167368,0.01794 0.247785,0.06202 0.713556,0.391484 1.266681,0.977264 1.844719,1.529579 0.307788,0.29433 0.474742,0.666201 0.50904,1.111572 0.06005,0.779682 0.0024,1.550801 -0.06654,2.325588 -0.03796,0.43026 -0.122068,0.848265 -0.20411,1.269951 -0.05022,0.257579 -0.02118,0.521292 -0.08412,0.788672 -0.06978,0.294724 -0.148184,0.58497 -0.256365,0.864188 z m -0.22452,1.886361 c -0.302072,-0.668654 -0.724984,-1.251588 -1.172381,-1.813287 -0.258809,-0.325354 -0.576806,-0.603345 -0.864189,-0.906644 -0.518023,-0.546598 -1.127487,-0.96134 -1.79818,-1.298936 -0.29963,-0.150637 -0.58089,-0.340859 -0.860108,-0.528236 -0.600482,-0.402083 -1.218925,-0.766617 -1.898194,-1.024197 -0.405763,-0.153899 -0.736417,-0.441287 -1.109114,-0.655184 -0.740094,-0.424949 -1.399765,-0.963795 -1.996165,-1.566318 -0.695597,-0.702535 -1.321797,-1.466711 -1.684291,-2.408462 -0.02489,-0.06492 -0.06042,-0.125735 -0.09021,-0.188591 -0.0245,-0.05184 -0.04775,-0.104143 -0.05797,-0.166964 0.444955,0.412706 0.893172,0.818064 1.369966,1.190756 0.36984,0.289424 0.764993,0.531498 1.22056,0.65478 0.215125,0.05832 0.355146,0.220019 0.521697,0.340037 0.466176,0.335143 1.007062,0.522519 1.502223,0.798463 0.721314,0.402916 1.38303,0.887458 2.028416,1.405081 0.526185,0.421686 0.994409,0.905822 1.524678,1.322613 0.26738,0.209813 0.495163,0.482504 0.723763,0.746205 0.334327,0.385768 0.676817,0.766629 1.031148,1.134844 0.23758,0.246968 0.445358,0.514348 0.596805,0.812336 0.21635,0.426591 0.485362,0.81929 0.71804,1.235259 0.131857,0.235536 0.20574,0.491484 0.30861,0.736821 0.0192,0.04617 0.05312,0.10692 -0.01504,0.179624 z M 19.009011,4.6273207 c 0.01509,-0.2718703 0.124913,-0.5388458 0.21023,-0.8821465 0.286974,0.5478137 0.576807,1.009918 0.979714,1.3891479 0.12532,0.1179705 0.125728,0.2486002 0.09675,0.412706 -0.147366,0.8470388 -0.349839,1.6883729 -0.384947,2.5501074 -0.02777,0.6731437 0.009,1.347919 0.109408,2.0165725 0.0083,0.05392 0.01145,0.109003 0.01836,0.173896 -0.164095,-0.01308 -0.202878,-0.133477 -0.263292,-0.225736 C 19.613985,9.8165314 19.521319,9.5401714 19.40702,9.2723858 19.038404,8.4090082 18.957577,7.5011384 18.910633,6.577763 c -0.03348,-0.6568164 0.06287,-1.3009737 0.09838,-1.9504423 z m 1.360576,3.2906084 c 0.04041,-0.6400726 0.166145,-1.2675092 0.285748,-1.8953392 0.05307,-0.2775866 0.108992,-0.2861494 0.341268,-0.1110856 0.243296,0.1836961 0.439647,0.4151475 0.647835,0.6347729 0.111444,0.1175656 0.147364,0.2669641 0.148999,0.4184106 0.0022,0.210646 0.03797,0.4155642 0.06001,0.6229353 0.0792,0.7494804 0.146548,1.5005922 0.197983,2.2525256 0.0396,0.5755853 0.283708,1.0731903 0.547007,1.5642693 0.247377,0.4617 0.539249,0.893996 0.932358,1.240977 -0.339225,-0.0825 -0.541698,-0.344123 -0.82214,-0.488222 -0.464958,-0.239215 -0.934809,-0.474752 -1.37568,-0.754386 C 20.816583,11.074992 20.549612,10.573707 20.454497,9.9687418 20.347959,9.2870237 20.32632,8.604484 20.369586,7.9178712 Z m 1.927178,-0.7796817 c 0.404539,0.2371677 0.770706,0.5176123 1.138504,0.7931508 0.223704,0.1673689 0.442914,0.3384174 0.691516,0.4661774 0.192269,0.099167 0.330246,0.2441105 0.443321,0.4290332 0.438422,0.7176474 0.568232,1.5120252 0.611503,2.3329472 0.03185,0.601297 0.08818,1.20014 0.267789,1.780619 0.103691,0.335966 0.271463,0.63968 0.44985,0.938489 0.02409,0.04038 0.05552,0.07591 0.01592,0.15471 -0.23227,-0.0825 -0.421275,-0.246147 -0.622932,-0.379635 -0.436382,-0.288198 -0.810711,-0.648648 -1.14953,-1.046252 -0.03757,-0.04409 -0.07797,-0.08864 -0.124914,-0.121234 C 23.368324,12.031497 23.056448,11.328556 22.722938,10.657449 22.506177,10.221473 22.470662,9.7152931 22.44372,9.2282988 22.41107,8.6355649 22.331465,8.0485587 22.278801,7.4586829 c -0.009,-0.09963 -0.04326,-0.2020599 0.01797,-0.3204355 z m 2.955872,1.8941011 c 0.273506,0.1339043 0.545376,0.2559481 0.806632,0.3972003 0.489856,0.2645224 0.974814,0.5343446 1.512838,0.6964022 0.280444,0.08412 0.491899,0.304941 0.754789,0.431486 0.06082,0.02939 0.101238,0.127772 0.124504,0.202882 0.12818,0.410253 0.317182,0.817242 0.352697,1.236486 0.04163,0.496379 0.150223,0.989506 0.121649,1.492423 -0.04327,0.767855 0.01999,1.535295 0.05674,2.301102 0.02122,0.438418 0.182877,0.861329 0.319631,1.280978 0.03429,0.10611 0.09144,0.204513 0.09674,0.320031 -0.07552,0.007 -0.106549,-0.03147 -0.131854,-0.067 -0.44577,-0.630688 -0.98012,-1.178513 -1.565499,-1.678988 -0.108991,-0.09349 -0.197574,-0.180838 -0.153487,-0.353507 0.03592,-0.140835 -0.04654,-0.271465 -0.131447,-0.384946 -0.09797,-0.130224 -0.19635,-0.263713 -0.33106,-0.357603 -0.678849,-0.474336 -1.007871,-1.171976 -1.227082,-1.934521 -0.161653,-0.561294 -0.222478,-1.139726 -0.256357,-1.722659 -0.03511,-0.604976 -0.113076,-1.2038199 -0.366578,-1.7651144 -0.0074,-0.016315 0.007,-0.042467 0.01715,-0.094654 z m 6.89841,5.2471835 c -0.01157,-0.06572 -0.04327,-0.13512 0.03506,-0.251458 0.288198,0.372691 0.499655,0.755601 0.642932,1.173202 0.166142,0.483731 0.31024,0.975227 0.474346,1.45978 0.156747,0.462497 0.325343,0.921327 0.493116,1.379752 0.02858,0.07719 0.07058,0.14941 0.05635,0.233499 -0.06005,0.354328 -0.03472,0.729484 -0.202072,1.058495 -0.29595,0.580896 -0.50088,1.203415 -0.82091,1.772879 -0.257591,0.458019 -0.530689,0.903784 -0.900522,1.281787 -0.05184,0.05312 -0.104953,0.156758 -0.19676,0.09141 -0.08656,-0.06121 -0.09511,-0.184506 -0.02812,-0.251053 0.184506,-0.183696 0.07671,-0.353505 0.01712,-0.54006 -0.281269,-0.878884 -0.386176,-1.758993 -0.140026,-2.677879 0.164916,-0.615182 0.238395,-1.256482 0.330248,-1.889218 0.09465,-0.655995 0.153079,-1.317301 0.245337,-1.973712 0.04119,-0.292283 0.04165,-0.578027 -0.0058,-0.867451 z m 2.099852,4.789164 c 0.05508,-0.398416 0.2335,-0.748671 0.381267,-1.111978 0.111896,-0.274729 0.292283,-0.501285 0.502512,-0.706619 0.380862,-0.371061 0.716826,-0.782136 1.202593,-1.047884 0.247386,-0.135525 0.495558,-0.296773 0.728652,-0.468215 0.0751,-0.05508 0.151042,-0.109349 0.251459,-0.109812 0.08447,0 0.144098,0.02697 0.112242,0.122055 -0.03344,0.09882 -0.05831,0.213897 -0.12614,0.284934 -0.38903,0.408621 -0.672727,0.890721 -0.927448,1.383027 -0.522924,1.009513 -1.281383,1.846763 -1.956158,2.74401 -0.23799,0.316362 -0.567012,0.564152 -0.853982,0.842965 -0.02002,-0.01261 -0.03957,-0.02535 -0.05925,-0.03842 0.128593,-0.304941 0.246158,-0.615182 0.389031,-0.913586 0.151851,-0.316362 0.306978,-0.632319 0.35515,-0.980526 z m 3.619619,-3.515533 c -0.0046,-0.104143 0.05554,-0.152674 0.138788,-0.172276 0.518028,-0.122055 1.037272,-0.240025 1.606724,-0.370655 -0.07591,0.306978 -0.228997,0.502106 -0.35147,0.708252 -0.398415,0.669058 -0.794793,1.338534 -1.152384,2.030863 -0.09465,0.182886 -0.238799,0.343312 -0.374335,0.50169 -0.400858,0.46782 -0.798868,0.938893 -1.286267,1.323029 -0.09141,0.07186 -0.182064,0.15103 -0.146136,0.322078 0.231857,-0.0869 0.470251,-0.129403 0.662521,-0.306167 0.473109,-0.434333 0.85765,-0.945419 1.281789,-1.422613 0.666606,-0.749075 1.041346,-1.675726 1.599378,-2.488478 0.111895,-0.162463 0.177169,-0.353102 0.224103,-0.547004 0.03472,-0.143694 0.109002,-0.260854 0.254733,-0.309431 0.515981,-0.172263 1.047479,-0.291866 1.571212,-0.503321 -0.02569,0.215529 -0.206145,0.582921 -0.398415,0.865818 -0.306978,0.451078 -0.643753,0.886232 -0.905012,1.36302 -0.305346,0.557222 -0.701713,1.030342 -1.138094,1.479787 -0.05589,0.05797 -0.117565,0.118375 -0.150231,0.189817 -0.06365,0.138788 -0.104954,0.285745 -0.300441,0.291461 -0.03634,0.0012 -0.08494,0.04814 -0.10449,0.08609 -0.213088,0.409432 -0.637225,0.526997 -1.005428,0.703751 -0.47231,0.226973 -0.894806,0.533534 -1.355255,0.776013 -0.30861,0.162879 -0.623757,0.312694 -0.93563,0.469857 -0.561699,0.282077 -1.140142,0.518839 -1.762673,0.642121 -0.03066,-0.10611 0.06202,-0.113863 0.113053,-0.144504 0.409037,-0.243705 0.703761,-0.606608 0.991959,-0.970321 0.672334,-0.848682 1.293221,-1.732459 1.836545,-2.671769 0.261664,-0.451482 0.58048,-0.869488 0.868677,-1.306273 0.108193,-0.164106 0.226152,-0.329427 0.216767,-0.540883 z m 5.672942,-1.953717 c 0.216756,-0.04004 0.43107,-0.09593 0.647432,-0.140015 0.286566,-0.05797 0.562105,-0.14043 0.814385,-0.29595 0.113515,-0.07024 0.234714,-0.143289 0.415147,-0.10449 -0.167369,0.304942 -0.389031,0.540883 -0.592317,0.784993 -0.333512,0.40169 -0.682529,0.791531 -1.044216,1.167902 -0.290234,0.301668 -0.660485,0.509455 -0.987053,0.769488 -0.05392,0.04281 -0.13063,0.06526 -0.170227,0.117565 -0.292282,0.384947 -0.727842,0.611098 -1.055232,0.948683 -0.393104,0.406179 -0.892353,0.664581 -1.303831,1.038904 -0.05635,0.05102 -0.126962,0.08656 -0.19064,0.129403 -0.0118,-0.01423 -0.02361,-0.02858 -0.03552,-0.04281 0.125318,-0.161248 0.255949,-0.319221 0.375967,-0.484137 0.684565,-0.939714 1.316896,-1.912071 1.874915,-2.933016 0.273919,-0.501691 0.671107,-0.848671 1.251182,-0.956447 z M 29.588684,35.769527 c 0.300034,-0.349017 0.533939,-0.732332 0.727841,-1.140548 0.278813,-0.587828 0.570274,-1.167081 0.940119,-1.703878 0.120424,-0.175539 0.133894,-0.183696 0.257582,-0.0058 0.111086,0.160843 0.271465,0.202893 0.43924,0.253912 0.305346,0.09222 0.33188,0.181243 0.171453,0.443728 -0.244932,0.401274 -0.550266,0.747849 -0.913588,1.043799 -0.1539,0.12533 -0.293914,0.262891 -0.418006,0.417196 -0.05068,0.06283 -0.100787,0.133488 -0.166964,0.175538 -0.519244,0.329832 -0.877252,0.823769 -1.29322,1.258114 -0.104096,0.10854 -0.209413,0.209003 -0.338,0.282481 -0.02042,-0.01874 -0.04123,-0.03761 -0.06165,-0.05635 0.215944,-0.324936 0.402907,-0.67437 0.655184,-0.96788 z m 2.025971,-5.702334 c 0.199607,-0.270643 0.360854,-0.569464 0.598034,-0.813573 0.265332,-0.273098 0.577205,-0.417197 0.964604,-0.384531 0.232273,0.01956 0.46495,0.02199 0.694365,-0.03587 0.15839,-0.03957 0.282494,0.01261 0.415159,0.113863 0.570679,0.436381 0.843776,1.046252 0.989923,1.715716 0.08898,0.408217 -0.06492,0.805821 -0.191866,1.193614 -0.03344,0.10206 -0.11716,0.140836 -0.22084,0.133488 -0.104143,-0.007 -0.20942,-0.01308 -0.312289,-0.02974 -0.305347,-0.05056 -0.603333,-0.06896 -0.860508,0.151029 -0.478836,0.02291 -0.724174,0.351888 -0.962973,0.708668 -0.151042,0.225331 -0.401285,0.218387 -0.671523,0.0081 -0.149399,-0.11635 -0.236764,-0.285756 -0.33269,-0.444551 -0.05508,-0.09141 -0.01874,-0.180016 0.03101,-0.26289 0.149409,-0.24941 0.294734,-0.502107 0.451076,-0.747027 0.08945,-0.13961 0.219208,-0.242074 0.384136,-0.278813 0.144909,-0.03228 0.197571,-0.123688 0.24941,-0.255139 0.10368,-0.2637 0.14941,-0.526174 0.10692,-0.807441 -0.01712,-0.112705 0.02002,-0.243301 -0.122865,-0.297177 -0.135536,-0.05138 -0.210646,0.03228 -0.287792,0.131857 -0.16656,0.214718 -0.356377,0.377181 -0.649469,0.146135 -0.02083,0.08447 -0.02904,0.106572 -0.03148,0.128998 -0.01874,0.179611 0.217578,0.330653 0.116351,0.489042 -0.214314,0.335143 -0.236357,0.756411 -0.505372,1.060936 -0.0058,0.007 -0.02083,0.0058 -0.03877,0.01157 -0.09385,-0.06816 -0.09269,-0.178385 -0.10287,-0.277991 -0.05102,-0.483327 -0.0184,-0.94093 0.290248,-1.358126 z m 3.761275,3.530635 c -0.01632,0.0678 -0.03344,0.135536 -0.04039,0.163295 -0.04894,0.358402 -0.187376,0.640073 -0.344122,0.912765 -0.06364,0.110622 -0.12614,0.220841 -0.18085,0.336774 -0.21635,0.45434 -0.606191,0.634773 -1.091149,0.511491 -0.05635,-0.01435 -0.111895,-0.03066 -0.166964,-0.04976 -0.612313,-0.213493 -0.853981,-0.553542 -0.853981,-1.196878 3.12e-4,-0.258402 0.04651,-0.502523 0.199213,-0.718874 0.03923,-0.05554 0.06121,-0.143694 0.14573,-0.120424 0.09431,0.02569 0.10692,0.117566 0.09303,0.201251 -0.01758,0.102869 -0.04489,0.204108 -0.07394,0.304524 -0.0192,0.06654 -0.05392,0.128998 -0.0714,0.19595 -0.02245,0.08574 -3.02e-4,0.161248 0.07833,0.212683 0.07961,0.05184 0.188186,0.04651 0.223294,-0.01758 0.189401,-0.347396 0.44168,-0.274739 0.724161,-0.14411 0.105301,0.0486 0.23269,0.04894 0.311468,-0.0722 0.07637,-0.11634 0.04571,-0.225735 -0.04443,-0.316363 -0.173895,-0.175122 -0.144503,-0.4078 -0.182065,-0.620888 -0.01794,-0.102059 -0.01041,-0.208193 -0.02407,-0.311478 -0.02488,-0.192676 0.02731,-0.293498 0.208181,-0.304931 0.140026,-0.0081 0.272287,0.02487 0.353923,-0.139203 0.03876,-0.07753 0.120829,-0.03552 0.184518,-0.0024 0.400046,0.20574 0.652732,0.744575 0.551493,1.176465 z m -4.448307,20.528655 c 0.15839,-0.702524 0.241253,-1.427924 0.567011,-2.083919 0.216758,-0.436798 0.463738,-0.858067 0.744588,-1.257303 0.825817,-1.172393 1.754503,-2.253336 2.794218,-3.246117 0.696414,-0.664985 1.382621,-1.343024 2.039021,-2.051275 0.343717,-0.370656 0.625782,-0.809073 1.096044,-1.10463 0.06041,0.809084 0.06087,1.589183 -0.0081,2.365601 -0.03067,0.344539 -0.137573,0.684577 -0.229416,1.020946 -0.137167,0.504964 -0.281671,1.008286 -0.441287,1.506308 -0.284113,0.886231 -0.767034,1.65735 -1.340964,2.38805 -0.53313,0.678038 -1.247097,1.107072 -1.943511,1.569176 -0.524556,0.348207 -1.087065,0.62783 -1.642238,0.922149 -0.398415,0.211455 -0.754386,0.502928 -1.133619,0.751529 -0.11016,0.0722 -0.219614,0.226556 -0.364128,0.137965 -0.144909,-0.08852 -0.187771,-0.266154 -0.186139,-0.433106 0.0012,-0.162069 0.01308,-0.327796 0.04895,-0.485374 z m 17.832807,5.613346 c -0.04119,0.671108 -0.205334,1.266283 -0.400463,1.920241 -0.08852,-0.187376 -0.08736,-0.326568 -0.09431,-0.45802 -0.01308,-0.231868 0.314731,-1.197293 0.494758,-1.462221 z m 1.616932,-5.028782 c 0.105299,-0.231452 0.178396,-0.477611 0.265344,-0.717231 0.182064,-0.502512 0.488221,-0.946241 0.65191,-1.461817 0.119208,-0.377181 0.200034,-0.763354 0.341275,-1.19116 0.05716,0.358008 -0.02117,0.663342 -0.06618,0.96951 -0.111896,0.757639 -0.288614,1.505488 -0.334333,2.272927 -0.01041,0.179206 -0.08204,0.346991 -0.188591,0.480062 -0.400058,0.499249 -0.700093,1.069106 -1.112799,1.558565 -0.02777,0.0331 -0.04247,0.08366 -0.114326,0.07833 0.17798,-0.667022 0.267786,-1.354457 0.557615,-1.98923 z m 1.60551,-2.031674 c -0.03344,-0.101597 -0.007,-0.208193 0.0081,-0.311872 0.114673,-0.789078 0.119603,-1.590815 -0.04651,-2.358659 -0.163285,-0.75316 0.067,-1.421409 0.223294,-2.113738 0.16451,-0.72621 0.380051,-1.440178 0.542918,-2.166388 0.132261,-0.587423 0.39801,-1.115646 0.649885,-1.652039 0.104142,-0.221256 0.206145,-0.443323 0.319221,-0.659269 0.0567,-0.10854 0.0898,-0.236763 0.216755,-0.341669 0.05925,0.349434 0.115483,0.667022 0.124104,0.990732 0.02048,0.777645 0.0523,1.555291 0.05392,2.332947 0.0012,0.685791 -0.03228,1.371595 -0.04779,2.057802 -0.0081,0.338001 0.0046,0.675597 0.09801,1.00338 0.108541,0.380456 0.05879,0.736833 -0.144919,1.073607 -0.183292,0.302488 -0.286972,0.649469 -0.531498,0.989101 -0.02083,-0.429033 -0.06445,-0.799284 -0.07105,-1.165449 -0.01435,-0.793972 -0.175122,-1.572439 -0.204108,-2.363149 -0.01157,-0.312693 -0.05635,-0.62253 0.01632,-0.937666 0.0486,-0.209407 -0.06411,-0.429843 -0.181254,-0.447813 -0.13063,-0.02002 -0.213088,0.104953 -0.215946,0.409848 -0.0046,0.522518 0.0331,1.042167 0.08945,1.56265 0.05589,0.519243 0.0906,1.043393 0.10935,1.564674 0.01758,0.475978 0.02697,0.953994 0.06167,1.42753 0.03472,0.469846 -0.04165,0.865819 -0.391889,1.209537 -0.239215,0.234714 -0.429438,0.519244 -0.642525,0.780908 -0.02812,0.03426 -0.05138,0.0788 -0.128188,0.0714 -0.04085,-0.103333 -0.04003,-0.200845 0.01678,-0.316373 0.09917,-0.200429 0.151447,-0.413112 0.07637,-0.640073 z m 2.446011,-10.778885 c 0.349838,-0.600891 0.640084,-1.237296 1.131163,-1.825934 -0.04941,1.07156 -0.09222,2.079846 -0.142467,3.087728 -0.03876,0.777239 -0.05925,1.553658 -0.01956,2.331303 0.01157,0.209419 -0.0092,0.415969 -0.05763,0.622936 -0.08574,0.360854 -0.169405,0.721315 -0.22165,1.091565 -0.08494,0.600475 -0.319233,1.165033 -0.498844,1.74225 -0.0092,0.02905 -0.04039,0.05138 -0.07267,0.09141 -0.120424,-0.09593 -0.105299,-0.22614 -0.120018,-0.346159 -0.05554,-0.453114 0.0058,-0.905822 0.0092,-1.358541 0.0092,-1.057269 -0.02245,-2.112905 -0.09141,-3.168137 -0.02488,-0.382909 -0.04165,-0.766224 -0.06283,-1.149122 -0.0034,-0.06978 0.007,-0.146957 -0.02048,-0.206966 -0.155519,-0.34617 -0.0024,-0.620899 0.166964,-0.912359 z m 1.451193,3.737601 c 0.09639,-0.513932 0.157175,-1.033594 0.26045,-1.546716 0.10287,-0.512313 0.181243,-1.02952 0.271465,-1.544274 0.03588,-0.20574 0.06816,-0.412706 0.171037,-0.605787 -0.04039,0.457603 -0.08331,0.914801 -0.120018,1.372821 -0.03714,0.46251 -0.105763,0.922971 -0.0972,1.388338 0.0081,0.469035 -0.07719,0.929092 -0.175122,1.380573 -0.207788,0.953994 -0.444134,1.902283 -0.697223,2.845665 -0.12002,0.447801 -0.339645,0.863366 -0.568655,1.268319 -0.04409,0.07833 -0.07996,0.171858 -0.220019,0.209408 -0.09303,-0.193486 -0.0221,-0.352292 0.03957,-0.514755 0.32003,-0.848265 0.612313,-1.705522 0.814789,-2.590526 0.06734,-0.293509 0.113053,-0.588649 0.233499,-0.870714 0.10611,-0.247385 0.03795,-0.52783 0.08736,-0.792352 z m -0.05554,-3.074247 c 0.06654,-0.403725 0.04941,-0.811537 0.06734,-1.2173 0.02487,-0.556805 0.04327,-1.113609 0.0722,-1.669998 0.01632,-0.311468 0.161652,-0.570274 0.389435,-0.859698 0.04201,0.271465 0.04281,0.464142 -0.01157,0.659675 -0.09431,0.340038 -0.06005,0.693961 -0.06572,1.039714 -0.007,0.409848 -0.04733,0.808668 -0.141241,1.205869 -0.06411,0.271048 -0.13756,0.540882 -0.153483,0.821732 -0.0058,0.102406 -0.02811,0.202477 -0.104143,0.293509 -0.07348,-0.09303 -0.06816,-0.185328 -0.05346,-0.273503 z m -1.464675,8.553703 c -0.174716,0.270239 -0.367391,0.529045 -0.541287,0.80949 0.09107,-0.317184 0.221245,-0.620482 0.396784,-0.90338 0.02569,-0.04119 0.05797,-0.07915 0.10935,-0.05427 0.06491,0.03182 0.06862,0.09639 0.03506,0.148185 z M 68.876749,54.9621 c -0.09511,-0.08783 -0.192676,-0.06041 -0.290234,-0.0092 -0.215946,0.114325 -0.438834,0.218399 -0.646206,0.34698 -1.266688,0.784993 -2.616238,1.367116 -4.07316,1.697353 -0.796009,0.180432 -1.532019,0.556804 -2.330076,0.733558 -0.01157,0.0024 -0.02083,0.01157 -0.03148,0.01504 -0.816432,0.33269 -1.540201,0.808669 -2.196196,1.394863 -0.434749,0.388613 -0.833975,0.805404 -1.191983,1.266686 -0.463318,0.597213 -0.972773,1.159734 -1.41487,1.771653 -0.647016,0.896842 -1.307917,1.783478 -1.968818,2.66971 -0.188175,0.25228 -0.376372,0.498844 -0.53394,0.77275 -0.214719,0.373918 -0.460056,0.727437 -0.787851,1.017683 -0.243705,0.215529 -0.489043,0.420458 -0.77275,0.589043 -0.360044,0.214314 -0.657222,0.517612 -0.953993,0.814395 -0.07348,0.07348 -0.138383,0.162058 -0.248601,0.184102 -0.444133,0.08817 -0.879288,0.225734 -1.336903,0.240847 -1.020528,0.03344 -2.040652,-0.106573 -3.06323,0.01308 -0.749886,0.08736 -1.504272,0.11635 -2.244772,0.299225 -0.942561,0.23269 -1.856552,0.523734 -2.690539,1.033605 -0.131844,0.08042 -0.280849,0.134298 -0.485768,0.124092 0.217982,-0.273502 0.473942,-0.413933 0.723353,-0.558842 0.281671,-0.163295 0.584159,-0.293104 0.853981,-0.472715 0.638453,-0.424543 1.280978,-0.846634 1.887992,-1.314037 0.606608,-0.466999 1.210358,-0.945836 1.671629,-1.574071 0.115482,-0.157163 0.245348,-0.307799 0.417196,-0.418017 0.08447,-0.05427 0.152672,-0.144504 0.209419,-0.230642 0.257174,-0.390651 0.466177,-0.802546 0.573132,-1.264639 0.06249,-0.27106 0.10449,-0.553946 0.244515,-0.799284 0.214314,-0.376371 0.380456,-0.767856 0.491901,-1.187909 0.03842,-0.144909 0.05138,-0.299214 0.111085,-0.436787 0.33269,-0.76907 0.30861,-1.62061 0.559651,-2.408461 0.01712,-0.05346 0.0046,-0.115922 0.0092,-0.173895 0.03228,-0.403713 0.166546,-0.760911 0.477193,-1.037676 0.183291,-0.163689 0.349433,-0.344527 0.463735,-0.564152 0.152674,-0.293914 0.358414,-0.545778 0.606203,-0.760497 0.403715,-0.349433 0.69233,-0.790304 0.950719,-1.243012 0.273097,-0.47761 0.588649,-0.919302 0.933998,-1.343846 0.242074,-0.297987 0.513123,-0.578849 0.713968,-0.902559 0.423317,-0.683349 0.95603,-1.287909 1.35772,-1.987586 0.46944,-0.817242 0.944597,-1.621837 1.206262,-2.541128 0.216767,-0.761329 0.418827,-1.525089 0.572726,-2.300697 0.12695,-0.638036 0.250232,-1.282206 0.249017,-1.934937 -9.26e-4,-0.654364 0.08574,-1.299747 0.15471,-1.945953 0.114325,-1.072369 0.107383,-2.136174 -0.12982,-3.18937 -0.113862,-0.503738 -0.227367,-0.996044 -0.08736,-1.514477 0.05056,-0.188591 -0.05184,-0.324116 -0.203691,-0.343706 -0.181255,-0.02372 -0.244527,0.09801 -0.283719,0.242884 -0.06087,0.22533 -0.107383,0.460461 -0.25839,0.644157 -0.26126,0.31841 -0.54742,0.618041 -0.627021,1.045442 -0.0081,0.04165 -0.05022,0.07719 -0.07718,0.115136 -0.475978,0.676001 -0.936023,1.362614 -1.310358,2.100257 -0.09963,0.195534 -0.247385,0.353923 -0.329426,0.568237 -0.186554,0.487817 -0.412706,0.963378 -0.660497,1.423434 -0.322078,0.597629 -0.549457,1.228722 -0.764986,1.868402 -0.171858,0.509442 -0.218803,1.050325 -0.398831,1.554063 -0.212671,0.595997 -0.261665,1.228722 -0.444134,1.830435 -0.02649,0.08736 -0.03182,0.183697 -0.03344,0.276361 -0.0058,0.408204 -0.02974,0.814789 -0.08447,1.21892 -0.131451,0.963794 -0.389031,1.90146 -0.797652,2.774627 -0.351875,0.751112 -0.641299,1.522636 -0.906239,2.300698 -0.250231,0.736011 -0.408621,1.506309 -0.562104,2.270889 -0.08782,0.435155 -0.244932,0.822137 -0.509038,1.168306 -0.422911,0.554351 -0.518028,1.239332 -0.755613,1.867579 -0.0192,0.05103 -0.0081,0.115482 -0.0034,0.173085 0.067,0.724579 -0.02453,1.437319 -0.14042,2.150061 -0.0678,0.415969 -0.230641,0.804583 -0.320041,1.212394 -0.06445,0.293092 -0.206146,0.542098 -0.379635,0.778456 -0.674371,0.918075 -1.494888,1.692457 -2.40888,2.359479 -0.637213,0.464952 -1.271986,0.94012 -1.986359,1.29608 -0.319232,0.159199 -0.628652,0.348206 -0.919707,0.566189 -0.360867,0.27106 -0.759282,0.481289 -1.228317,0.523733 -0.0339,-0.16981 0.03066,-0.290639 0.121245,-0.401678 0.317172,-0.388614 0.654363,-0.756007 1.100129,-1.005023 0.12246,-0.06862 0.232273,-0.155115 0.326568,-0.260034 0.656816,-0.734783 1.08504,-1.58917 1.340167,-2.537042 0.105299,-0.391889 0.231057,-0.778468 0.342906,-1.168308 0.150626,-0.525365 0.289424,-1.052779 0.374741,-1.594483 0.06445,-0.41311 0.09998,-0.82827 0.147767,-1.242191 0.106109,-0.929508 0.109349,-1.85492 0.04374,-2.783201 -0.04327,-0.616812 -0.200023,-1.216478 -0.289829,-1.826349 -0.09477,-0.644574 -0.177979,-1.295662 -0.344539,-1.923098 -0.166951,-0.626604 -0.292686,-1.270762 -0.572715,-1.865937 -0.04617,-0.09755 -0.112242,-0.205335 -0.08736,-0.328617 0.261259,-0.03148 0.266976,-0.03923 0.193497,-0.25228 -0.05022,-0.145313 -0.137977,-0.269417 -0.226557,-0.392282 -0.320041,-0.443729 -0.620077,-0.899295 -0.78704,-1.427113 -0.333512,-1.056875 -1.013598,-1.899019 -1.698984,-2.736674 -0.04327,-0.05265 -0.09998,-0.10206 -0.160844,-0.130213 -0.151851,-0.06978 -0.353911,0.01157 -0.31554,0.222877 0.09836,0.538846 -0.03148,1.060138 -0.125735,1.58673 -0.112243,0.629461 -0.237168,1.261376 -0.277169,1.897376 -0.07719,1.219742 -0.272692,2.426421 -0.34086,3.646568 -0.04119,0.741322 -0.141657,1.47937 -0.212277,2.219049 -0.03588,0.370667 -0.05056,0.743776 -0.09917,1.1128 -0.138382,1.053181 -0.135536,2.109234 -0.07834,3.166503 0.0486,0.894805 0.185328,1.781452 0.250243,2.675842 0.05751,0.798057 0.193486,1.591624 0.353102,2.377844 0.113516,0.558031 0.199202,1.121778 0.360854,1.670819 0.133488,0.453529 0.135536,0.917671 0.0331,1.382216 -0.02453,0.110276 -0.07429,0.148588 -0.178802,0.175122 -0.686207,0.175527 -1.371999,0.353101 -2.054122,0.542919 -0.269429,0.07475 -0.54293,0.135536 -0.809085,0.215945 -0.346969,0.104953 -0.709466,0.120829 -1.054815,0.232273 -0.664164,0.214731 -1.329555,0.429034 -2.00433,0.606204 -0.815611,0.213492 -1.594888,0.51966 -2.338654,0.903785 -0.742538,0.382898 -1.509571,0.729068 -2.185575,1.23158 -0.569459,0.423317 -1.143815,0.84418 -1.589178,1.407107 -0.39025,0.493127 -0.806627,0.962984 -1.244641,1.413644 -0.446177,0.458841 -0.878068,0.929508 -1.241379,1.458958 -0.02816,0.04119 -0.06817,0.09882 -0.147364,0.05346 -0.02122,-0.159604 0.0037,-0.320436 0.03551,-0.478825 0.151448,-0.75316 0.245745,-1.515704 0.400457,-2.268448 0.260442,-1.26465 0.491082,-2.535006 0.735603,-3.802504 0.01552,-0.07961 0.03471,-0.161248 0.06981,-0.233499 0.138791,-0.285757 0.199616,-0.595176 0.289422,-0.896438 0.152673,-0.512313 0.329836,-1.017683 0.484958,-1.529578 0.162059,-0.534356 0.340451,-1.066665 0.457608,-1.611632 0.274321,-1.274441 0.555577,-2.547249 0.927868,-3.796788 0.119608,-0.401284 0.247378,-0.80051 0.348208,-1.2075 0.142466,-0.574358 0.343715,-1.130341 0.467403,-1.714096 0.141244,-0.668238 0.415145,-1.307095 0.609047,-1.96554 0.222067,-0.755197 0.574763,-1.474059 0.637226,-2.274569 0.0081,-0.103333 0.04894,-0.203692 0.07348,-0.305336 0.02407,-0.09917 0.07915,-0.166963 0.182065,-0.189412 0.270238,-0.05878 0.475561,-0.231047 0.695591,-0.38291 0.507004,-0.349433 1.020949,-0.687434 1.548362,-1.007059 0.366987,-0.222472 0.760091,-0.396784 1.117277,-0.638036 0.295546,-0.199214 0.658449,-0.29963 0.880516,-0.606203 0.635177,-0.296368 1.127077,-0.755602 1.580608,-1.286279 0.436774,-0.511086 0.748241,-1.092791 1.071142,-1.669187 0.08852,-0.157973 0.179206,-0.321257 0.249006,-0.495973 0.160425,-0.402918 0.257995,-0.822554 0.362497,-1.239346 0.232678,-0.925828 0.434749,-1.856956 0.446992,-2.820751 0.0046,-0.348206 -0.0024,-0.694376 -0.01794,-1.04094 -0.01678,-0.388626 0.06526,-0.763771 0.158794,-1.137701 0.03101,-0.124093 0.0034,-0.237573 -0.124508,-0.292283 -0.115136,-0.0486 -0.210635,0.01157 -0.270239,0.103333 -0.311467,0.48291 -0.72702,0.876025 -1.114014,1.291994 -0.35677,0.382899 -0.699261,0.78173 -1.073584,1.144632 -0.817659,0.793163 -1.641833,1.581014 -2.428469,2.403973 -0.778454,0.81479 -1.497329,1.683061 -2.099435,2.64563 -0.312292,0.498426 -0.549865,1.020124 -0.751114,1.568758 -0.122877,0.33556 -0.205335,0.683351 -0.332297,1.06258 -0.117149,-0.169406 -0.15552,-0.326151 -0.193891,-0.478014 -0.271465,-1.076049 -0.719683,-2.089231 -1.12014,-3.118346 -0.439236,-1.127079 -0.92746,-2.235376 -1.389967,-3.353881 -0.18696,-0.452303 -0.343715,-0.914396 -0.437197,-1.397316 -0.18043,-0.929092 -0.220435,-1.871665 -0.275134,-2.812595 -0.0073,-0.130212 0.02939,-0.251457 0.05716,-0.377181 0.0645,-0.290246 0.220027,-0.569464 0.126548,-0.88379 -0.009,-0.02974 -0.0048,-0.08285 0.01509,-0.09917 0.224517,-0.19064 0.116748,-0.454352 0.149,-0.684172 0.01797,-0.129403 0.0085,-0.271465 0.113076,-0.354328 0.211046,-0.166547 0.253094,-0.400463 0.297587,-0.637631 0.05061,-0.269833 0.170226,-0.527413 0.348617,-0.710287 0.285341,-0.292688 0.478016,-0.649874 0.746212,-0.955637 0.388212,-0.442502 0.759693,-0.902964 1.164645,-1.331997 0.286971,-0.304524 0.61354,-0.571906 0.900106,-0.877252 0.325758,-0.347385 0.714375,-0.621303 1.076872,-1.012776 0.05554,0.20574 0.100788,0.358818 0.137573,0.513944 0.04085,0.17349 0.09755,0.34779 0.230225,0.46332 0.477609,0.41679 0.952777,0.790709 1.678167,0.630688 0.514753,-0.113053 0.865819,-0.361271 1.10014,-0.810716 0.03749,-0.07186 0.04976,-0.161653 0.09963,-0.222067 0.320852,-0.389436 0.376371,-0.863367 0.453923,-1.336082 0.0633,-0.384124 -0.04941,-0.720089 -0.242884,-1.029103 -0.123282,-0.19676 -0.142467,-0.351065 -0.05508,-0.577217 0.196759,-0.51067 0.356769,-1.037677 0.198391,-1.600604 -0.09477,-0.337596 -0.195129,-0.67437 -0.352292,-0.985838 -0.202881,-0.4025 -0.533951,-0.70294 -0.89072,-0.966652 -0.149816,-0.110623 -0.340455,-0.135524 -0.534357,-0.124913 -0.301666,0.01678 -0.604964,0.0567 -0.906226,0.01678 -0.427402,-0.0567 -0.769487,0.09627 -1.079324,0.377598 -0.447397,0.406168 -0.757235,0.907859 -1.046659,1.427924 -0.149006,0.267797 -0.185745,0.546193 -0.126545,0.844192 0.05103,0.255949 0.09187,0.520065 0.157973,0.764987 0.109002,0.402904 0.02697,0.723362 -0.200429,1.038499 -0.362092,0.502511 -0.638035,1.056863 -0.913181,1.606725 -0.204918,0.409442 -0.43924,0.790304 -0.713149,1.153612 -0.570277,0.755196 -1.071154,1.54999 -1.358128,2.463159 -0.03307,0.10449 -0.09919,0.199213 -0.162062,0.321269 0.029,-0.59477 0.210638,-1.129115 0.302079,-1.678977 0.131854,-0.792352 0.269015,-1.580203 0.524147,-2.343962 0.10287,-0.307801 0.150223,-0.636417 0.271463,-0.93563 0.231864,-0.572323 0.267378,-1.178919 0.338,-1.776142 0.06409,-0.543742 0.143691,-1.083397 0.25554,-1.617337 0.166962,-0.797246 0.435573,-1.571629 0.525378,-2.386823 0.02164,-0.19676 0.09187,-0.383314 0.175943,-0.564974 0.10287,-0.221246 0.216756,-0.441275 0.284113,-0.673548 0.242479,-0.835214 0.720495,-1.559792 1.075239,-2.341927 0.04039,-0.08945 0.09187,-0.169822 0.206969,-0.148588 0.229414,0.04247 0.311872,-0.104953 0.372691,-0.28085 0.03795,-0.110275 0.05751,-0.22901 0.109813,-0.331475 0.398416,-0.783766 0.859293,-1.491611 1.843488,-1.621419 0.473942,-0.06283 0.918897,-0.255139 1.357315,-0.435155 0.784992,-0.322078 1.516908,-0.75397 2.245976,-1.187088 0.868273,-0.515575 1.75492,-0.998902 2.623181,-1.515693 0.533129,-0.317184 0.988291,-0.729484 1.478548,-1.09646 0.538441,-0.403322 1.016861,-0.8846 1.532437,-1.319349 0.336774,-0.284113 0.712741,-0.516803 1.021351,-0.840918 0.36944,-0.38822 0.691519,-0.816027 1.054005,-1.209131 0.220852,-0.239216 0.451493,-0.475574 0.633962,-0.742955 0.452709,-0.663747 0.948278,-1.286683 1.530389,-1.843082 0.184101,-0.176348 0.34617,-0.375145 0.555578,-0.525365 0.09511,-0.06816 0.133488,-0.164916 0.07267,-0.275134 -0.06087,-0.109812 -0.171454,-0.133904 -0.272287,-0.08736 -0.264927,0.123282 -0.544551,0.10692 -0.822959,0.116756 -0.06978,0.0023 -0.138787,0.0184 -0.208586,0.02002 -0.515993,0.01504 -1.00176,0.204513 -1.510393,0.261664 -0.233094,0.02615 -0.456388,0.07961 -0.673966,0.165332 -0.215946,0.08528 -0.450671,0.161236 -0.672322,0.141241 -0.347802,-0.03101 -0.667439,0.08042 -0.994006,0.134298 -0.47679,0.07834 -0.950326,0.193092 -1.424256,0.29514 -1.038905,0.224115 -2.047192,0.525377 -3.002411,0.994412 -0.229415,0.112706 -0.459651,0.222067 -0.68784,0.336775 -0.560889,0.280849 -1.12503,0.562925 -1.632032,0.930318 -0.655995,0.475978 -1.151563,1.105035 -1.571617,1.798185 -0.165737,0.273502 -0.296366,0.541693 -0.306978,0.871119 -0.01041,0.315147 9.15e-4,0.347397 0.364535,0.384136 -0.0331,-0.520886 0.191043,-0.949504 0.4972,-1.341393 0.456793,-0.58579 0.930734,-1.163817 1.574059,-1.55448 0.484957,-0.294319 0.966247,-0.595985 1.487945,-0.831938 0.613538,-0.277991 1.224637,-0.559663 1.856968,-0.79153 0.216755,-0.07961 0.463724,-0.08772 0.668238,-0.187364 0.341275,-0.165738 0.718052,-0.111434 1.067485,-0.229011 0.350243,-0.117565 0.72172,-0.179206 1.087481,-0.243705 0.411074,-0.07221 0.819684,-0.161652 1.240155,-0.177574 0.219614,-0.0081 0.433522,-0.05913 0.647836,-0.124497 0.320436,-0.0972 0.642526,-0.202477 0.986649,-0.203287 0.270239,-0.0012 0.501285,-0.188602 0.776418,-0.183291 0.111433,0.0023 0.227783,-0.06492 0.331879,0.01759 0.0302,0.06862 -0.0024,0.124913 -0.04003,0.162879 -0.405763,0.412706 -0.739679,0.907869 -1.284241,1.162995 -0.492306,0.231047 -0.96583,0.505776 -1.494066,0.655185 -0.158794,0.04443 -0.321257,0.02118 -0.482505,0.05265 -0.756423,0.146956 -1.471617,0.425353 -2.198637,0.664974 -0.04814,0.01596 -0.09674,0.03101 -0.144921,0.04698 -0.0024,9.27e-4 -0.0046,0.0012 -0.007,0.0024 -0.147362,0.04895 -0.292687,0.1053 -0.415564,0.210646 -0.04327,0.0368 -0.113515,0.05103 -0.160009,0 -0.0034,-0.0034 -0.0034,-0.0081 -0.007,-0.0118 -0.252685,0.08574 -0.500464,0.169811 -0.724984,0.244516 -0.1053,0.05508 -0.217577,0.100787 -0.340859,0.134715 -0.144099,0.04004 -0.289424,0.07591 -0.434345,0.112241 -0.0118,0.0034 -0.02777,0.0081 -0.03795,0.01041 -0.0024,9.14e-4 -0.0034,3.01e-4 -0.007,9.14e-4 -0.638857,0.159605 -1.281789,0.305751 -1.892077,0.559258 -0.296771,0.12327 -0.566177,0.312683 -0.848658,0.471477 -0.540883,0.304525 -1.022172,0.68254 -1.438546,1.143822 -0.07719,0.08574 -0.175527,0.151852 -0.264118,0.226963 -0.02615,0.07834 -0.06978,0.144098 -0.127771,0.203702 -0.189818,0.195129 -0.215124,0.193081 -0.331059,-0.04536 -0.256353,-0.52496 -0.440049,-1.078097 -0.634368,-1.627136 -0.208181,-0.587828 -0.362902,-1.203416 -0.808263,-1.678168 -0.0081,-0.0081 -0.01226,-0.01956 -0.01874,-0.02904 -0.3714,-0.544632 -0.705317,-1.116942 -1.202936,-1.565982 -0.682123,-0.615588 -1.329555,-1.274036 -2.174561,-1.678977 -0.264522,-0.126962 -0.502102,-0.293104 -0.702532,-0.50986 -0.06362,-0.0687 -0.132616,-0.1290791 -0.22324,-0.1637702 C 27.750351,9.6883202 27.120885,9.4209397 26.514281,9.098861 25.908491,8.7767824 25.299438,8.4612299 24.683443,8.1591467 24.092349,7.8693176 23.625353,7.4072249 23.087737,7.0435007 22.463983,6.6214103 21.968822,6.0474684 21.408342,5.5490299 20.928694,5.1926651 20.5662,4.818735 20.297594,4.4701231 c -0.04041,-0.025342 -0.05959,-0.062485 -0.08,-0.096737 -0.01146,-0.019208 -0.02165,-0.039227 -0.03307,-0.05832 C 19.66405,3.5835447 19.543628,2.9998018 19.543628,2.9998018 l 0.0013,-3.125e-4 C 19.494283,2.8684547 19.445298,2.737015 19.401212,2.6027057 19.323241,2.365943 19.216702,2.2655263 19.049333,2.290833 c -0.133078,0.020481 -0.214312,0.1555314 -0.229826,0.3861727 -0.0025,0.034714 0.0022,0.070238 -0.0015,0.1044898 -0.02939,0.2779916 -0.02165,0.5641526 -0.113076,0.8290801 -0.141651,0.4098477 -0.239622,0.8241853 -0.259624,1.2585182 -0.02409,0.5200655 -0.09552,1.0413575 -0.0796,1.5601964 0.01919,0.6343679 0.08572,1.2662827 -0.01264,1.899829 -0.01959,0.1273549 -0.01264,0.2530898 0.03551,0.3775983 0.122874,0.3159574 0.18533,0.6474203 0.235948,0.9813481 0.01755,0.1154827 0.0543,0.2236985 0.0943,0.3339164 0.213495,0.593544 0.502104,1.149527 0.805407,1.700615 0.339633,0.617219 0.769075,1.162187 1.261788,1.660208 0.575175,0.581707 1.221785,1.076049 1.900235,1.529162 0.386169,0.257997 0.756012,0.547004 1.179329,0.741728 0.348613,0.160426 0.691105,0.333511 1.037678,0.496795 0.400865,0.189007 0.764176,0.441681 1.145447,0.661306 0.288201,0.165737 0.564153,0.364535 0.853985,0.536393 0.439646,0.261259 0.895212,0.511086 1.263012,0.86501 0.519249,0.500057 1.116055,0.935617 1.460178,1.59815 0.0155,0.0302 0.04536,0.05311 0.06896,0.07833 0.428628,0.452303 0.685386,1.017682 0.993187,1.54631 0.196343,0.336786 0.315957,0.720504 0.47312,1.080954 0.170631,0.391067 0.142871,0.736416 -0.06121,1.097283 -0.343313,0.606191 -0.674371,1.220968 -0.938893,1.866352 -0.321269,0.782945 -0.698043,1.545906 -0.753152,2.418668 -0.02734,0.438823 -0.167775,0.863366 -0.323305,1.280967 -0.271459,0.728258 -0.223291,1.516514 -0.389436,2.267221 -0.133076,0.59926 -0.139199,1.223005 -0.35637,1.808797 -0.165327,0.446182 -0.1988,0.93114 -0.401683,1.370367 -0.09144,0.197987 -0.164916,0.419244 -0.180429,0.634773 -0.04449,0.620077 -0.205739,1.214026 -0.342492,1.815335 -0.08246,0.36208 -0.138385,0.731104 -0.193901,1.098902 -0.09634,0.644169 -0.20737,1.28792 -0.383719,1.913298 -0.11104,0.393521 -0.168186,0.795199 -0.263708,1.189946 -0.04612,0.18859 -0.02777,0.392698 -0.07797,0.585791 -0.01797,0.06896 -0.01836,0.148994 0.03185,0.200428 0.159203,0.162474 0.123688,0.365356 0.131851,0.560068 0.01674,0.382088 -0.02327,0.767439 0.05797,1.145454 0.05837,0.27268 0.146547,0.539656 0.06,0.82459 -0.01876,0.06167 0.0032,0.137561 0.01387,0.20574 0.06858,0.439239 0.2335,0.849087 0.38617,1.263008 0.402499,1.091565 0.880926,2.150882 1.332819,3.222036 0.244111,0.578837 0.486996,1.160543 0.701719,1.749193 0.274728,0.752743 0.471899,1.533651 0.699683,2.303543 0.02048,0.06943 0.09465,0.145742 -0.01678,0.2335 -0.139609,-0.09593 -0.281256,-0.195129 -0.424549,-0.292282 -0.308609,-0.209004 -0.588238,-0.455151 -0.896848,-0.665797 -0.53925,-0.368618 -1.146263,-0.623339 -1.677759,-0.997664 -0.711923,-0.50088 -1.503858,-0.826232 -2.299464,-1.152801 -0.494755,-0.202882 -0.982573,-0.421281 -1.474467,-0.630688 -0.14655,-0.06249 -0.255544,-0.157568 -0.313103,-0.309431 -0.135527,-0.359629 -0.278399,-0.716409 -0.408212,-1.078085 -0.08858,-0.246969 -0.105727,-0.493938 0.0057,-0.748265 0.0645,-0.146958 0.08532,-0.31391 0.118789,-0.473526 0.08165,-0.386982 0.118792,-0.788661 0.24942,-1.158102 0.139609,-0.395557 0.275544,-0.79683 0.373109,-1.197699 0.204515,-0.838059 0.286566,-1.697352 0.197982,-2.564802 -0.07021,-0.684172 -0.237581,-1.353231 -0.327794,-2.032091 -0.102465,-0.77275 -0.374741,-1.483848 -0.635181,-2.206807 -0.179206,-0.4972 -0.476794,-0.961746 -0.471081,-1.517729 3.06e-4,-0.03344 -0.01347,-0.06943 -0.02816,-0.10044 -0.04898,-0.104953 -0.130219,-0.164916 -0.249416,-0.152673 -0.120015,0.01261 -0.198393,0.07753 -0.19023,0.20493 0.01145,0.187781 -0.08735,0.33269 -0.167366,0.487815 -0.05348,0.10287 -0.09593,0.211861 -0.142059,0.318411 -0.204108,0.470263 -0.332288,0.967868 -0.513534,1.444251 -0.303301,0.796842 -0.51598,1.616526 -0.725394,2.439485 -0.08695,0.342086 -0.120016,0.687435 -0.0947,1.038094 0.05021,0.700083 0.197982,1.38629 0.394336,2.054539 0.259213,0.88092 0.615993,1.730007 1.028287,2.552156 0.229826,0.457603 0.498839,0.897247 0.579256,1.414859 0.03757,0.242479 0.102465,0.476383 0.189005,0.70662 0.0396,0.106572 0.119197,0.223698 0.05224,0.364129 -0.284524,-0.09547 -0.506183,-0.276359 -0.764989,-0.375561 -0.684986,-0.263297 -1.349556,-0.569453 -1.994941,-0.918481 -0.245746,-0.132667 -0.511493,-0.231046 -0.745806,-0.379635 -0.520884,-0.329843 -1.069112,-0.618041 -1.578562,-0.960937 -0.512718,-0.344943 -1.128306,-0.584564 -1.420585,-1.197698 -0.01386,-0.02939 -0.04449,-0.05508 -0.07307,-0.07394 -0.242479,-0.156352 -0.304528,-0.400046 -0.32208,-0.663758 -0.07553,-1.116052 -0.319225,-2.207618 -0.481284,-3.311021 -0.0543,-0.369429 -0.194718,-0.716409 -0.233907,-1.089935 -0.06899,-0.657221 -0.171043,-1.31118 -0.243703,-1.968401 -0.04369,-0.39433 -0.18982,-0.763771 -0.231864,-1.161781 -0.06245,-0.588637 -0.08124,-1.181777 -0.182883,-1.768377 -0.06858,-0.398821 -0.0747,-0.808669 -0.11185,-1.213217 -0.0449,-0.487399 0.029,-0.973989 -0.004,-1.463031 -0.04532,-0.671512 -0.01265,-1.347919 -0.158796,-2.0125 -0.09593,-0.433928 -0.202884,-0.871119 -0.425358,-1.250765 -0.431073,-0.734785 -0.764177,-1.517325 -1.156061,-2.270485 -0.493531,-0.948681 -0.885823,-1.94962 -1.335676,-2.921584 -0.105729,-0.22901 -0.171858,-0.486184 -0.369843,-0.666201 -0.153893,-0.140014 -0.2604367,-0.145325 -0.3804517,0.01874 -0.3780067,0.515982 -0.7458067,1.040132 -1.0335974,1.613669 -0.05103,0.102059 -0.08491,0.221245 -0.09184,0.334738 -0.02979,0.492305 -0.162063,0.963782 -0.277179,1.438951 -0.03307,0.137156 -0.05103,0.275538 -0.04042,0.415969 0.06124,0.834391 0.05184,1.67326 0.1587947,2.504794 0.163285,1.269545 0.274727,2.550524 0.780504,3.748223 0.3392257,0.803773 0.5033287,1.665912 0.8543914,2.469281 0.335145,0.767034 0.678044,1.529174 1.03972,2.283143 0.195944,0.409026 0.392703,0.81928 0.507002,1.258923 0.126138,0.48659 0.303304,0.956448 0.504959,1.411204 0.239215,0.54006 0.478428,1.086254 0.825001,1.572022 0.09633,0.13512 0.161243,0.284124 0.213088,0.438013 0.242069,0.719278 0.68294,1.315681 1.154426,1.894529 0.115529,0.141645 0.238398,0.278801 0.291875,0.471894 -0.588238,0.07753 -1.127488,0.263295 -1.681843,0.386161 -0.744578,0.164927 -1.311997,0.580896 -1.70184,1.229138 -0.45516,0.758054 -0.954403,1.485897 -1.4956947,2.183537 -0.316366,0.4078 -0.5547617,0.86214 -0.8135717,1.3022 -0.505366,0.859698 -1.0364527,1.701842 -1.3736354,2.659504 -0.4163787,1.18342 -0.9658344,2.318251 -1.3691491,3.510639 -0.253501,0.749075 -0.5625198,1.478548 -0.8825584,2.202719 -0.3780068,0.853982 -0.8205103,1.674499 -1.3593515,2.435401 -0.653551,0.92297 -1.2181109,1.89616 -1.7500128,2.890978 -0.1147074,0.214719 -0.065309,0.335142 0.1575714,0.438012 0.1898197,0.08772 0.3955595,0.150221 0.5674168,0.264106 0.2147191,0.142884 0.4408708,0.204525 0.6894722,0.210229 0.5229224,0.01261 1.0462511,0.02083 1.5691724,0.03263 0.1534901,0.0034 0.2971805,-0.0302 0.4445446,-0.07267 0.696821,-0.201655 1.2760767,-0.610276 1.8467594,-1.033998 0.223702,-0.166142 0.4347467,-0.34617 0.6715127,-0.498438 0.4012717,-0.25839 0.7776467,-0.558842 1.0695187,-0.942156 0.3522887,-0.462915 0.6494667,-0.961342 0.9139894,-1.480586 0.23758,-0.466593 0.513535,-0.91399 0.747031,-1.382621 0.436382,-0.876025 0.769484,-1.795325 1.129119,-2.70441 0.287383,-0.727032 0.531086,-1.467127 0.738866,-2.217012 0.326978,-1.177288 0.599259,-2.36927 0.931544,-3.546153 0.227376,-0.804583 0.371883,-1.632447 0.556805,-2.449285 0.04572,-0.201239 0.05307,-0.419232 0.243292,-0.562509 0.07307,-0.05508 0.0596,-0.148184 0.0449,-0.22901 -0.07674,-0.426997 0.08491,-0.798462 0.270645,-1.163413 0.06735,-0.132666 0.08286,-0.29514 0.220029,-0.389031 0.126953,-0.08736 0.20574,-0.210229 0.235131,-0.393509 0.273094,0.195117 0.572721,0.268191 0.800505,0.476384 0.257991,0.235941 0.539252,0.438822 0.856435,0.593544 0.2188,0.106919 0.431073,0.231046 0.635588,0.364129 0.703351,0.457602 1.434461,0.863771 2.207209,1.189934 0.653959,0.275956 1.299345,0.568237 1.926768,0.900522 0.318407,0.168179 0.627833,0.371882 0.96706,0.478837 1.05809,0.333105 2.043518,0.831533 3.048949,1.285873 0.529859,0.240026 1.001755,0.581706 1.511206,0.858876 0.416377,0.226556 0.81765,0.491079 1.21117,0.758877 0.412294,0.280445 0.796831,0.603333 1.183408,0.920111 0.226973,0.186138 0.452304,0.377599 0.576407,0.660902 0.05959,0.136751 0.04039,0.264106 -0.03842,0.357997 -0.067,0.08042 -0.16981,-0.01041 -0.255948,-0.03634 -0.389435,-0.115923 -0.770298,-0.26819 -1.180144,-0.299619 -0.582113,-0.04489 -1.163408,-0.01712 -1.74144,0.05312 -0.62334,0.07556 -1.244234,0.161652 -1.863903,0.270643 -0.984203,0.17349 -1.976162,0.30942 -2.969753,0.413515 -0.657225,0.06862 -1.326698,0.08494 -1.94759,-0.228593 -0.03102,-0.0155 -0.0645,-0.02811 -0.09797,-0.03714 -0.139199,-0.03714 -0.259213,-0.01227 -0.32167,0.129819 -0.06287,0.142872 0.04042,0.213492 0.140015,0.280028 0.02857,0.0192 0.06083,0.03344 0.09144,0.05056 0.466588,0.25758 0.926234,0.526592 1.372412,0.819279 0.482508,0.315957 1.017269,0.542931 1.582236,0.602119 1.209131,0.12695 2.414178,0.05589 3.593096,-0.271871 0.212272,-0.05879 0.431074,-0.09025 0.635999,-0.184518 0.807445,-0.37025 1.669186,-0.571084 2.52643,-0.782944 0.21391,-0.05312 0.216767,-0.03263 0.214314,0.20206 -0.0092,0.833986 -0.394746,1.573666 -0.607012,2.353764 -0.256357,0.940105 -0.615995,1.854096 -0.84337,2.804827 -0.127363,0.531498 -0.282483,1.057684 -0.440871,1.576928 -0.224109,0.733974 -0.457199,1.463853 -0.635588,2.210475 -0.110623,0.462509 -0.239213,0.922161 -0.319632,1.390386 -0.08286,0.482909 -0.17104,0.964199 -0.318814,1.429972 -0.140834,0.443313 -0.271871,0.889089 -0.404131,1.334855 -0.166144,0.557614 -0.333104,1.115241 -0.520067,1.665924 -0.149405,0.44087 -0.340856,0.867856 -0.351061,1.34424 -0.0013,0.0567 -0.02082,0.113862 -0.03511,0.170226 -0.13471,0.517208 -0.285341,1.030747 -0.339632,1.566318 -0.01999,0.195939 -0.02694,0.392699 -0.07716,0.587423 -0.109813,0.428211 -0.224926,0.857244 -0.295549,1.292399 -0.145322,0.894805 -0.281257,1.792064 -0.382903,2.692574 -0.03634,0.321269 -0.157164,0.57599 -0.344941,0.817243 -0.264115,0.339644 -0.563334,0.657233 -0.789075,1.020946 -0.443321,0.71487 -1.002982,1.341358 -1.482634,2.028456 -0.478427,0.68408 -0.991142,1.345027 -1.50835,2.001068 -0.537207,0.681996 -0.911946,1.458865 -1.340571,2.204354 -0.297588,0.517566 -0.578031,1.043023 -0.799284,1.602559 -0.02122,-0.561294 -0.03185,-1.118955 -0.02817,-1.676906 0.0032,-0.502592 0.116749,-0.991959 0.193087,-1.486301 0.0992,-0.642931 0.200431,-1.286325 0.274727,-1.93216 0.06409,-0.557129 0.221252,-1.09388 0.309426,-1.646727 0.115112,-0.722832 0.2833,-1.440548 0.476386,-2.147526 0.297177,-1.086672 0.70172,-2.141903 0.949503,-3.244902 0.132262,-0.589864 0.300446,-1.169939 0.411072,-1.767151 0.133894,-0.724174 0.193083,-1.452421 0.246561,-2.183132 0.03756,-0.511074 0.03307,-1.023792 -0.0061,-1.535283 -0.01099,-0.143289 -0.0048,-0.24411 0.187371,-0.255543 0.178798,-0.01041 0.176755,-0.166559 0.140834,-0.293509 -0.04083,-0.144921 -0.102048,-0.285339 -0.168184,-0.42128 -0.128587,-0.264106 -0.242071,-0.543741 -0.25391,-0.830307 -0.02366,-0.573537 -0.129402,-1.130746 -0.238396,-1.690814 -0.115933,-0.594771 -0.233905,-1.193614 -0.428623,-1.763079 -0.392703,-1.1483 -0.968284,-2.211701 -1.65735,-3.211818 -0.06817,-0.09882 -0.140424,-0.193092 -0.280443,-0.163701 -0.1343,0.02777 -0.181655,0.129819 -0.205739,0.25228 -0.06042,0.310241 -0.195125,0.596402 -0.294728,0.893579 -0.106955,0.31922 -0.269015,0.618445 -0.364537,0.935629 -0.205332,0.683351 -0.529861,1.31567 -0.79071,1.974523 -0.199617,0.504143 -0.456791,0.991149 -0.688655,1.48467 -0.400865,0.85235 -0.910726,1.64837 -1.266687,2.521538 -0.01307,0.03182 -0.03837,0.05843 -0.05674,0.08782 -0.366982,0.59477 -0.689063,1.21892 -0.936032,1.866757 -0.30167,0.791532 -0.60824,1.585504 -0.802958,2.416632 -0.12777,0.545777 -0.23717,1.092781 -0.257175,1.651217 -0.01308,0.369845 -0.01755,0.740917 -0.0057,1.113204 0.02532,0.802952 0.09348,1.601831 0.202473,2.394171 0.0743,0.539171 0.166145,1.078953 0.277994,1.615346 0.275544,1.323018 0.5715,2.634892 1.112792,3.879941 0.213901,0.491946 0.43148,0.976037 0.778871,1.394957 0.229415,0.276799 0.443727,0.569903 0.629465,0.87717 0.363718,0.602107 0.821734,1.126257 1.286688,1.648 0.145325,0.163285 0.357188,0.354814 0.311876,0.557164 -0.05102,0.22835 -0.302486,0.383025 -0.526595,0.473571 -0.211046,0.08505 -0.378007,0.223733 -0.56456,0.340119 -0.464139,0.291021 -0.82745,0.706087 -1.281792,1.01192 -0.422909,0.285305 -0.805404,0.6307 -1.225455,0.921385 -0.774384,0.53512 -1.600199,0.991022 -2.385193,1.512476 -0.610686,0.405312 -1.234846,0.789436 -1.8267544,1.223654 -0.244114,0.179253 -0.444138,0.4165 -0.719682,0.550764 -0.4127037,0.201574 -0.7551957,0.501656 -1.1066684,0.786949 -0.5237357,0.424623 -1.0438014,0.854849 -1.5524341,1.297838 -0.226152,0.196759 -0.4596501,0.395105 -0.6608989,0.612324 -0.5282268,0.570193 -0.994815,1.197648 -1.5271276,1.763756 -0.393516,0.418866 -0.7441737,0.869496 -1.0568645,1.341516 -0.6682466,1.00776 -1.2209678,2.0814 -1.6957207,3.19586 -0.12817657,0.30089 -0.18981977,0.65441 -0.53394307,0.83156 -0.12368917,0.0632 -0.11267087,0.19917 -0.020424,0.30042 0.092664,0.10159 0.22125,0.17748 0.3339163,0.0584 0.19757827,-0.20938 0.42984887,-0.3854 0.56782637,-0.65522 0.1710428,-0.33388 0.2045154,-0.71642 0.4033146,-1.03936 0.1089911,-0.17712 0.1738986,-0.38123 0.2820774,-0.55873 0.2841163,-0.46625 0.4665882,-0.98749 0.7919323,-1.43208 0.51476,-0.7034 1.0148208,-1.4152 1.576113,-2.087154 0.4490366,-0.538025 0.9233788,-1.045879 1.4209938,-1.533208 0.6319147,-0.618851 1.2817894,-1.216479 1.9863678,-1.756263 0.42454,-0.324809 0.8029537,-0.70861 1.3087307,-0.916721 0.04205,-0.01724 0.0792,-0.04906 0.115529,-0.07799 0.5621097,-0.451933 1.1487114,-0.86427 1.7577664,-1.254481 0.694778,-0.445846 1.402213,-0.871905 2.090869,-1.327148 0.873169,-0.577575 1.730825,-1.177286 2.523985,-1.863448 0.184513,-0.159617 0.362901,-0.324161 0.562927,-0.467856 0.415561,-0.299132 0.889497,-0.498797 1.285463,-0.800961 0.09553,0.03344 0.108585,0.112243 0.155123,0.162197 0.212268,0.227366 0.38413,0.199155 0.485774,-0.08656 0.02734,-0.07719 0.04818,-0.139528 0.116749,-0.199977 0.361676,-0.319717 0.766626,-0.591912 1.078908,-0.966618 0.02122,-0.02535 0.05715,-0.05392 0.08654,-0.05438 0.230641,-0.0024 0.346982,-0.1539 0.458424,-0.325794 0.05837,-0.09025 0.165733,-0.122783 0.262073,-0.166466 0.30616,-0.13888 0.615177,-0.269787 0.913989,-0.426221 0.625792,-0.32739 1.307917,-0.52864 2.003106,-0.563702 1.136467,-0.05728 2.272116,-0.151481 3.411442,-0.151481 0.359633,0 0.718454,-0.0092 1.078499,-0.0515 0.367392,-0.04363 0.741724,-0.0309 1.112791,-0.04085 0.08123,-0.0024 0.174306,-0.0081 0.209821,0.08632 0.0396,0.104374 -0.02817,0.176684 -0.102465,0.237908 -0.07225,0.05913 -0.143693,0.115935 -0.191455,0.200441 -0.379639,0.670204 -0.549046,1.38666 -0.420866,2.150465 0.111028,0.662857 0.741721,1.261793 1.386701,1.367961 0.603333,0.09951 1.199735,0.09373 1.798174,-0.05439 0.569061,-0.140789 1.011564,-0.454294 1.24261,-0.98004 0.204512,-0.465761 0.316362,-0.972358 0.472298,-1.459803 0.0523,-0.164882 0.0339,-0.318781 -0.03634,-0.474717 -0.138394,-0.307429 -0.249827,-0.631962 -0.478027,-0.887088 -0.131439,-0.146552 -0.130212,-0.279669 -0.05427,-0.442502 0.06411,-0.136797 0.09107,-0.276812 0.07024,-0.438013 -0.09755,-0.74418 -0.506596,-1.258113 -1.154424,-1.595709 -0.320447,-0.16664 -0.651101,-0.317959 -1.032378,-0.243336 -0.571084,0.112243 -1.094008,0.333107 -1.53039,0.721397 -0.322488,0.287342 -0.524553,0.656319 -0.564967,1.090212 -0.02654,0.285744 -0.0078,0.283836 -0.300037,0.314002 -0.601298,0.06283 -1.203415,0.113515 -1.808388,0.09755 -0.558843,-0.0147 -1.112787,0.06041 -1.671634,0.05913 -0.533944,-0.0012 -1.072786,0.02326 -1.600607,0.09813 -1.011553,0.143209 -1.956565,0.49749 -2.866473,0.96457 -0.503327,0.258771 -0.953588,0.577217 -1.374047,0.948277 -0.08328,0.07336 -0.174717,0.137445 -0.262484,0.205705 0.08369,-0.285756 0.151041,-0.556029 0.248195,-0.817694 0.266155,-0.714696 0.703761,-1.336902 1.050335,-2.007593 0.122053,-0.235987 0.227372,-0.485698 0.384944,-0.702581 0.676001,-0.931869 1.346287,-1.868679 2.039845,-2.787646 0.525778,-0.696333 1.062989,-1.383443 1.547535,-2.10993 0.264522,-0.397236 0.561297,-0.772913 0.893174,-1.114918 0.22166,-0.228605 0.360452,-0.479242 0.3678,-0.797652 0.0028,-0.131857 0.02327,-0.226151 0.194718,-0.211456 0.136342,0.01157 0.244521,-0.06492 0.326572,-0.172669 0.182471,-0.240037 0.414742,-0.433939 0.588235,-0.687029 0.135117,-0.197986 0.275137,-0.411479 0.457197,-0.56701 0.515985,-0.441681 0.956445,-0.950315 1.378132,-1.476501 0.403314,-0.503738 0.890314,-0.924614 1.411193,-1.287921 0.54129,-0.377598 1.106252,-0.7307 1.705108,-1.021756 0.752746,-0.365356 1.497331,-0.745812 2.307226,-0.985016 0.30044,-0.08898 0.613956,-0.147779 0.900927,-0.268202 0.518017,-0.216756 1.063805,-0.334738 1.599376,-0.486185 0.961747,-0.272275 1.934104,-0.509442 2.901983,-0.760901 0.217172,-0.05635 0.43475,-0.111432 0.664165,-0.170227 -0.01308,0.133893 -0.08366,0.18328 -0.157163,0.212671 -0.398415,0.158806 -0.702131,0.446182 -1.020946,0.719279 -0.22901,0.196355 -0.404942,0.421685 -0.500059,0.701714 -0.210229,0.616409 -0.22533,1.263019 -0.188185,1.898601 0.03957,0.683351 0.442502,1.18791 0.925828,1.663472 0.784993,0.77275 1.542227,0.72621 2.258647,0.377599 0.728247,-0.353923 1.36302,-0.826222 1.825529,-1.518552 0.715195,-1.070749 0.61804,-2.121895 -0.0861,-3.04364 -0.198392,-0.259627 -0.422507,-0.48822 -0.73438,-0.626615 -0.206966,-0.09187 -0.41679,-0.179206 -0.707024,-0.262879 0.180016,-0.07961 0.275133,-0.132677 0.394735,-0.147374 0.196761,-0.02487 0.380051,-0.101596 0.560068,-0.182469 0.698045,-0.31392 1.355683,-0.708656 2.099042,-0.933986 0.46863,-0.142063 0.940525,-0.253507 1.41854,-0.33107 0.560889,-0.09141 1.130746,-0.127354 1.696946,-0.18859 0.603334,-0.06492 1.207084,-0.05843 1.811239,-0.01874 0.816028,0.05346 1.625923,0.02002 2.424384,-0.175527 0.30412,-0.07475 0.562521,-0.205335 0.746622,-0.474763 0.145731,-0.212672 0.359639,-0.36045 0.564963,-0.513123 0.260854,-0.193486 0.548647,-0.346576 0.779693,-0.585375 0.116744,-0.120424 0.258401,-0.265748 0.431069,-0.282898 0.203287,-0.02036 0.344123,-0.121638 0.491902,-0.235941 0.166952,-0.128998 0.358817,-0.209824 0.553541,-0.291877 0.369834,-0.155936 0.771108,-0.173895 1.150754,-0.284518 0.673143,-0.195533 1.297711,-0.51517 1.957385,-0.746622 0.702535,-0.246564 1.398127,-0.513134 2.092909,-0.780503 0.378814,-0.146147 0.736822,-0.370667 1.127079,-0.456388 0.680897,-0.14941 1.221779,-0.565784 1.823898,-0.860925 0.205739,-0.100787 0.424127,-0.191865 0.613538,-0.326973 0.529462,-0.378015 1.067487,-0.743764 1.532437,-1.206273 0.387805,-0.385363 0.771929,-0.776014 1.102999,-1.208727 0.287792,-0.376371 0.535166,-0.787446 0.767439,-1.201772 0.01157,-0.01956 0.02118,-0.03957 0.03228,-0.05925 0.397594,-0.749478 0.989507,-2.28313 1.224637,-2.905255 0.02291,-0.06492 0.04814,-0.128987 0.07267,-0.19308 0.01758,-0.04733 0.02939,-0.07961 0.02939,-0.07961 l 0.0012,-3.13e-4 c 0.09593,-0.241656 0.207371,-0.477193 0.354328,-0.697628 0.01261,-0.01921 0.02118,-0.04165 0.03263,-0.06167 0.05879,-0.102407 0.06121,-0.197582 -0.03182,-0.283707" style="fill:#f9f9f9;fill-opacity:1;fill-rule:nonzero;stroke:none;stroke-width:.0408212"/></g></svg>